<svg width="217" height="61" viewBox="0 0 217 61" fill="none" xmlns="http://www.w3.org/2000/svg">
    <g clip-path="url(#clip0_240_121)">
        <path
            d="M64.5429 2.36752C62.6477 0.472381 59.5766 0.472381 57.6846 2.36752L25.035 35.0171L4.42611 25.5877C2.35504 24.6401 0 26.1525 0 28.4304V60.0521L74.9446 12.7692L64.5429 2.36752Z"
            fill="#E52E2D" />
        <path
            d="M88.5007 8.49752C87.9174 6.69498 85.7876 5.92334 84.1857 6.93573L74.9446 12.7662L97.0474 34.869L88.5038 8.49752H88.5007Z"
            fill="#E52E2D" />
        <path d="M76.528 25.5229H67.8301V43.2027H76.528V25.5229Z" fill="#E52E2D" />
        <path d="M84.5346 31.2238H78.6423V43.1996H84.5346V31.2238Z" fill="#E52E2D" />
        <path d="M65.0739 31.2238H59.1816V43.1996H65.0739V31.2238Z" fill="#E52E2D" />
        <path
            d="M120.233 26.4921C116.101 25.1032 113.298 24.5538 113.298 22.0969C113.298 19.64 116.582 19.3097 118.286 19.3097C122.138 19.3097 123.07 21.5999 123.07 23.3037H129.857L131.067 21.4641C130.314 17.7386 127.129 12.76 117.823 12.76C110.403 12.76 104.838 15.967 104.838 21.9302C104.838 27.8934 109.755 31.2516 116.141 33.2362C120.15 34.548 123.647 36.1221 123.647 38.2303C123.647 40.3384 121.842 41.4187 118.385 41.4187C113.764 41.4187 112.347 39.5637 112.347 37.0605H103.615C103.615 41.9218 107.427 48.2399 117.838 48.2399C127.184 48.2399 132.107 44.5824 132.107 38.1408C132.107 31.6991 126.12 28.3595 120.233 26.4921Z"
            fill="black" />
        <path d="M136.864 12.76V18.8961H142.716V21.4765H136.864V48.2399H145.052V12.76H136.864Z" fill="black" />
        <path
            d="M173.619 37.1747C171.986 39.8198 169.347 41.144 166.56 41.144C161.992 41.144 157.825 37.6006 157.825 30.5015C157.825 23.4025 162.001 19.856 166.56 19.856C169.344 19.856 171.983 21.1802 173.615 23.8284L180.437 20.0196C177.508 15.6182 172.637 12.76 166.56 12.76C156.423 12.76 149.639 20.7048 149.639 30.5015C149.639 40.2983 156.408 48.2399 166.56 48.2399C172.646 48.2399 177.514 45.3818 180.44 40.9835L173.619 37.1747Z"
            fill="black" />
        <path
            d="M203.354 12.76H195.166L181.52 48.2399H190.527L192.641 42.394H205.879L207.993 48.2399H217L203.354 12.76ZM195.206 35.298L199.258 24.0846L203.314 35.298H195.206Z"
            fill="black" />
    </g>
    <defs>
        <clipPath id="clip0_240_121">
            <rect width="217" height="59.1044" fill="white" transform="translate(0 0.947815)" />
        </clipPath>
    </defs>
</svg>