<svg width="580" height="193" viewBox="0 0 580 193" fill="none" xmlns="http://www.w3.org/2000/svg">
    <path
        d="M303.89 32.1692C303.4 31.8192 302.97 31.4992 302.64 31.2592C302.35 31.0492 302.08 30.8492 301.82 30.6492C299.7 29.0492 298.17 27.8992 295.13 28.1292C292.72 28.3092 290.38 30.0592 288.13 31.7492C286.92 32.6592 285.77 33.5192 284.64 34.1192L284.59 34.1492H284.54C284.21 34.1492 283.11 33.3192 279.74 30.6292C277.89 29.1592 275.97 27.6392 275.33 27.2792C273.27 26.1392 272.31 26.5092 270.44 27.7092C268.55 28.9192 266.7 30.4992 264.91 32.0292C263.23 33.4592 261.49 34.9492 259.71 36.1392L259.38 36.3592V11.5992C259.25 11.4892 258.92 11.2492 258.8 11.1892H252.24V3.25917C252.24 3.16917 252.19 3.07917 252.1 2.99917C251.85 2.77917 251.37 2.66917 251.09 2.69917H251.06L209.51 2.81917C209.44 2.87917 209.29 3.01917 209.23 3.09917V11.1792H202.7C202.57 11.2892 202.21 11.6592 202.1 11.7892V16.9292L201.81 16.8192C193.5 13.7092 186.45 16.4192 183.4 23.8792C181.67 28.1092 181.42 32.5792 181.17 36.9092C181.06 38.9092 180.94 40.9792 180.68 43.0192C180.61 43.5792 180.35 44.5792 180.07 45.6292C179.74 46.8892 179.34 48.4492 179.4 48.8292C179.59 49.9892 184.12 52.4692 185.62 52.9192L185.8 52.9692C186.09 53.0592 186.96 53.3192 187.09 53.3292H191.28L188.09 55.0792C187.18 55.4992 186.22 55.8892 185.29 56.2592C182.41 57.4192 179.44 58.6192 177.42 60.9592L174.11 65.8192L174.01 65.3192C172.23 56.4992 169.6 50.7892 165.97 47.8592C163.68 46.0092 160.65 44.9692 157.71 43.9692C155.69 43.2792 153.6 42.5692 151.78 41.5892L151.74 41.5592C151.06 40.9792 150.92 37.6492 151.14 36.9092C151.18 36.7592 151.43 36.4592 152.07 35.6992C152.45 35.2492 152.84 34.7892 152.99 34.5592C154.09 32.8492 154.87 30.7392 155.17 28.6192C155.21 28.3492 155.19 28.0192 155.17 27.6992C155.15 27.3292 155.13 26.9792 155.19 26.7092C155.23 26.5392 155.4 26.4592 155.68 26.3092C155.94 26.1792 156.25 26.0192 156.42 25.8092C157.53 24.4792 157.85 20.0192 156.65 18.7292C156.5 18.5692 156.22 18.4692 156.03 18.4092C155.86 18.3492 155.75 18.3192 155.69 18.2192C155.51 17.9292 155.6 17.1592 155.88 15.4092C155.97 14.8692 156.05 14.3592 156.06 14.1192C156.09 13.4792 156.01 12.6992 155.92 11.9392C155.81 10.9392 155.71 9.99917 155.84 9.30917C155.9 8.99917 156.08 8.78918 156.25 8.56917C156.41 8.36917 156.57 8.18917 156.65 7.91917C156.84 7.29917 157.05 5.05917 156.86 4.77917C156.73 4.67917 155.85 4.54917 155.21 4.44917C154.42 4.32917 153.61 4.20917 153.22 4.03917C152.68 3.80917 152.17 3.35917 151.68 2.91917C151.31 2.58917 150.96 2.28917 150.6 2.06917C146.99 -0.150826 138.52 -0.900826 135.13 1.40917C134.29 1.97917 133.89 2.66917 133.53 3.28917C133.3 3.66917 133.09 4.03917 132.8 4.32917C132.61 4.52917 132.22 4.69917 131.78 4.88917C131.27 5.11917 130.69 5.36917 130.37 5.68917C128.91 7.09917 128.33 9.70917 128.6 13.6592C128.63 14.0392 128.77 14.7292 128.91 15.4692C129.17 16.7792 129.33 17.6592 129.26 18.0392C129.23 18.1792 129.13 18.2392 128.91 18.3492C128.44 18.5992 127.45 19.1292 127.29 20.4392C127.07 22.2192 127.49 24.8292 128.91 26.3392C129.69 27.1692 130.68 27.5592 131.82 27.4792L132.08 27.4592L132.06 27.7092C131.95 28.8192 132.36 29.8292 132.8 30.8892C133.13 31.6992 133.48 32.5392 133.57 33.4292C133.8 35.7292 133.7 38.7792 131.87 40.2392C129.96 41.7792 127.1 42.7392 124.34 43.6692C122.05 44.4492 119.67 45.2492 117.84 46.3792C106.81 53.1692 113.89 74.4492 116.21 81.4392L116.35 81.8492C117.38 84.9492 118.53 88.4492 121.78 89.7592L121.93 89.8192L121.46 95.4592H111.21C111.13 95.4592 111 95.7192 111 96.1092C111 96.4992 111.12 96.7592 111.21 96.7592H121.49L118.87 129.869C118.93 130.219 118.9 130.659 118.87 131.129C118.83 131.719 118.79 132.389 118.96 132.729C119.1 133.019 119.73 133.119 120.23 133.189C120.82 133.279 121.34 133.349 121.41 133.749V133.809L118.49 183.579C118.6 184.079 118.86 184.229 119.5 184.199L119.95 184.179L119.69 184.549C118.79 185.819 116.23 185.879 114.83 185.609C114.42 185.529 114.03 185.099 113.54 184.539C112.85 183.759 111.99 182.799 110.78 182.499C109.98 182.309 108.87 182.359 107.81 182.419C106.74 182.469 105.73 182.529 105.11 182.309C104.32 182.039 103.93 180.259 103.5 177.969C103.37 177.289 103.26 176.689 103.16 176.409C102.95 175.819 102.56 175.529 102.18 175.249C101.88 175.019 101.59 174.809 101.44 174.469C100.99 173.469 99.4999 167.839 99.4299 166.839C99.3899 166.279 99.4699 165.819 99.5399 165.379C99.5899 165.059 99.6499 164.769 99.6499 164.449C99.6899 160.829 99.7499 157.159 99.7999 153.599C99.9499 144.209 100.11 134.499 99.8499 124.919C99.8299 124.189 99.8499 123.449 99.8499 122.739C99.8599 122.029 99.8699 121.289 99.8499 120.569L99.8099 119.199L102.26 126.139C102.26 126.139 102.34 126.249 102.62 126.309C102.7 126.329 102.77 126.339 102.83 126.409C102.96 126.579 102.86 126.719 102.42 127.309C102.03 127.839 101.44 128.629 101.37 129.079C101.19 130.199 101.39 130.919 101.97 131.219C102.99 131.749 105.03 130.879 106.18 129.749C109.33 126.629 110.1 121.639 109.76 118.009C109.67 117.029 109.39 115.989 109.12 114.989C108.85 113.969 108.56 112.909 108.48 111.909C108.24 109.059 108.4 105.999 108.55 103.039C108.68 100.499 108.81 97.8792 108.7 95.3892C108.55 92.0692 108.08 88.6992 107.63 85.4292C107.18 82.1392 106.7 78.7392 106.55 75.3792C106.56 74.9392 106.89 74.7492 107.15 74.5992C107.36 74.4792 107.53 74.3792 107.59 74.1992C108.01 72.8392 106.91 68.1092 106.39 65.8392C106.33 65.5592 106.27 65.3192 106.23 65.1192V65.0492C105.35 61.2192 104.06 55.4392 101.71 52.4092C99.1699 49.1292 95.2399 47.6392 91.4399 46.1992C89.8799 45.6092 88.2599 44.9892 86.7799 44.2592L86.6499 44.1892V44.0392C86.6799 43.7592 86.5599 43.2692 86.4499 42.7892C86.2899 42.1392 86.1599 41.5792 86.2599 41.2492C86.2999 41.1192 86.4399 40.9992 87.4099 40.2092C88.0499 39.6992 88.8399 39.0492 89.0899 38.7492C90.1699 37.4792 90.9999 35.8792 91.4799 34.1092C92.7399 29.4992 93.0099 15.8692 90.5499 12.3292C90.3399 12.0192 90.0499 11.8192 89.7999 11.6292C89.6199 11.4992 89.4599 11.3792 89.3599 11.2492C89.0099 10.7692 88.7999 10.3392 88.5999 9.91917C88.2399 9.16917 87.9299 8.52917 86.8099 7.69917C82.9399 4.83917 77.1899 4.54917 72.4999 6.97917C68.3899 9.10917 66.0599 12.8092 66.1099 17.1392C66.1099 17.6992 66.3499 18.5992 66.5599 19.3892C66.7499 20.1092 66.9099 20.7392 66.8999 21.0692C66.8999 21.2492 66.7399 21.5292 66.4299 22.0392C66.1899 22.4492 65.9099 22.9192 65.8199 23.2192C65.2099 25.2492 65.4599 28.2692 66.9199 29.8092C67.7099 30.6392 68.7699 30.6692 69.2799 30.6892C69.5299 30.6892 69.6399 30.6992 69.7299 30.7892C69.7999 30.8692 69.7999 30.9392 69.7999 31.2092C69.7999 31.3992 69.7999 31.6792 69.8299 31.7992L69.8699 31.9492C70.7399 35.1892 71.8099 39.2192 69.9399 42.4192C68.9899 44.0392 65.6799 45.0792 63.2599 45.8392C62.6899 46.0192 62.1899 46.1692 61.7999 46.3192L61.6799 46.3592L61.5799 46.2792L44.2599 31.7592C43.5399 31.2892 42.8799 31.7992 42.0299 32.5692C41.8799 32.6992 41.7399 32.8292 41.5999 32.9492C34.6099 38.7192 27.2499 45.2392 21.3999 50.8592L21.2799 50.9692C20.5399 51.6692 20.1399 52.0992 20.0899 52.2292C20.0499 52.3992 20.1399 52.6792 20.2999 52.8892C20.3999 53.0192 20.5199 53.1092 20.6099 53.1092H25.2599V65.4892H8.60993C8.55993 65.5392 8.47993 65.6192 8.42993 65.6692V95.4592H0.0899289C0.0299289 95.5892 -0.0600711 95.9092 0.0499289 96.1892C0.219929 96.5992 0.749929 96.7392 1.17993 96.7692C8.28993 96.3892 15.7499 96.6192 22.9599 96.8292C30.7999 97.0592 38.9099 97.2992 46.5599 96.7692C47.3999 96.7092 47.9099 96.4392 47.9999 96.0092C48.0499 95.7392 47.9099 95.4992 47.8499 95.4492H26.3699V51.8992C26.3699 51.8992 26.3699 51.8492 26.3299 51.8092C26.0399 51.5292 24.8799 51.5592 24.3199 51.5692C24.1299 51.5692 23.9799 51.5692 23.8799 51.5692C23.8299 51.5692 23.7799 51.5692 23.7199 51.5792C23.5599 51.5992 23.3599 51.6192 23.2299 51.4792C23.1499 51.3892 23.1199 51.2592 23.1399 51.1092V51.0292L43.5899 33.0592L60.2899 46.9592L59.6499 47.2392C57.8999 48.0092 56.0799 48.8092 54.6199 50.0992C51.9599 52.4392 49.2599 58.0492 47.4699 61.7592L47.1399 62.4392C46.9299 62.8792 46.6399 63.4392 46.3399 64.0292C45.4399 65.7992 44.3099 68.0092 43.9799 69.2092C43.8799 69.5692 43.8599 69.7992 43.9299 69.8892C43.9999 69.9792 44.2099 70.0192 44.5399 70.0292H44.8699L44.7399 70.3292C44.4699 70.9792 44.0999 71.6592 43.7599 72.3092C43.4299 72.9192 43.0999 73.5492 42.8299 74.1692C41.6999 76.7492 39.2399 83.1492 40.7299 86.9192C41.1799 88.0492 41.9599 88.8692 43.0599 89.3392C46.3899 90.7592 50.9599 89.9192 54.6299 89.2492L55.3899 89.1092L55.3599 89.3992C55.3299 89.7192 55.0699 89.8392 54.8699 89.9392C54.7499 89.9992 54.6299 90.0592 54.5399 90.1592C50.6999 94.3292 47.6599 100.999 46.7799 107.169C45.0699 119.139 49.7399 129.179 54.6799 139.799C55.1199 140.739 55.5499 141.679 55.9899 142.619L56.0099 142.669V142.719C55.8299 145.769 55.5599 148.869 55.3099 151.869C54.9999 155.519 54.6799 159.299 54.5099 163.019V163.219H54.2999C53.1999 163.249 51.9899 162.879 50.9199 162.169L50.8199 162.099V152.909H51.0399C51.4099 152.919 51.6999 152.749 51.9299 152.379C52.6899 151.149 52.4699 148.249 52.0399 147.459C51.9099 147.219 51.6699 147.169 51.3499 147.139C51.1299 147.119 50.8599 147.089 50.8099 146.829C50.6399 145.849 50.7199 144.669 50.8099 143.419C50.9099 141.989 51.0099 140.509 50.6899 139.409C50.1599 137.569 47.6699 136.329 45.8699 136.489L45.6199 136.509L45.6399 136.259C45.8499 132.999 44.0399 129.259 40.7599 128.879C38.4199 128.619 31.8199 128.669 29.6999 129.189C26.7599 129.909 24.5399 132.399 23.6099 135.999L23.5699 136.139L23.4299 136.159C22.5099 136.299 21.4899 136.269 20.4999 136.249C18.1799 136.189 15.7799 136.129 14.3899 138.139C13.4399 139.509 13.5499 141.689 13.6599 143.789C13.7099 144.879 13.7699 145.909 13.6599 146.789V146.819C13.5899 147.089 13.2999 147.169 13.0499 147.249C12.9199 147.289 12.7699 147.329 12.7099 147.389C12.4999 147.749 12.4499 151.619 12.5999 152.129C12.7099 152.509 13.0999 152.649 13.4099 152.759C13.6299 152.839 13.8099 152.899 13.8599 153.079V171.839C13.7599 172.339 13.2399 172.609 12.7299 172.859C12.4799 172.989 12.2299 173.109 12.0399 173.259C8.50993 176.109 7.66993 182.669 8.88993 187.359C9.33993 189.069 10.0499 190.349 11.1999 191.509L11.5699 191.879H2.69993C2.62993 191.879 2.51993 192.099 2.51993 192.419C2.51993 192.739 2.62993 192.959 2.69993 192.959H169.11C169.11 192.959 169.29 192.799 169.35 192.559C169.38 192.439 169.4 192.229 169.24 192.099C169.12 192.019 168.37 191.879 167.77 191.769C166.94 191.619 165.99 191.439 165.54 191.229C165.43 191.179 165.1 191.029 165.13 190.739C165.16 190.389 165.65 190.219 166.46 189.989C166.67 189.929 166.86 189.869 166.97 189.829C174.29 186.679 175.78 183.969 178.76 178.569C179.26 177.669 179.82 176.639 180.46 175.549C182.57 171.889 185.26 170.579 188.44 171.669C190.08 172.229 191.2 173.509 191.77 175.479C193.19 180.369 190.8 187.789 188.59 190.559C187.58 191.829 187.04 191.989 185.43 191.979H185.02L185.25 191.639C185.51 191.259 185.78 190.919 186.05 190.589C186.42 190.119 186.77 189.689 187.09 189.159C188.18 187.339 190.46 181.409 189.94 179.489C189.88 179.279 189.77 179.159 189.62 179.149C189.43 179.139 189.24 179.289 189.14 179.519C188.97 179.909 188.85 180.639 188.74 181.349C188.64 181.969 188.53 182.609 188.39 183.079C187.68 185.449 185.61 192.379 180.86 192.379C180.58 192.379 180.3 192.359 180 192.309L179.57 192.239L179.88 191.939C182.57 189.349 184.17 186.999 185.24 184.099C185.76 182.679 186.24 181.199 186.21 179.999C186.14 179.909 186.07 179.869 186.01 179.879C185.62 179.939 185.07 181.089 184.36 183.289C184.27 183.579 184.21 183.769 184.17 183.859C183.09 186.319 182.01 188.499 179.75 190.419C179.73 190.439 177.24 192.309 176.91 192.309H172.78L173.19 191.929C173.79 191.379 174.42 190.919 175.02 190.469C175.86 189.849 176.64 189.269 177.4 188.469C179.17 186.579 180.98 183.639 181.89 181.149L181.95 180.989C182.79 178.769 182.67 178.169 182.53 178.019C182.5 177.979 182.44 177.959 182.37 177.959C182.32 177.959 182.26 177.959 182.19 177.989C181.81 178.099 180.87 180.489 180.47 181.509C180.21 182.159 179.99 182.709 179.85 182.989C178.71 185.179 176.68 187.719 174.79 189.319C174.4 189.649 173.51 190.199 172.64 190.729C171.92 191.169 171.02 191.719 170.91 191.869C170.77 192.059 170.71 192.489 170.78 192.779C170.81 192.899 170.85 192.949 170.86 192.949H578.8C578.92 192.949 578.99 192.839 579.01 192.639C579.05 192.259 578.88 191.889 578.8 191.869H276.44L277.92 189.859C278.89 187.649 278.18 184.839 276.31 183.459L276.01 183.239L276.35 183.089C276.52 183.009 276.7 182.979 276.86 182.949C277.22 182.889 277.39 182.839 277.48 182.529C277.59 182.149 277.62 178.469 277.52 177.899C277.41 177.279 276.51 177.269 275.45 177.309C275.17 177.319 274.9 177.329 274.69 177.309L274.48 177.289V177.079C274.84 170.459 275.22 163.719 275.6 157.199C276.04 149.449 276.5 141.439 276.9 133.549V133.489C277.07 132.999 277.78 132.989 278.53 132.969C279.45 132.949 280.11 132.899 280.11 132.439V127.949C280.06 127.899 279.98 127.809 279.93 127.759H276.2L276.23 127.519C278.67 107.229 280.65 88.7192 282.29 70.9492C282.39 70.4092 282.67 70.0892 282.93 69.7692C283.19 69.4592 283.44 69.1692 283.52 68.6992C283.67 67.8692 283.72 66.9292 283.77 66.0092C283.82 65.1392 283.87 64.2492 284 63.4292L284.03 63.2192L284.23 63.2392C285.46 63.3892 286.76 63.5892 288.02 63.7892C290.03 64.1092 292.1 64.4392 294.04 64.5492C297.82 64.7492 299.76 63.7192 300.15 61.2992C300.26 60.5892 300.15 60.3692 300.01 60.0992C299.93 59.9292 299.83 59.7492 299.78 59.4492C299.58 58.3392 300.11 56.5692 300.61 54.8592C301.02 53.4892 301.44 52.0792 301.43 51.1292C301.43 50.3192 300.7 50.1492 299.67 50.0192C299.58 50.0092 299.49 49.9992 299.4 49.9792C293.76 49.1492 287.87 48.6692 282.17 48.2092C276.67 47.7592 270.98 47.2992 265.5 46.5192C265.24 46.5492 264.83 46.7592 264.68 46.9592C264.12 47.7192 264.15 50.0692 264.17 51.9592C264.18 53.1392 264.2 54.2592 264.08 54.9092C264 55.3292 263.72 55.5792 263.48 55.7992C263.26 55.9992 263.06 56.1692 263.01 56.4492C262.71 57.9792 263.36 59.4192 264.77 60.4092C267.19 61.4692 269.95 61.7092 272.62 61.9492C274.32 62.0992 276.07 62.2492 277.73 62.6192L277.8 62.6392L277.85 62.6992C277.98 62.8492 277.95 63.1592 277.76 64.6392C277.56 66.1692 277.27 68.4792 277.59 69.2492C277.61 69.3092 277.69 69.3892 277.77 69.4692C277.99 69.6892 278.32 70.0292 278.15 70.5692L271.66 127.639L259.66 127.729H259.62C259.38 127.629 259.1 127.169 258.42 125.919C258.23 125.569 258.05 125.229 257.95 125.079C257.67 124.659 257.41 124.339 257.18 124.059C256.54 123.269 256.08 122.699 255.89 121.169C255.82 120.649 255.73 120.089 255.63 119.499C255.42 118.249 255.19 116.959 255.23 115.929C255.25 115.429 255.45 114.619 255.65 113.889C255.66 113.839 255.68 113.779 255.69 113.699C255.76 113.339 255.86 112.779 256.32 112.779H256.54V112.999C256.54 113.769 258.13 117.239 259.27 117.569C259.43 117.619 259.68 117.629 259.93 117.229C260.15 116.869 259.66 116.269 259.23 115.729C259.02 115.469 258.82 115.219 258.69 114.979C258.42 114.489 258.2 113.959 257.99 113.449C257.76 112.889 257.53 112.319 257.22 111.799L257.1 111.599L257.31 111.499C257.75 111.269 258.41 111.269 259.11 111.269C260.02 111.269 260.96 111.269 261.22 110.729C261.45 110.239 261.37 107.399 260.93 106.329C260.83 106.079 260.76 106.049 260.75 106.049H248.01C246.69 106.049 244.7 107.579 243.94 108.839C243.61 109.379 242.81 111.339 243.09 111.839C243.11 111.879 243.14 111.919 243.26 111.919H247.89V112.119C247.94 112.729 248.06 113.379 248.19 114.079C248.44 115.459 248.7 116.879 248.33 118.119C248.3 118.209 248.24 118.269 247.81 118.639C247.5 118.899 247.07 119.259 246.91 119.459C245.38 121.389 244.43 124.039 244.01 127.569L243.99 127.759L237.53 127.789L237.47 127.659L231.31 112.679V112.619C231.48 111.359 232.48 110.559 233.36 109.859C233.98 109.369 234.56 108.899 234.83 108.329C235.18 107.589 235.21 107.009 234.91 106.599C234.28 105.729 232.29 105.659 230.77 105.849C229.54 106.009 228.72 106.789 227.85 107.629C227.46 107.999 227.06 108.379 226.62 108.709C225.97 109.189 225.25 109.579 224.56 109.949C222.82 110.889 221.18 111.779 220.91 114.029C220.68 115.939 221.08 117.269 222.05 117.889C223.27 118.659 225.34 118.299 227.47 116.949L227.69 116.809L232.24 127.769H222.59C222.54 127.819 222.46 127.899 222.41 127.959V132.449C222.41 132.549 222.44 132.629 222.51 132.699C222.89 133.069 224.1 133.029 224.75 133.009C224.94 133.009 225.11 132.999 225.22 133.009H225.43V133.229C225.33 137.559 225.81 141.959 226.27 146.209C226.43 147.669 226.59 149.189 226.73 150.679V150.759L226.7 150.819C226.19 151.599 225.19 152.249 224.14 152.919C222.12 154.219 220.2 155.459 221.43 157.639C222.1 158.839 223.57 158.719 224.99 158.609C225.75 158.549 226.47 158.489 227.08 158.629C227.39 158.699 227.46 159.019 227.5 159.209C227.51 159.269 227.52 159.329 227.54 159.359V159.419L229.15 177.289L228.94 177.309C228.67 177.339 228.32 177.319 227.95 177.309C227.07 177.269 225.98 177.229 225.62 177.749C225.4 178.069 225.28 180.799 225.57 182.249C225.68 182.799 225.79 182.879 225.79 182.879C226.14 183.089 227.34 183.239 227.72 182.989L228.18 182.689L228.04 183.229C227.29 186.159 226.85 188.599 228.58 191.039C228.63 191.119 228.7 191.149 228.79 191.179C228.92 191.229 229.16 191.329 229.12 191.669L229.1 191.869H221.8L221.78 191.679C221.76 191.489 221.74 191.279 221.72 191.059C221.65 190.249 221.57 189.329 221.25 188.739C220.99 188.269 220.22 187.659 219.47 187.069C218.57 186.359 217.79 185.739 217.71 185.239C217.67 184.949 217.72 184.449 217.79 183.879C217.85 183.359 217.91 182.819 217.89 182.429C217.77 179.359 217.58 176.229 217.4 173.209C217.27 171.039 217.13 168.789 217.02 166.579C216.91 164.409 216.82 162.209 216.73 160.079C216.49 154.449 216.24 148.629 215.71 142.939L215.69 142.749L215.88 142.709C217.93 142.259 217.9 141.979 217.76 140.789C217.72 140.459 217.68 140.099 217.67 139.649C217.41 129.569 216.89 117.879 215.01 107.609C214.91 107.069 214.66 106.149 214.4 105.179C213.98 103.619 213.55 102.009 213.57 101.399C213.57 101.139 213.68 100.909 213.88 100.739C214.57 100.119 216.31 100.289 217.46 100.399C217.78 100.429 218.05 100.459 218.2 100.459C221.41 100.419 225.37 99.0492 226.73 96.5092C228.36 93.4692 227.6 90.1692 226.87 86.9692C226.48 85.2792 226.11 83.6692 226.08 82.1092C226.06 81.2592 226.31 80.9992 226.5 80.7892C226.59 80.6892 226.67 80.6092 226.71 80.4692C226.89 79.8792 225.51 74.4292 224.53 70.9292L224.33 70.2092C222.59 63.9992 221.44 59.8992 215.07 57.0292C213.04 56.1092 210.53 55.1692 208.31 54.3392C207.87 54.1692 207.43 54.0092 207.01 53.8492C206.77 53.7592 206.5 53.7492 206.22 53.7592H205.6L206.08 53.3692C206.53 52.9992 207.09 52.7692 207.62 52.5492C207.96 52.4092 208.31 52.2692 208.63 52.0892C209.44 51.6292 211.23 50.3492 211.61 49.6192C212.06 48.7392 211.79 48.0892 211.47 47.3192C211.32 46.9692 211.17 46.6092 211.08 46.2092C210.67 44.3992 210.08 40.9892 210.09 39.0992C210.09 38.4792 210.21 37.8892 210.33 37.2692C210.51 36.3692 210.69 35.4492 210.52 34.3692C210.47 34.0192 210.27 33.7292 210.09 33.4492C209.92 33.1892 209.74 32.9192 209.68 32.6092C209.58 32.0692 209.61 31.4192 209.65 30.7892C209.68 30.2892 209.71 29.7792 209.66 29.3392C209.35 25.9692 208.13 20.0092 203.52 17.8892L203.4 17.8292V12.6892H258.08V95.4492H248.35V82.3792C248.27 82.2792 248.05 82.0692 247.96 81.9792H230.6C230.55 82.0292 230.47 82.1092 230.42 82.1592V95.5092L230.15 95.4392C229.54 95.2792 229.02 95.3592 228.76 95.6592C228.62 95.8192 228.58 96.0192 228.65 96.2092C228.77 96.5092 229.15 96.7092 229.67 96.7592H272.67C273.36 96.6592 273.58 96.1892 273.56 95.8192C273.54 95.5992 273.44 95.4392 273.32 95.4392H259.6V87.8392H265.04C265.14 87.7592 265.35 87.5392 265.43 87.4392V78.4992H270.83V90.3192C270.89 90.3892 271.18 90.5092 271.52 90.4492C271.75 90.4092 272.04 90.2792 272.12 89.8792C272.05 88.1892 272.1 86.4392 272.14 84.7492C272.19 82.8592 272.24 80.9092 272.14 79.0392C272.14 78.9592 272.14 78.8692 272.13 78.7792C272.1 77.8692 272.01 77.1092 271.33 76.9792C270.6 76.8392 265.47 76.8392 264.72 76.9792C264.47 77.0292 264.08 77.3092 264 77.5092C263.9 77.7392 263.96 77.8292 264.04 77.9292C264.08 77.9892 264.14 78.0692 264.14 78.1692V86.3192H259.6L259.37 39.0292L259.72 37.9492L259.77 37.9092C261.26 36.7592 262.75 35.5392 264.19 34.3492C265.96 32.8992 267.78 31.3992 269.64 30.0092C269.78 29.9092 269.94 29.7792 270.13 29.6292C271.05 28.9092 272.3 27.9192 273.11 27.8892C273.71 27.8692 274.27 28.2492 274.77 28.5892C274.89 28.6692 275 28.7492 275.11 28.8192C275.74 29.2192 277.44 30.5592 279.24 31.9892C281.25 33.5892 284.01 35.7792 284.39 35.8692C284.49 35.8892 284.55 35.8492 284.67 35.7792C284.73 35.7492 284.78 35.7092 284.84 35.6792C286.17 35.0692 287.47 34.0592 288.84 32.9792C292 30.4992 295.27 27.9392 299.23 30.4192L308.81 37.7292C309.15 37.8592 309.45 37.7992 309.61 37.5692C309.79 37.3092 309.78 36.8392 309.35 36.3692C308.47 35.4092 305.72 33.4292 303.9 32.1292L303.89 32.1692ZM25.2899 95.4692H9.72993V66.7992H25.2899V95.4692ZM250.27 191.909H235.51L235.85 191.539C236.77 190.559 237.23 189.179 237.15 187.649C237.06 186.009 236.34 184.459 235.22 183.489L235.1 183.379L235.17 183.229C235.25 183.049 235.38 182.989 235.46 182.979C235.68 182.939 235.87 183.109 235.98 183.219H249.29L249.17 183.519C248.62 184.909 247.57 188.419 249.6 190.989C249.67 191.079 249.76 191.129 249.87 191.179C250.03 191.259 250.28 191.379 250.27 191.699V191.909ZM255.45 188.699C255.1 190.429 254.2 191.409 253.02 191.409C252.88 191.409 252.74 191.399 252.6 191.369C250.91 191.059 249.24 188.839 249.62 186.449L249.71 185.879L250.97 187.869C252.08 189.079 253.78 189.319 255.11 188.469L255.54 188.189L255.44 188.689L255.45 188.699ZM253.78 185.889C253.92 186.329 254.15 187.069 253.83 187.499C253.74 187.629 253.55 187.789 253.2 187.799H253.17C251.68 187.799 250.45 184.609 250.27 183.589C250.24 183.449 250.19 183.149 250.4 183.039C250.6 182.939 250.78 183.109 250.89 183.219H254.29L254.35 183.339C254.74 184.099 254.25 184.849 253.94 185.339C253.85 185.469 253.73 185.659 253.73 185.719C253.73 185.719 253.76 185.819 253.78 185.889ZM256.33 191.909V191.699C256.3 191.349 256.59 191.229 256.76 191.159C256.87 191.119 256.97 191.079 257.03 191.009C259.01 188.719 258.29 185.529 256.6 183.689L256.55 183.629V183.559C256.53 183.389 256.51 183.109 256.71 183.019C256.89 182.939 257.04 183.099 257.13 183.189C257.13 183.189 257.15 183.209 257.15 183.219C258.42 183.219 259.74 183.239 261.02 183.259C263.64 183.299 266.34 183.339 268.89 183.219C269.01 183.109 269.18 182.939 269.37 183.039C269.57 183.149 269.52 183.429 269.49 183.579C269.43 183.889 269.32 184.199 269.2 184.529C269.06 184.939 268.91 185.359 268.87 185.759C268.62 188.029 269.16 189.919 270.53 191.549L270.83 191.909H256.33ZM274.05 191.139C273.78 191.259 273.5 191.319 273.2 191.319C272.48 191.319 271.72 190.969 271.18 190.329C270.33 189.329 270.13 187.969 269.95 186.779L269.8 185.729L271.3 188.099C272.13 189.049 273.69 189.549 274.78 188.699L275.07 188.469L275.12 188.839C275.27 189.899 274.87 190.759 274.05 191.139ZM274.39 186.459C274.41 186.899 274.43 187.409 274.12 187.729C273.95 187.899 273.7 187.979 273.39 187.979C273.36 187.979 273.32 187.979 273.29 187.979C272.1 187.909 271.6 186.509 271.16 185.269C270.93 184.629 270.72 184.019 270.44 183.689L270.4 183.639V183.569C270.38 183.399 270.35 183.119 270.56 183.029C270.74 182.949 270.89 183.109 270.98 183.199C270.98 183.199 270.99 183.219 271 183.229C271.32 183.229 271.67 183.239 272.04 183.259C272.84 183.289 273.67 183.319 274.3 183.239C274.3 183.239 274.32 183.219 274.33 183.209C274.42 183.109 274.53 182.979 274.69 182.989C274.77 182.989 274.84 183.039 274.89 183.099L274.91 183.129V183.159C275.19 184.019 274.91 184.669 274.67 185.249C274.57 185.479 274.48 185.699 274.43 185.919C274.4 186.049 274.41 186.249 274.42 186.459H274.39ZM276.42 178.659V181.919H250.26V181.699C250.28 181.379 250.33 181.069 250.39 180.769C250.5 180.149 250.61 179.569 250.29 178.989L250.11 178.669H276.41L276.42 178.659ZM252.64 177.359V177.129L254.61 133.039H271.05L265.81 177.349H252.64V177.359ZM273.17 177.229L273.12 177.289C273.04 177.379 272.74 177.409 272.36 177.409C271.63 177.409 270.63 177.289 270.51 177.239L270.36 177.179L274.69 140.629L275.12 140.669L273.17 177.239V177.229ZM279.02 128.919V131.749H275.64L275.8 131.429C276.04 130.949 276.02 130.419 276 129.849C276 129.619 275.98 129.369 276 129.129V128.919H279.03H279.02ZM282.01 68.9992L278.81 68.4692L279.25 62.8692L282.72 63.1192L282.02 68.9992H282.01ZM296.64 51.4492L297 51.1992L300.03 51.6292L298.43 59.4292L295.41 59.1692L296.64 51.4492ZM292.46 50.6092L292.73 50.7492C293.21 50.9892 293.75 50.9692 294.31 50.9492C294.54 50.9492 294.78 50.9292 295.02 50.9492H295.26L294.11 59.0092L291.3 58.7492L292.46 50.6192V50.6092ZM287.69 50.2692L291.15 50.5192L290 58.5692L286.55 58.0692L287.69 50.2692ZM283.15 49.8392L286.39 50.0892L285.47 57.9092L282.23 57.6592L283.15 49.8392ZM278.83 49.4092L282.07 49.6592L280.93 57.4792L277.91 57.2292L278.83 49.4192V49.4092ZM274.06 48.9692L277.53 49.2192L276.61 57.0592L273.39 56.5492L274.06 48.9792V48.9692ZM269.97 48.5392L272.99 48.7892L272.07 56.3892L269.05 56.1392L269.97 48.5492V48.5392ZM265.49 51.4292C265.59 50.1292 265.68 48.7792 265.62 48.3692L265.58 48.0992L268.66 48.3692L267.99 55.8292L267.93 55.8892C267.87 55.9492 267.79 55.9792 267.55 55.9792C267.5 55.9792 267.45 55.9792 267.38 55.9792C267.36 55.9792 265.68 55.8892 265.47 55.6392C265.22 55.3492 265.29 54.1392 265.48 51.4492L265.49 51.4292ZM265.99 59.5292H265.96L265.93 59.5092C264.77 58.8592 264.2 57.9592 264.32 56.9992L264.35 56.7892L298.7 60.7492L298.68 60.9592C298.48 63.0692 296.7 63.3492 295.39 63.3492C295.12 63.3492 294.88 63.3392 294.67 63.3292C293.11 63.2592 291.32 63.0092 289.59 62.7792C288.64 62.6492 287.76 62.5292 286.91 62.4392L286.56 62.3992C279.76 61.6492 272.73 60.8692 266 59.5392L265.99 59.5292ZM281.2 70.0492L281.17 70.2892L269.26 177.359H267.09L267.12 177.109L279.24 70.0492H281.2ZM271.32 128.919L271.38 128.979C271.63 129.229 271.28 131.459 271.24 131.569C271.18 131.719 271.06 131.739 271.01 131.739H256.53V128.919H271.32ZM248.43 110.669H244.59L244.65 110.399C244.94 109.139 247 107.409 248.21 107.409H259.99V110.039L259.75 110.009C256.82 109.689 255.11 110.849 254.22 113.779L254.16 113.969L253.97 113.929C253.63 113.859 252.9 113.889 252.19 113.929C251.67 113.959 251.23 113.979 250.87 113.979C250.31 113.979 249.92 113.929 249.71 113.789C249.4 113.579 249.31 113.039 249.19 112.349C249.06 111.599 248.9 110.659 248.43 110.659V110.669ZM254.18 118.059H249.59L249.99 115.229H253.93L254.18 118.059ZM248.9 119.469C249.72 119.209 250.88 119.279 252.01 119.349C252.88 119.399 253.71 119.449 254.35 119.359L254.58 119.329L254.6 119.559C254.64 119.929 254.65 120.359 254.67 120.809C254.7 121.649 254.73 122.609 254.91 123.219C255.06 123.739 255.55 124.299 256.08 124.899C256.82 125.749 257.58 126.619 257.63 127.599V127.829H245.34L245.32 127.639C245.1 125.809 247.25 119.999 248.92 119.469H248.9ZM228.17 115.359C227.82 115.189 226.89 115.789 226.26 116.189C225.78 116.509 225.36 116.769 225.04 116.859C223.91 117.169 222.99 116.989 222.44 116.369C221.87 115.729 221.8 114.719 222.25 113.589C222.63 112.629 224.16 111.759 225.51 110.979C226.11 110.639 226.68 110.309 227.08 110.019C227.4 109.779 227.78 109.439 228.18 109.069C229.08 108.259 230.09 107.329 230.9 107.209C231.38 107.139 231.91 107.159 232.42 107.189C232.82 107.209 233.24 107.229 233.61 107.189L234.06 107.149L233.81 107.529C233.48 108.019 232.91 108.569 232.31 109.139C231.16 110.249 229.86 111.499 229.95 112.649C231.91 117.209 234.13 122.369 235.99 127.529L236.1 127.819L233.73 127.789L228.17 115.349V115.359ZM223.47 131.739V128.919H255.24V131.739H223.47ZM227.2 157.579C227.2 157.579 227.13 157.599 227.1 157.599C226.96 157.599 226.85 157.479 226.78 157.399C226.78 157.399 226.77 157.379 226.76 157.369C226.53 157.369 226.19 157.379 225.8 157.399C224.38 157.449 223.26 157.479 222.87 157.359C222.62 157.279 222.25 156.659 222.25 156.389C222.25 155.679 223.82 154.559 226.17 153.109C226.35 152.999 226.49 152.909 226.59 152.849L226.92 152.639V153.029C226.92 153.799 227.04 154.609 227.16 155.389C227.24 155.929 227.32 156.489 227.36 157.029C227.37 157.199 227.4 157.489 227.19 157.579H227.2ZM228.21 152.599H239.1L239.16 152.639C239.25 152.699 239.29 152.799 239.28 152.919C239.22 153.679 235.81 156.289 235.53 156.439C234.74 156.859 232.8 157.369 232.01 157.369H228.46L228.22 152.589L228.21 152.599ZM228.63 158.669H228.87C231.16 158.709 232.95 158.549 234.48 158.179C237.5 157.439 240.28 153.959 242.31 151.419C242.53 151.139 242.75 150.859 242.96 150.599C243.14 150.369 243.39 150.079 243.67 149.729C244.91 148.229 246.98 145.719 247.44 144.749C247.62 144.369 247.72 144.069 247.68 143.669C247.6 143.589 247.25 143.469 247.13 143.479C246.64 143.519 244.48 146.389 243.2 148.109C242.03 149.659 241.03 151.009 240.52 151.429L240.45 151.489H240.36C237.89 151.209 235.34 151.249 232.88 151.279C231.35 151.299 229.77 151.319 228.22 151.279H228.03L226.47 133.039H253.3V133.269L251.34 177.359H230.41L228.64 158.669H228.63ZM226.71 181.919V178.659H249.19V181.919H226.71ZM232.75 186.589C232.77 186.939 232.79 187.309 232.55 187.559C232.39 187.729 232.15 187.809 231.81 187.809H231.78C230.55 187.799 230.01 186.119 229.57 184.779C229.41 184.289 229.26 183.829 229.11 183.549L228.93 183.229H232.57C232.57 183.229 232.57 183.229 232.57 183.219C232.66 183.119 232.78 182.989 232.94 182.989C233.02 182.989 233.09 183.039 233.14 183.099L233.16 183.129V183.169C233.4 184.039 233.16 184.719 232.96 185.319C232.88 185.549 232.81 185.769 232.75 185.999C232.71 186.179 232.72 186.389 232.74 186.589H232.75ZM228.45 186.449L228.49 186.099L228.78 186.299C229.08 186.499 229.23 186.839 229.37 187.159C229.46 187.369 229.56 187.579 229.69 187.749C230.83 189.249 232.01 189.229 233.77 188.649L234.15 188.529L234.05 188.919C233.49 190.979 232.43 191.349 231.74 191.349C231.59 191.349 231.46 191.329 231.35 191.309C229.79 190.989 228.14 188.749 228.45 186.439V186.449ZM190.82 52.0192C190.3 51.9692 189.72 51.9992 189.15 52.0292C188.8 52.0492 188.44 52.0592 188.09 52.0592C187.8 52.0592 187.52 52.0492 187.25 52.0092C186.2 51.8792 180.92 49.4792 180.72 48.4392V48.3792L180.73 48.3192C182.04 44.8592 182.23 41.0892 182.42 37.4392C182.55 34.9192 182.68 32.3092 183.18 29.8092L183.25 29.4492L183.53 29.6892C183.65 29.7992 184.27 29.8192 184.5 29.8292C184.79 29.8392 184.86 29.8492 184.94 29.9192C185.12 30.0992 185.16 30.7492 185.05 34.7792C185.02 35.9492 184.99 36.9592 185.01 37.3292C185.23 41.4092 185.9 45.5792 189.27 48.4592C189.42 48.5892 189.89 48.8592 190.27 49.0792C190.87 49.4292 190.94 49.4692 190.99 49.5492C191.14 49.8192 191.11 50.3192 191.07 50.8592C191.05 51.1992 191.02 51.5492 191.06 51.7492L191.12 52.0292L190.83 51.9992L190.82 52.0192ZM189.73 55.9592C192.19 55.4792 192.37 53.2092 192.35 50.7292V50.4492L192.62 50.5092C195.76 51.2392 198.88 50.4692 202.17 48.1492L202.52 47.8992L202.5 48.3392C202.42 50.6492 202.74 52.3592 203.45 53.4092C203.54 53.5292 203.77 53.7492 203.97 53.9392C204.42 54.3592 204.59 54.5392 204.61 54.7192C204.62 54.8592 204.65 55.1992 203.21 56.5292C202.48 57.1992 201.68 57.8392 201.39 58.0392C199.57 59.2792 197.06 60.2792 194.79 60.2792C194.02 60.2792 193.28 60.1592 192.59 59.9092C191.05 59.3192 190.03 58.0892 189.55 56.2392L189.49 56.0192L189.72 55.9792L189.73 55.9592ZM189.05 59.0392C192.99 63.1592 198.96 61.7792 203.13 58.5792L203.61 58.2092L201.17 68.7392H186.46L188.78 58.7392L189.06 59.0292L189.05 59.0392ZM208.7 89.6492C208.87 89.9492 209.11 90.2392 209.34 90.5092C209.89 91.1692 210.47 91.8592 210.28 92.8992L210.24 93.1192L210.02 93.0692C205.79 92.1092 202.92 93.6792 201.24 97.8792C200.31 100.199 199.59 103.489 200.61 105.149C201.01 105.799 201.63 106.149 202.52 106.229L202.78 106.249L193.36 141.699L192.95 142.149H192.85C187.36 142.039 181.92 141.599 176.68 140.839H176.61L176.15 140.409V140.309C176.22 139.359 176.28 138.409 176.34 137.459C177 127.039 177.68 116.259 179.66 105.829C180.25 102.719 181 99.5692 181.72 96.5292L181.96 95.5192L181.98 95.4892C182.21 95.1492 183.11 95.2092 186.14 95.7392C186.65 95.8292 187.08 95.8992 187.28 95.9192L187.86 95.9792C189.49 96.1392 191.34 96.3292 192.88 96.3792C193.67 96.4092 194.04 96.2292 194.12 96.0492C194.19 95.8892 194.08 95.6192 193.81 95.2992L182.21 93.9392L182.19 93.7692C182 92.2892 181.56 90.8092 181.15 89.3892C180.85 88.3592 180.54 87.2992 180.31 86.2292C179.78 83.7192 179.26 80.7992 179.38 78.2092C179.4 77.7492 179.66 75.7192 180.02 73.7592C180.74 69.8492 181.19 69.8492 181.43 69.8492H205.55L205.52 70.0892C204.91 75.7692 205.42 83.8892 208.69 89.6592L208.7 89.6492ZM203.82 107.679L203.86 107.539H204C204.45 107.479 204.71 107.279 204.99 107.079C205.4 106.779 205.82 106.469 206.69 106.779L206.88 106.849L191.2 164.409L190.97 164.309C190.73 164.209 190.43 164.179 190.14 164.149C189.7 164.099 189.28 164.059 189.05 163.739C188.91 163.539 188.87 163.279 188.94 162.929C189.25 161.409 189.77 159.749 190.27 158.139C190.6 157.079 190.94 155.989 191.21 154.979C192.36 150.619 193.52 146.189 194.64 141.889C197.58 130.649 200.62 119.029 203.81 107.679H203.82ZM180.54 95.7392L178.94 93.4492L179.42 90.0092L179.64 90.0492C180.09 90.1292 180.16 90.4892 180.21 90.7292C180.23 90.7992 180.24 90.8692 180.26 90.9192C180.73 92.1992 181.15 93.7192 180.67 95.3192L180.54 95.7492V95.7392ZM188.36 56.4192L185.11 68.4192L185.09 68.4492C184.84 68.8092 184.05 68.8092 182.87 68.7492C182.43 68.7292 182.01 68.7092 181.81 68.7492L181.47 68.8092L184.64 58.0792L188.37 56.4192H188.36ZM178.68 61.6492C178.87 61.4392 182.21 58.4392 182.97 59.0192L183.09 59.1092L183.04 59.2592C182.81 59.9392 182.59 60.6092 182.36 61.2892C181.42 64.0892 180.45 66.9792 179.65 69.8392C178.75 73.0792 177.94 76.5892 178.07 80.3592C178.1 81.2192 178.32 82.2792 178.52 83.3092C178.76 84.4892 178.98 85.5992 178.95 86.4392C178.95 86.4792 178.12 91.4092 177.79 91.7092C177.69 91.8092 177.57 91.7692 177.4 91.7092C177.19 91.6492 176.77 91.5192 176.57 91.6592C176.48 91.7292 176.43 91.8692 176.43 92.0792C176.43 92.5292 177.77 94.2392 178.66 95.3792C179.34 96.2492 179.92 96.9992 180.13 97.3992L180.17 97.4692L178.31 105.649L178.03 105.369C177.65 104.979 177.19 104.539 176.71 104.079C173.99 101.439 169.87 97.4592 169.45 94.2592C169.35 93.5292 169.39 92.7192 169.42 91.9492C169.45 91.2992 169.48 90.6392 169.42 90.0292L169.4 89.7992H169.63C172.12 89.7492 174.31 88.8292 175.63 87.2692C177.84 84.6592 177.22 81.1692 176.67 78.0992C176.61 77.7692 176.37 76.8692 176.13 76.0092C175.66 74.3092 175.52 73.7592 175.54 73.5892C175.56 73.4292 175.67 73.3192 175.78 73.2092C175.94 73.0492 176.12 72.8792 176.14 72.5292C176.16 72.1992 176.04 71.9492 175.92 71.6892C175.83 71.4892 175.73 71.2792 175.69 71.0392C175.65 70.7392 175.66 70.4392 175.68 70.1492C175.69 69.8592 175.71 69.5892 175.67 69.3192C175.61 68.9392 175.34 68.6292 175.14 68.4092C174.99 68.2392 174.89 68.1292 174.88 67.9892C174.82 67.2092 178.16 62.1692 178.66 61.6292L178.68 61.6492ZM132.53 73.9592C132.58 73.9392 132.63 73.9292 132.67 73.9092C135.52 72.9692 143.83 74.2792 149.89 75.2392C151.74 75.5292 153.34 75.7792 154.44 75.9192C156.29 76.1392 158.19 76.2792 160.03 76.4192C162.16 76.5792 164.37 76.7492 166.52 77.0292C166.79 77.0692 167.29 77.1692 167.93 77.3092C169.2 77.5792 172.56 78.2892 172.9 77.9392C173.1 77.6092 173.01 77.4392 172.98 77.3792C172.75 76.9492 171.78 76.7092 171.16 76.6792L170.48 76.6492L174.22 74.2792L174.3 74.5592C174.38 74.8192 174.46 75.0892 174.54 75.3692C175.53 78.6692 176.76 82.7692 175.22 85.5392C174.52 86.7892 173.3 87.6592 171.58 88.1092C170.1 88.4992 168.58 88.6692 167.04 88.6692C160.43 88.6692 153.44 85.4692 147.12 82.5892C144.93 81.5892 142.85 80.6392 140.89 79.8692C140.37 79.6692 139.76 79.4092 139.12 79.1392C137.42 78.4192 135.48 77.6092 134.18 77.3192C133.96 77.2692 133.61 77.2592 133.28 77.2592C132.7 77.2492 132.33 77.2292 132.13 77.0892C131.93 76.9392 131.38 75.1292 131.39 74.9292C131.44 74.2992 132.07 74.0992 132.53 73.9592ZM131.25 72.8692L130.92 72.9692L133.06 60.4992H160.13L160.8 68.8492C160.88 70.6592 159.71 71.5792 158.58 72.4692C157.8 73.0892 156.98 73.7292 156.54 74.6692L156.47 74.8092L156.32 74.7892C154.14 74.5692 151.93 74.2192 149.8 73.8892C148.04 73.6092 146.22 73.3292 144.43 73.1192C143.8 73.0492 143.14 72.9592 142.47 72.8792C140.21 72.5892 137.87 72.2892 135.83 72.2292C134.01 72.1792 132.78 72.4192 131.25 72.8692ZM174.57 71.6392C174.71 71.7992 174.64 72.5492 174.55 72.7192L174.51 72.7992L174.42 72.8192C173.63 73.0392 172.62 73.7992 171.66 74.5292C170.78 75.1992 169.94 75.8392 169.29 76.0292C169.13 76.0792 168.95 76.0992 168.77 76.0992C168.19 76.0992 167.53 75.8792 167.14 75.5292L166.94 75.3492L167.17 75.1992C167.63 74.8892 168.1 74.5192 168.59 74.1292C169.92 73.0892 171.43 71.8992 173.03 71.6292C173.04 71.6292 174.37 71.4292 174.58 71.6392H174.57ZM174.21 68.9692L174.41 68.9892V70.2892H174.18C171.81 70.1392 168.7 72.1192 166.67 74.1292C166.5 74.2992 166.26 74.7292 166.1 75.0192C165.93 75.3192 165.9 75.3792 165.83 75.4192C165.64 75.5392 165.31 75.5792 164.85 75.5792C164.13 75.5792 163.09 75.4592 161.74 75.2892C160.4 75.1192 159.02 74.9492 158.44 75.0492L157.92 75.1392L158.22 74.7092C158.56 74.2292 159.02 73.7292 159.66 73.1592C160.74 72.1992 166.29 67.4092 169.52 67.0392H169.63C170.31 66.9492 171.44 66.8092 171.77 67.5792L171.91 67.8892H171.57C171.57 67.8892 171.56 67.8892 171.55 67.8892C169.9 67.8892 164.9 70.9692 164.68 72.4292C164.65 72.6192 164.72 72.7992 164.86 72.9092C165.01 73.0192 165.2 73.0392 165.37 72.9692C165.65 72.8492 166.19 72.3392 166.71 71.8392C167.25 71.3192 167.82 70.7792 168.27 70.4892C170.12 69.3192 172.1 68.8092 174.18 68.9892L174.21 68.9692ZM158.9 45.9492C168.47 47.9892 170.92 57.7892 172.9 65.6592L172.97 65.9392H172.68C172.34 65.9092 172.02 65.8892 171.72 65.8692C170.67 65.7992 169.76 65.7392 168.59 65.9892C167.74 66.1692 167.05 66.4992 166.31 66.8492C165.89 67.0492 165.46 67.2492 165 67.4292L164.63 67.5692L164.71 67.1792C165.03 65.5492 165 63.4992 164.93 61.8992C164.86 60.3592 164.61 57.2992 164.29 56.8292C164.14 56.6092 163.94 56.5092 163.74 56.5592C163.5 56.6092 163.31 56.8492 163.25 57.1592C163.44 58.3992 163.43 59.6592 163.41 60.8792C163.41 61.2892 163.4 61.7092 163.41 62.1192V62.6992C163.42 63.6492 163.43 64.5492 163.4 65.5892C163.4 65.8892 163.46 66.6792 163.52 67.3092C163.6 68.1992 163.61 68.3692 163.59 68.4492C163.53 68.6992 163.19 68.9192 162.72 69.1992C162.62 69.2592 162.52 69.3192 162.46 69.3592L162.13 69.5892V69.1892C161.94 61.9992 160.81 54.4892 158.67 46.2192L158.58 45.8792L158.92 45.9492H158.9ZM153.58 43.8192C153.81 43.9992 154.49 44.2492 155.16 44.4792C156.52 44.9692 157.17 45.2392 157.29 45.5792V45.6092C157.57 47.1792 157.92 48.7592 158.26 50.2892C158.89 53.0992 159.53 56.0092 159.71 58.9592L159.73 59.2292L159.46 59.1892C159.28 59.1592 158.93 59.1792 158.56 59.1892C157.53 59.2392 156.84 59.2392 156.6 58.8892L156.57 58.8492V58.7992C156.42 58.0292 156.29 57.2592 156.16 56.4792C155.45 52.3392 154.72 48.0492 153.24 44.0492L152.97 43.3292L153.57 43.7992L153.58 43.8192ZM151.41 43.9092L151.62 43.3592L151.82 43.9092C153.33 48.0792 154.37 52.7192 155.18 58.9492L155.21 59.1992H138.13L138.11 59.0092C137.65 55.1692 136.76 51.0392 135.31 46.0092L135.16 45.4992L135.62 45.7592C138.82 47.5592 144.17 48.7592 147.79 47.4292C149.56 46.7792 150.78 45.5992 151.41 43.9192V43.9092ZM132.64 6.05917C132.95 5.97917 133.21 6.12917 133.42 6.24917C133.7 6.40917 133.85 6.48917 134.1 6.32917C134.28 6.21917 134.38 5.67917 134.47 5.24917C134.55 4.83917 134.63 4.41917 134.79 4.13917C136.9 0.329175 145.61 1.55917 148.7 2.89917C149.51 3.24917 150.22 3.76917 150.9 4.27917C152.17 5.21917 153.38 6.09917 155.15 5.95917L155.48 5.92917L155.37 6.23917C154.88 7.66917 154.09 8.65917 153.01 9.16917C150.66 10.2892 147.31 9.01917 144.36 7.90917C143 7.39917 141.72 6.91917 140.65 6.69917C138.61 6.28917 137.14 6.22917 136.5 6.51917C136.14 6.68917 134.61 8.75917 134.3 9.32917C133.32 11.1092 133.22 12.7992 133.12 14.5792C133.04 15.9392 132.96 17.3492 132.46 18.8292L132.37 19.0992L130.57 17.8692V17.7592C130.54 17.2992 130.48 16.6792 130.4 15.9692C130.03 12.5792 129.42 6.89917 132.63 6.02917L132.64 6.05917ZM133.63 28.4392C133.5 27.5892 133.29 26.3092 133.09 26.0992C132.96 25.9692 132.59 25.9892 132.19 26.0092C131.38 26.0592 130.26 26.1192 129.52 25.0692C128.93 24.2392 128.2 21.4292 128.73 20.1292C128.93 19.6292 129.27 19.4792 129.52 19.4292C131.14 19.1492 131.5 20.2692 131.74 21.0092C131.83 21.2992 131.92 21.5692 132.05 21.6692C132.27 21.8492 132.47 21.8992 132.67 21.8292C133.53 21.4992 134.16 18.9892 134.38 17.7092C134.53 16.7992 134.57 15.8992 134.6 15.0292C134.67 13.2092 134.73 11.4892 135.8 9.69917C137.12 7.48917 138.18 7.73917 140.11 8.19917C140.29 8.23917 140.48 8.28917 140.67 8.32917C141.93 8.61917 143.25 9.12917 144.52 9.62917C147.71 10.8692 151.01 12.1592 154.21 10.3392L154.49 10.1792L154.53 10.4992C154.71 11.9792 154.52 13.4592 154.33 14.8992C154.23 15.7192 154.12 16.5592 154.09 17.3692C154.05 18.4592 154.05 19.6292 154.06 20.8592C154.1 26.3092 154.13 32.4892 149.8 35.8892C148.32 37.0492 146.49 37.6392 144.54 37.6392C143.5 37.6392 142.43 37.4692 141.36 37.1292C137.84 36.0192 134.94 33.2492 133.96 30.0892C133.85 29.7292 133.75 29.0992 133.64 28.4292L133.63 28.4392ZM133.89 40.0892C134.17 39.4592 134.51 38.6792 134.59 38.3392C134.81 37.3392 134.9 36.2492 134.86 35.0892L134.84 34.5192L135.23 34.9392C139.07 39.0092 144.65 40.1892 149.46 37.9392L149.79 37.7892L149.77 38.1592C149.72 38.9092 149.83 39.7292 149.94 40.5092C150.22 42.5692 150.5 44.6992 147.97 45.8792C146.86 46.3992 145.54 46.6292 144.15 46.6292C141 46.6292 137.51 45.4492 135.4 43.8292C135.02 43.5392 133.5 42.0692 133.39 41.4892C133.36 41.3492 133.43 41.1592 133.9 40.0992L133.89 40.0892ZM131.79 42.0492L132.03 41.9592L132.12 42.1292C134.79 47.1092 135.76 52.8092 136.7 58.3192L136.85 59.1892H132.94L132.92 58.9892C132.47 54.1992 131.59 50.1792 130.23 46.6692C130.13 46.4092 129.87 45.9392 129.61 45.4692C129.15 44.6292 128.86 44.1092 128.84 43.8492C128.8 43.4792 129.29 43.0292 131.79 42.0392V42.0492ZM114.61 71.5392L114.47 70.7392C113.29 64.1992 111.52 54.3192 116.57 49.1892C118.64 47.0892 121.55 46.0592 124.37 45.0792C125.33 44.7392 126.23 44.4292 127.11 44.0692L127.28 43.9992L127.38 44.1492C129.15 46.9892 130.37 50.6792 131.12 55.4292C131.55 58.1892 131.63 60.0692 131.4 62.5892C131.28 63.8892 131.05 65.2092 130.83 66.4892C130.64 67.5992 130.44 68.7492 130.32 69.8692L130.2 70.9292L125.9 56.5992C125.71 56.5692 125.4 56.5592 125.28 56.5892C124.95 57.4492 127.19 65.8692 127.72 67.3892L127.84 67.7492L127.47 67.6792C123.19 66.8392 118.97 68.0692 114.9 71.3292L114.62 71.5592L114.61 71.5392ZM121 87.8092C118.49 85.5692 117.21 80.3392 116.18 76.1292C115.93 75.0892 115.69 74.1092 115.46 73.3092L115.43 73.1992L115.5 73.1092C117.83 70.1192 121.98 68.5292 126.35 68.9692C127.1 69.0492 127.84 69.1892 128.22 69.7192C128.82 70.5592 129.27 72.4892 129.65 74.1892C129.88 75.1792 130.09 76.1192 130.31 76.7092L130.42 76.9992H126.54C126.27 76.9992 126.19 77.3592 126.18 77.4692C126.12 77.8392 126.24 78.2292 126.42 78.2892C126.9 78.4492 128.13 78.3892 129.22 78.3392C129.95 78.3092 130.64 78.2692 131.1 78.2992C134.29 78.5092 138.8 80.3992 142.1 81.7792C142.39 81.8992 142.67 82.0192 142.93 82.1292C145.32 83.1292 147.7 84.2692 150.01 85.3792C150.47 85.5992 150.92 85.8192 151.38 86.0392L151.86 86.2692L151.36 86.4392C146.56 88.0892 142.52 89.0792 138.65 89.5692C137.1 89.7692 134.44 89.9792 131.6 89.9792C127.44 89.9792 122.91 89.5092 121 87.7992V87.8092ZM120.36 131.959L120.15 131.939V131.729L123.21 90.4292L123.45 90.4792C135.01 92.9292 146.06 89.9792 153.29 87.0792L153.36 87.0492L153.44 87.0792C153.83 87.2092 154.22 87.3492 154.61 87.4792C157.43 88.4592 160.35 89.4792 163.4 89.6092H163.6V89.8192L165.33 132.129L165.15 132.169C160.05 133.139 154.78 133.439 149.69 133.719C148.57 133.779 147.45 133.849 146.33 133.919L146.07 133.939L146.11 133.679L148.49 116.159V116.129C148.78 115.579 148.49 114.779 148.06 114.529C147.84 114.399 147.65 114.459 147.46 114.719C147.25 115.019 147.01 117.729 146.88 119.189C146.82 119.889 146.76 120.499 146.72 120.799C146.19 124.679 145.58 128.789 144.78 133.739L144.75 133.929H144.56C143.99 133.919 143.42 133.899 142.85 133.899C139.48 133.839 136 133.779 132.58 133.519C130.04 133.329 127.47 132.959 124.99 132.619C123.47 132.409 121.9 132.189 120.35 132.009L120.36 131.959ZM101.55 176.299H101.72L103.38 182.369H103.09C102.16 182.329 101.26 182.329 100.44 182.669L98.8899 184.569L98.7899 184.149C98.6899 183.769 98.4799 183.149 98.2299 182.429C97.5899 180.599 96.7899 178.319 97.0899 177.439C97.4099 176.489 101.52 176.309 101.56 176.309L101.55 176.299ZM100.33 175.149L97.0899 175.649L97.0399 175.459C96.1299 171.559 95.0899 167.609 94.0999 163.799C93.4299 161.249 92.7399 158.609 92.0899 156.009C92.0299 155.769 91.8999 155.259 91.7299 154.619C90.5799 150.209 89.9199 147.589 89.9799 147.239C90.0099 147.059 90.1399 146.889 90.3799 146.749C91.0299 146.359 92.4999 146.169 92.9899 146.339L93.0999 146.379L100.33 175.169V175.149ZM76.9499 87.1192V86.9092L76.9999 86.8392C77.1199 86.7092 77.2799 86.6592 77.4499 86.6892C78.3899 86.8592 79.7599 89.9792 79.7699 90.0092C80.5999 91.9092 80.9799 93.8292 81.3899 95.8592L81.5199 96.5092L77.8599 96.9992L77.8099 96.8092C77.1599 94.1392 76.4099 92.1192 75.4599 90.4492L75.3299 90.2192L75.5899 90.1392C77.0799 89.6692 77.0299 88.5992 76.9599 87.1092L76.9499 87.1192ZM73.0299 75.8092C71.5799 74.9092 69.4799 74.0392 67.7599 75.0192L67.2999 75.2792L67.4499 74.7692C68.4699 71.2292 68.8999 67.3092 68.7399 63.1092V62.8792H95.7499V63.0892C95.8399 65.9992 96.1099 68.9492 96.3799 71.7992C96.5399 73.5292 96.7099 75.3292 96.8299 77.0892C98.4099 99.8992 98.9899 123.939 98.5499 148.559C98.5299 149.749 98.5499 150.959 98.5699 152.139C98.6099 154.799 98.6499 157.559 98.2399 160.229L98.0799 161.259L94.2799 146.579V146.539C94.4699 144.559 93.8199 142.249 93.2499 140.209C93.1599 139.889 93.0699 139.569 92.9899 139.269C92.4299 137.209 91.8399 135.069 91.2699 133.009C88.7699 123.939 86.1799 114.559 84.4499 105.469C84.1899 104.089 83.9599 102.649 83.7399 101.259C83.0699 97.0392 82.3799 92.6792 80.6199 88.7492C80.5199 88.5192 80.2099 88.0292 79.9099 87.5392C79.2899 86.5392 78.9999 86.0492 78.9799 85.8192C78.9599 85.6392 79.0499 85.4292 79.1399 85.1792C79.2299 84.9492 79.3299 84.6892 79.3399 84.4792C79.4699 82.1092 76.4099 77.8992 73.0399 75.8092H73.0299ZM92.9899 144.999H92.7099C91.7199 144.949 90.6999 145.169 89.6799 145.619L89.6199 145.649H89.5499C88.9199 145.509 88.4099 141.359 88.3999 141.319V141.129L92.0199 140.389L92.9899 144.999ZM81.8599 97.6192L82.8299 102.199H82.5699C82.3099 102.199 82.0499 102.199 81.7999 102.199C80.8699 102.179 79.9999 102.159 79.2199 102.609L78.9499 102.769L78.2199 98.1092L81.8699 97.6192H81.8599ZM79.7899 104.009C79.8899 103.429 80.9699 103.449 82.1599 103.519C82.3199 103.519 82.4499 103.539 82.5299 103.539H82.6999L82.7399 103.699L91.4699 139.309L88.0199 139.799L79.7799 104.049V104.009H79.7899ZM81.2899 119.689C81.2899 119.619 81.2899 119.509 81.3799 119.419C81.4899 119.309 81.6299 119.329 81.9399 119.359L82.1499 119.379V119.589C82.1199 119.969 82.1499 120.299 82.2299 120.619C83.5499 125.959 84.8499 131.389 86.1099 136.649C89.2099 149.569 92.4099 162.939 96.0899 175.989V176.059C96.0699 176.449 95.9899 176.769 95.8999 177.079C95.7999 177.469 95.6999 177.839 95.7399 178.319C95.7799 178.859 96.0199 179.559 96.2599 180.239C96.5099 180.959 96.7599 181.699 96.7899 182.279C96.8099 182.689 96.6299 182.839 96.3199 182.949H96.2699L83.8699 184.329L82.3399 155.749L80.2199 125.089V125.049C80.4699 124.119 80.6399 123.149 80.8099 122.199C80.9499 121.419 81.0899 120.619 81.2699 119.839C81.2899 119.769 81.2899 119.729 81.2799 119.679L81.2899 119.689ZM100.86 113.809C100.61 114.819 100.32 115.419 99.9599 115.639L99.6299 115.839V106.569L100.81 109.949C101.28 111.459 101.18 112.509 100.86 113.809ZM106.74 88.8492C107.36 94.9592 107.3 100.159 107.23 106.189C107.23 106.849 107.21 107.519 107.21 108.189C107.18 111.289 107.43 112.759 107.82 114.989C107.94 115.669 108.07 116.429 108.21 117.329C108.87 121.539 107.96 128.759 102.71 130.219L102.4 130.299L102.43 129.989C102.53 128.939 103.22 128.229 103.87 127.529C104.36 127.019 104.82 126.529 105.04 125.929C105.41 124.909 105.79 121.439 105.1 119.969C104.96 119.659 104.78 119.469 104.57 119.399C104.41 119.349 104.13 119.329 104.06 119.359C103.91 119.519 103.99 120.679 104.06 121.529C104.16 123.029 104.28 124.579 103.78 125.169L103.64 125.329L103.48 125.199C103.19 124.969 103 124.709 102.86 124.369C102.21 122.779 101.24 118.679 101.36 117.119C101.42 116.379 101.69 115.629 101.99 114.829C102.32 113.939 102.66 113.009 102.65 112.129C102.64 110.709 101.93 108.239 101.25 105.849C100.78 104.199 100.33 102.639 100.12 101.449C99.4299 97.6392 98.6599 92.8592 98.8099 89.7492C98.8699 88.4392 99.1099 86.9792 99.3499 85.5592C99.5399 84.4092 99.7299 83.2192 99.8299 82.1192C99.9799 80.4292 100.06 78.5492 100.06 76.3892V76.2092L105.46 75.2492V75.5192C105.31 78.5892 105.74 81.6692 106.17 84.6592C106.37 86.0392 106.57 87.4692 106.71 88.8792L106.74 88.8492ZM95.1799 49.2192C99.8299 51.1492 101.72 54.4192 103.14 58.7392C103.43 59.6092 104.38 63.2792 105.14 66.5392C106.71 73.2592 106.42 73.5392 106.27 73.6892L106.21 73.7492H106.13C104.04 73.8792 101.95 74.4292 100.56 74.8292L100.31 74.8992L100.29 74.6292C100.16 72.8392 100.24 70.9192 100.32 69.0592C100.41 66.9492 100.5 64.7692 100.28 62.7992C100.18 61.9092 99.8199 61.4192 99.5199 61.4192C99.3099 61.4192 99.0499 61.7092 98.9699 62.3592C98.6999 64.4292 98.8199 66.8792 98.9499 69.2392C99.0599 71.4092 99.1799 73.6492 98.9899 75.6192L98.5499 79.6292H98.1199L97.0399 62.7892C96.8099 61.3592 96.6499 59.8692 96.4899 58.4292C96.1599 55.4492 95.8199 52.3692 94.8899 49.4792L94.7499 49.0292L95.1799 49.2092V49.2192ZM89.9999 47.0492C90.2699 47.1792 90.5899 47.2892 90.9199 47.4192C91.9199 47.7892 93.0599 48.1992 93.4499 49.1192C94.0799 50.5992 94.5299 53.5592 94.7899 55.3292L94.8299 55.6092C94.9799 56.5992 95.0799 57.6092 95.1699 58.5992C95.2599 59.5692 95.3599 60.5792 95.5099 61.5492L95.5499 61.7992H92.5199L92.4899 61.6092C92.3499 60.6692 92.2299 59.6992 92.1099 58.7692C91.6099 54.9192 91.0899 50.9392 89.6999 47.3292L89.5099 46.8192L89.9999 47.0492ZM70.1199 29.4092C69.5899 29.3792 68.9799 29.3392 68.5799 29.1492C66.7299 28.2492 66.5299 25.0492 67.2199 23.3292C67.6299 22.2892 68.3199 21.8392 69.0899 22.0892C69.3799 22.1792 69.5399 22.4992 69.7399 22.8792C69.9299 23.2492 70.1599 23.6792 70.4699 23.7692C70.6499 23.8192 70.8599 23.7692 71.1199 23.6192C71.9999 23.0992 72.5299 20.8692 72.9599 19.0892C73.1399 18.3292 73.3199 17.5992 73.4999 17.0992C73.5499 16.9492 73.6599 16.7392 73.7899 16.4692C74.1399 15.7492 74.7899 14.4192 74.4799 13.9592C74.3799 13.8192 74.1699 13.7692 73.8499 13.7892C72.7599 13.8892 71.5999 18.2492 71.1099 20.1092C70.9799 20.6092 70.8699 21.0092 70.7899 21.2492L70.6199 21.7792L70.3899 21.2692C70.2499 20.9592 69.5999 20.8592 69.1199 20.7892C68.7099 20.7292 68.4499 20.6892 68.3299 20.5192C68.0799 20.1592 67.6499 17.4092 67.6499 16.9392C67.6099 11.5992 72.1499 7.94917 76.6599 7.11917C80.5099 6.40917 85.6999 7.46917 87.7399 10.8492L87.9399 11.1792H87.5299C85.9999 11.1792 84.4999 11.6192 83.0499 12.0392C81.3399 12.5392 79.5799 13.0592 77.7199 12.8892C77.4899 12.8692 77.1899 12.7792 76.8399 12.6792C75.8599 12.3992 74.9699 12.1892 74.8199 12.6992C74.7199 13.0492 74.7599 13.3292 74.9599 13.5692C75.7599 14.5292 78.7199 14.5492 80.0299 14.4092C80.7499 14.3292 81.9299 13.9592 83.1799 13.5692C85.5999 12.8192 88.0899 12.0392 89.1499 12.6092C90.2999 13.2392 90.8199 18.0592 90.7799 19.2092V19.4892L90.4999 19.4092C89.4899 19.1192 88.1599 18.8092 86.8299 18.9992C86.3499 19.0692 86.0099 19.1592 85.8599 19.3692C85.7499 19.5292 85.7299 19.7692 85.7999 20.1292C85.8299 20.2892 85.8899 20.3992 85.9699 20.4492C86.1599 20.5692 86.5399 20.4792 86.8999 20.3892C87.1499 20.3292 87.4099 20.2592 87.6399 20.2592C88.1299 20.2592 88.5999 20.3992 89.0599 20.5292C89.6499 20.6992 90.2099 20.8592 90.7099 20.7192L90.9899 20.6392V20.9392C90.9699 21.8492 90.9799 22.7692 90.9899 23.7492C91.0199 27.7592 91.0499 31.8992 89.4999 35.5092C88.1399 38.6692 85.3599 40.4892 81.9599 40.4892C81.6599 40.4892 81.3499 40.4692 81.0299 40.4492C77.0599 40.0792 72.4699 37.1692 71.3799 32.3292C71.3199 32.0592 71.2599 31.4892 71.1999 30.8892C71.1499 30.3792 71.0799 29.6792 71.0299 29.5192C70.9199 29.4392 70.4299 29.4092 70.0999 29.3892L70.1199 29.4092ZM72.3999 37.9192V37.7392L72.5599 37.6892C72.6099 37.6792 72.7699 37.6392 72.8999 37.7192C73.0299 37.7992 73.0399 37.9392 73.0599 38.0292C73.0599 38.0492 73.0599 38.0692 73.0599 38.0792L73.4099 38.3892C74.7499 39.5792 75.9099 40.6192 77.6899 41.2192C79.6699 41.8892 81.8199 41.9992 84.6699 41.5892L84.9199 41.5492V41.8092C84.8899 42.3992 85.0699 43.0892 85.2599 43.8192C85.5899 45.0992 85.9399 46.4192 85.1899 47.3492C84.3399 48.4192 83.0699 48.9992 81.4299 49.0692C81.3199 49.0692 81.2099 49.0692 81.0899 49.0692C77.9699 49.0692 74.3299 47.2692 72.6699 45.5192C72.5099 45.3592 71.1699 43.5892 71.1699 43.1992C71.1699 43.1092 71.2199 42.9492 71.5399 42.0592C71.7499 41.4692 72.0099 40.7392 72.0799 40.4392C72.2899 39.5392 72.4599 38.7192 72.3999 37.8992V37.9192ZM68.9599 45.0292C69.0299 44.8992 69.1599 44.8692 69.2399 44.8492C69.2799 44.8492 69.3099 44.8292 69.3399 44.8192C70.2799 44.3992 70.5999 44.9892 70.8799 45.5092C70.9899 45.7192 71.1099 45.9292 71.2699 46.1192C73.6899 48.8892 78.9499 51.2392 82.9199 50.3292C85.0999 49.8292 86.5799 48.3692 87.2099 46.1092L87.3199 45.7092L87.5799 46.0392C88.6399 47.3492 89.0799 49.3092 89.4599 51.0392C89.4999 51.2192 89.5399 51.3892 89.5699 51.5592C90.0999 53.8992 90.4399 56.3092 90.7699 58.6392C90.9099 59.5992 91.0399 60.5992 91.1999 61.5692L91.2399 61.8192H73.9299L73.9099 61.6192C73.5799 58.1292 72.7499 53.0092 70.7199 48.5092C70.4999 48.0292 70.1599 47.4992 69.8299 46.9892C69.4699 46.4292 69.1399 45.9092 68.9699 45.4692C68.9199 45.3392 68.8699 45.1792 68.9499 45.0492L68.9599 45.0292ZM67.6199 45.6992L67.7199 45.8492C70.9499 50.5692 71.8699 56.6592 72.6099 61.5492L72.6499 61.7992H68.7399L68.7199 61.5992C68.2999 56.3192 66.7399 51.4292 64.2199 47.4692L64.0799 47.2492L67.6099 45.6992H67.6199ZM45.6399 68.7492C46.6799 67.0392 47.6299 64.9292 48.6399 62.6892C50.9299 57.6292 53.5199 51.8992 57.8199 49.5492C57.8599 49.5292 62.3499 47.3792 62.9699 47.7492C63.4199 48.0192 65.3499 52.5492 65.4199 52.7592C67.3099 57.8092 67.9199 63.3792 67.2099 69.3092C67.0599 70.5792 66.3599 74.6392 65.5499 75.8092C65.1899 76.3292 62.2399 78.5992 61.6899 78.8392C61.1599 79.0692 60.7199 79.2092 60.1599 79.2092C59.9999 79.2092 59.8199 79.1992 59.6299 79.1692L59.3599 79.1392L59.4499 78.8892C59.8099 77.8892 59.6999 76.8592 59.5799 75.7592C59.5099 75.0792 59.4299 74.3692 59.4799 73.6692V73.6092C59.8799 72.5292 60.5199 71.3192 61.1999 70.0292C62.0499 68.4292 62.9199 66.7792 63.2299 65.4292C63.3099 65.0992 63.2499 64.8492 63.0699 64.7492C62.8799 64.6592 62.5399 64.7292 62.2199 65.1092C61.7899 65.6292 60.8099 67.7892 59.9499 69.6992C58.4499 73.0092 58.1199 73.6492 57.8299 73.7192L57.7699 73.7392L45.4999 68.9692L45.6299 68.7492H45.6399ZM58.3699 79.5492L58.0299 79.3692C57.5799 79.1392 57.0899 79.1492 56.5599 79.1692C56.3699 79.1692 56.1699 79.1792 55.9699 79.1692H55.8899L55.8299 79.1092C55.7199 79.0092 55.7199 78.8592 55.8399 78.4392C55.9599 78.0092 56.9299 75.1392 57.6899 74.9792C57.8399 74.9492 57.9799 74.9992 58.0799 75.1292L58.1299 75.1792L58.3699 79.5392V79.5492ZM43.3299 87.9592C41.2199 86.7992 41.5199 84.2192 41.7399 82.3292C42.1399 78.8792 43.6699 75.5792 45.1399 72.3792C45.3799 71.8592 45.6199 71.3392 45.8499 70.8292L45.9299 70.6492L55.6799 74.2192L55.7199 74.2692C55.7799 74.3592 55.7699 74.4592 55.7599 74.5492C55.6899 74.9092 55.2699 75.9192 54.8999 76.7492C54.1299 78.4892 53.9899 78.5692 53.9299 78.5992C53.6899 78.7492 52.7999 78.7092 50.6799 78.5992C49.2599 78.5292 47.6499 78.4392 47.0599 78.5292C46.6399 78.5992 46.3399 78.7592 46.2599 78.9792C46.1999 79.1292 46.2399 79.3092 46.3699 79.5092L58.3099 80.6892C60.6499 81.2492 62.5199 79.8992 64.5099 78.4792C66.3099 77.1892 68.1699 75.8492 70.3799 76.1492C73.0099 76.4992 77.9599 81.3292 78.0499 84.2692C78.0599 84.7192 77.8499 85.3092 77.4299 85.5192C77.1699 85.6492 76.8899 85.5992 76.6299 85.3992C76.5499 85.3292 76.5199 85.2492 76.3999 84.6392C76.3199 84.2792 76.2299 83.8392 76.1599 83.6592C75.6299 82.3492 73.5599 79.3692 72.3999 79.3692C72.3799 79.3692 72.3599 79.3692 72.3499 79.3692C72.1299 79.3892 71.9799 79.4392 71.9499 79.5192C71.8099 79.8992 72.9399 81.0092 73.3599 81.4292C73.5599 81.6292 73.7099 81.7792 73.7799 81.8692C74.2399 82.4692 74.7499 83.3692 74.9899 83.9992C75.2999 84.7892 75.9399 87.4192 75.8799 88.2092C75.8599 88.5592 75.6399 88.8492 75.3199 88.9392C75.0199 89.0192 74.7099 88.8992 74.5199 88.6292C74.4499 88.5292 74.3799 88.2492 74.2199 87.5492C74.1099 87.0992 73.9899 86.5892 73.9099 86.3492C73.3599 84.8492 72.1199 82.2692 71.1499 81.7292C70.6599 81.4492 70.3799 81.4392 70.2999 81.5092C70.2199 81.5792 70.1599 81.8592 70.4199 82.4992C70.4999 82.6892 70.7099 82.9492 70.9399 83.2292C71.1799 83.5192 71.4299 83.8292 71.5799 84.1292C72.0899 85.0992 73.5299 88.1192 73.5099 89.2892C73.5099 89.5692 73.3499 89.8092 73.0899 89.9492C72.7799 90.1192 72.3899 90.1292 72.1299 89.9692C72.0199 89.8992 71.9599 89.7792 71.3999 88.5192C71.1499 87.9592 70.8899 87.3692 70.7799 87.1792C69.9999 85.8692 68.1399 83.2992 67.3599 83.2992C67.2499 83.2992 67.0699 83.3192 67.0199 83.4192C66.8199 83.8692 68.1199 85.4192 68.5499 85.9392C68.7199 86.1492 68.8499 86.2992 68.8999 86.3792C68.9699 86.4892 70.7199 89.1592 70.3699 89.7292C70.1799 90.0292 69.9399 90.1892 69.6399 90.2092H69.5799C68.5899 90.2092 67.3099 88.6492 66.1799 87.2792C65.6499 86.6292 65.1499 86.0292 64.8899 85.8692C64.4099 85.5892 64.2499 85.7092 63.9399 85.9192C63.7599 86.0492 63.5499 86.1992 63.2599 86.2792C62.5699 86.4692 61.9399 86.4792 61.3299 86.4892C60.8999 86.4892 60.4899 86.5092 60.0699 86.5792C59.0799 86.7492 57.8599 87.0392 56.5699 87.3392C52.0999 88.3892 46.5399 89.6992 43.3599 87.9492L43.3299 87.9592ZM61.0699 94.2692C60.9099 92.9592 60.7199 91.3292 61.0699 90.5892C61.2299 90.2592 64.6299 88.2292 65.1099 88.1092C65.1499 88.0992 65.2699 88.0692 65.3699 88.1392L65.4099 88.1692L65.4299 88.2092C66.2299 89.6292 67.4399 90.7792 68.8199 91.4692L69.0499 91.5892L68.8899 91.7992C68.6999 92.0592 68.5099 92.3192 68.3299 92.5792C67.1799 94.1892 66.1799 95.5792 64.0799 96.2792C63.7899 96.3792 62.2299 96.7792 61.6099 96.7792C61.5399 96.7792 61.4899 96.7792 61.4499 96.7592C61.2899 96.7192 61.1799 96.6392 61.0999 96.5192C60.9599 96.2892 61.0399 95.9892 61.0999 95.7292C61.1299 95.5992 61.1699 95.4592 61.1599 95.3792C61.1399 95.0992 61.0999 94.7192 61.0499 94.2692H61.0699ZM55.6299 132.219C55.5899 132.129 55.5599 132.049 55.5299 131.979C53.0499 126.549 51.2799 120.829 50.7999 116.669C49.7199 107.379 53.0499 97.6392 59.2899 91.8292L59.6099 91.5292L59.6499 91.9692C60.0699 96.6092 59.4399 101.299 58.8399 105.839C58.5799 107.749 58.3199 109.729 58.1399 111.669C57.5299 118.239 57.0199 124.599 56.6299 130.559C56.5999 130.989 56.6099 131.429 56.6299 131.859C56.6399 132.249 56.6499 132.649 56.6299 133.049V133.339L56.3399 133.239C55.9899 133.109 55.7899 132.609 55.6299 132.209V132.219ZM57.3799 144.769L57.6999 145.789C57.8699 146.349 58.0699 146.959 58.2799 147.599C59.1499 150.249 60.2399 153.549 60.2599 156.449C60.2899 159.889 58.8399 162.109 55.8399 163.219L55.5199 163.339L57.3899 144.769H57.3799ZM55.3299 167.989L55.4799 167.949C59.3199 167.009 62.1499 164.769 63.4399 161.629C66.4699 154.259 62.4799 146.169 58.9599 139.029C58.4499 137.989 57.9599 137.009 57.5099 136.049L57.4799 135.989V135.929C57.8299 132.099 58.1499 128.199 58.4599 124.429C59.1799 115.769 59.9199 106.819 60.9399 98.0392L60.9599 97.8292L61.1699 97.8492C65.6899 98.2092 69.1999 94.5792 70.6799 90.8192L70.7499 90.6492L70.9299 90.6892C71.2099 90.7492 71.4699 90.8692 71.7099 90.9892C72.0399 91.1492 72.3499 91.2992 72.7199 91.2992C73.1299 91.2992 73.5299 90.9892 73.7399 90.8292C73.8699 90.7292 73.9299 90.6892 74.0199 90.6892C74.1999 90.6892 74.4699 90.6992 75.3999 93.1692C75.8499 94.3592 76.2799 95.6792 76.3799 96.0492C76.5099 96.5092 76.7299 97.7392 76.9899 99.1592C77.3099 100.899 77.7899 103.509 77.9799 103.919H78.0699C78.2299 103.919 78.5099 103.919 78.6299 104.199C78.9799 105.029 81.0699 114.799 81.0199 115.759V115.799C76.1899 135.069 72.2299 156.549 68.5399 183.399V183.459L68.2199 183.859H68.1099C65.1599 183.849 62.1799 183.659 59.2899 183.479C57.6199 183.379 55.8999 183.269 54.1999 183.199H53.9799L55.2999 167.959L55.3299 167.989ZM50.7899 167.779L54.0499 168.029L54.0299 168.249C53.8299 170.329 53.6599 172.459 53.4899 174.519C53.3199 176.599 53.1499 178.749 52.9499 180.849L52.9099 181.249L52.5999 180.999C52.4599 180.889 51.7699 180.879 51.4699 180.869C51.0099 180.869 50.7999 180.859 50.7999 180.609V167.779H50.7899ZM52.0099 182.269C52.3599 182.509 52.3499 183.159 52.3099 184.109C52.2899 184.439 52.2799 184.759 52.3099 184.929L52.3499 185.179L23.4399 185.399L23.5899 185.089C23.8399 184.579 23.8099 184.009 23.7899 183.409C23.7799 183.129 23.7699 182.849 23.7899 182.569V182.369H23.9999C27.6899 182.299 31.4399 182.339 35.0799 182.379C38.9999 182.419 43.0499 182.469 47.0299 182.379C47.2799 182.379 47.7199 182.329 48.2399 182.269C50.0899 182.069 51.5499 181.949 52.0299 182.279L52.0099 182.269ZM47.4999 157.789C47.2299 156.259 43.2799 154.319 41.6299 154.359C39.5499 154.409 38.3699 156.019 37.9899 157.379C37.5299 159.039 38.0199 160.629 39.2399 161.419C39.7899 161.779 40.6599 161.909 41.3599 162.019C41.8899 162.099 42.2699 162.159 42.4799 162.299C42.6299 162.399 42.7099 162.599 42.7999 162.829C42.9099 163.129 43.0399 163.469 43.3099 163.579C43.5199 163.669 43.7599 163.679 44.0199 163.689C44.3099 163.699 44.6399 163.719 44.9799 163.849C45.5399 164.069 46.1799 164.589 46.8599 165.139C47.6999 165.819 48.5699 166.519 49.3299 166.719L49.4899 166.759V180.829L23.7899 181.269L23.7699 181.069C23.5199 177.749 22.2099 174.819 20.2599 173.229C18.8799 172.109 17.2399 171.669 15.3699 171.929L15.1299 171.959V152.809H49.4899V161.179L49.1899 161.039C47.6299 160.329 47.5599 159.859 47.5799 158.949C47.5799 158.629 47.5799 158.259 47.5099 157.779L47.4999 157.789ZM45.1299 157.719L45.0999 157.769L45.0499 157.789C43.9899 158.279 42.7399 159.599 42.5799 160.879L42.5499 161.139L42.2999 161.069C42.0499 160.989 41.7999 160.939 41.5499 160.879C40.4499 160.619 39.3199 160.359 39.1699 158.769C39.0399 157.319 39.5699 156.589 40.0399 156.239C40.8199 155.649 42.0399 155.609 43.3799 156.129C43.4499 156.159 45.0099 156.769 45.1799 157.359C45.2199 157.489 45.1999 157.619 45.1199 157.729L45.1299 157.719ZM24.8699 136.019C25.5999 133.969 26.6099 131.919 28.9799 130.889C31.0299 129.999 38.0099 129.959 40.3299 130.229C42.9199 130.519 44.2499 132.569 44.2999 136.309V136.569L44.0399 136.519C43.9099 136.499 43.5399 136.519 43.2399 136.519C42.5099 136.559 42.3199 136.549 42.1999 136.439C42.1199 136.369 42.1099 136.289 42.0199 135.719C41.9599 135.349 41.8799 134.849 41.8099 134.639C41.2299 133.019 40.3399 132.299 38.7699 132.159C37.4499 132.039 32.2899 131.989 31.3799 132.259C30.0299 132.659 29.2099 134.779 29.1699 136.089V136.299H24.7599L24.8599 136.009L24.8699 136.019ZM40.8399 136.329V136.389L40.7999 136.439C40.7499 136.509 40.6799 136.549 40.5999 136.549H40.5899C40.4399 136.549 40.3299 136.419 40.2399 136.319C40.2399 136.319 40.2399 136.319 40.2399 136.309H30.4399L30.4899 136.049C30.7699 134.599 30.9499 133.639 32.7199 133.469C33.8199 133.369 35.0699 133.499 36.2799 133.619C37.3899 133.739 38.5399 133.849 39.5699 133.789H39.6399C40.4599 134.029 40.9199 135.599 40.8599 136.319L40.8399 136.329ZM14.9199 139.849C15.1399 138.769 16.6699 137.769 17.5999 137.629C19.6499 137.309 22.1299 137.449 24.5299 137.579C26.6799 137.699 28.8999 137.819 30.7799 137.609H30.8199C31.9799 137.709 32.3899 138.669 32.7899 139.589C33.1399 140.389 33.4599 141.149 34.2499 141.389C35.1999 141.689 40.8199 141.679 42.0199 141.529C42.6299 141.459 43.7099 140.929 43.8499 140.439C44.0099 139.879 43.7399 139.479 43.4499 139.059C43.2699 138.799 43.0799 138.519 43.0099 138.209C42.9799 138.069 42.9099 137.779 43.1199 137.659C43.3099 137.549 43.5099 137.719 43.6299 137.829H46.7899C47.4099 137.829 49.4899 139.219 49.4899 139.889V146.949H14.8799L14.9099 146.699C15.0399 145.779 14.9599 144.599 14.8799 143.449C14.7999 142.169 14.7099 140.839 14.9099 139.839L14.9199 139.849ZM13.8299 151.509V148.249H50.9999V151.509H13.8299ZM17.1299 190.719C16.3899 191.279 15.5799 191.559 14.6999 191.559C14.2099 191.559 13.6999 191.469 13.1799 191.299C10.7299 190.489 9.62993 186.099 9.50993 184.219C9.27993 180.839 10.4899 174.289 14.4099 173.709C15.4499 173.559 16.4199 173.839 17.2699 174.559C19.3599 176.299 20.2599 180.189 20.3399 182.229C20.4499 185.089 19.3699 189.039 17.1499 190.719H17.1299ZM20.8199 191.909L20.9899 191.589C21.1999 191.199 21.4499 190.809 21.6799 190.429C22.3599 189.339 23.0699 188.209 23.1299 186.909V186.699L40.0099 186.679L40.0499 186.839C40.1099 187.049 40.1599 187.259 40.2199 187.469C40.5999 188.939 40.9599 190.319 41.8799 191.549L42.1399 191.899H20.8099L20.8199 191.909ZM47.1199 186.929C46.9899 190.059 45.6599 191.219 44.5599 191.249H44.5099C43.2699 191.249 41.8199 189.909 41.5099 186.939L41.4799 186.699H47.1299V186.929H47.1199ZM49.9299 191.259V191.039C49.9299 188.549 51.5699 187.809 53.1499 187.089C53.6199 186.879 54.1099 186.649 54.5599 186.389C55.0799 186.079 55.4799 185.719 55.9099 185.339C56.1899 185.089 56.4799 184.829 56.8099 184.589L56.8799 184.539H56.9699C58.7099 184.819 60.5099 184.869 62.2599 184.919C63.7599 184.959 65.2999 185.009 66.8099 185.189L66.9899 185.209L67.2199 191.269H49.9199L49.9299 191.259ZM82.5599 191.649L82.6199 191.909H68.1199L68.3399 191.569C68.6399 191.109 68.4699 189.019 68.3399 187.639C68.1899 185.879 68.1699 185.409 68.3599 185.229C68.4599 185.139 68.5799 185.149 68.7999 185.169C68.9999 185.179 69.3199 185.209 69.4699 185.129C69.8899 184.549 70.8299 176.999 71.2399 173.769C71.3899 172.539 71.5099 171.569 71.5799 171.169C71.8499 169.399 72.1199 167.599 72.3999 165.779C74.0499 154.799 75.9299 142.349 78.6799 131.799C78.6999 131.739 78.6999 131.679 78.7099 131.609C78.7399 131.359 78.7899 130.979 79.2799 130.879L79.5299 130.829V131.089C79.5499 131.529 79.5599 131.969 79.5699 132.409C79.6099 134.079 79.6499 135.809 79.7599 137.489C80.7399 153.389 81.6999 169.019 82.5899 183.949C82.6699 185.359 82.5899 186.049 82.4999 186.919C82.4499 187.369 82.3899 187.879 82.3499 188.569C82.2799 189.679 82.3499 190.689 82.5599 191.659V191.649ZM86.8799 191.029V191.299L86.6299 191.259C86.4499 191.229 86.0999 191.249 85.7299 191.259C84.6999 191.309 84.0099 191.309 83.7699 190.959C83.4499 190.499 83.6699 187.939 83.8999 186.759C84.0799 185.829 84.2499 185.609 84.3699 185.529C84.6999 185.309 85.7899 185.289 87.6999 185.249C89.0799 185.229 90.6299 185.199 91.3399 185.039L91.5599 184.969L91.6999 185.379C91.6299 185.409 91.5499 185.429 91.4599 185.449L88.6099 186.309C86.8599 187.029 86.7899 189.119 86.8599 191.029H86.8799ZM92.9299 191.079L92.8999 191.259H88.1799V191.049H88.3899H88.1699C88.0999 188.759 88.0499 187.249 90.8699 187.129C91.5799 187.099 92.1199 187.299 92.4899 187.719C93.0499 188.349 93.1899 189.449 92.9199 191.079H92.9299ZM125.14 190.509C125.04 191.159 124.76 191.259 124.6 191.259H94.2399V191.049C94.2199 190.739 94.2399 190.429 94.2399 190.119C94.2599 189.169 94.2899 188.269 93.8299 187.459L93.6199 187.079L94.0499 187.129C95.0199 187.249 96.1999 187.239 97.3299 187.229C98.5599 187.219 99.8299 187.199 100.85 187.359C101.07 187.389 101.39 187.549 101.75 187.719C102.28 187.979 103.09 188.379 103.39 188.179C103.5 188.109 103.56 187.929 103.56 187.659C103.56 186.909 102.36 186.499 101.49 186.209C100.82 185.979 100.41 185.839 100.36 185.539C100.33 185.369 100.69 184.139 100.85 183.979C101.13 183.689 101.68 183.659 102.12 183.649C102.2 183.649 102.27 183.649 102.33 183.639C104.23 183.509 109.42 183.419 110.96 183.989C111.95 184.359 112.81 185.579 113.56 186.649C114.14 187.479 114.74 188.339 115.16 188.379C115.44 188.409 115.66 188.299 115.78 188.089C115.92 187.849 115.88 187.519 115.69 187.249L115.43 186.879L115.88 186.899C116.71 186.939 117.58 186.909 118.42 186.889C119.34 186.859 120.29 186.829 121.19 186.889C121.77 186.929 123.21 187.059 123.73 187.219C125.02 187.619 125.31 189.569 125.17 190.489L125.14 190.509ZM119.94 182.979V182.779L122.55 133.679L140.51 135.239L133.3 184.759L119.94 182.979ZM133.52 191.909L133.56 191.659C133.73 190.679 133.8 189.649 133.78 188.319C133.78 188.039 133.72 187.749 133.66 187.469C133.51 186.759 133.35 185.959 134.32 185.449C135.29 179.419 136.15 173.249 136.97 167.289C137.61 162.649 138.28 157.849 139 153.139C139.26 151.449 139.49 149.609 139.74 147.669C140.26 143.579 140.79 139.359 141.63 135.979C141.86 135.039 142.64 135.129 143.33 135.209C143.67 135.249 144.02 135.289 144.34 135.229L144.58 135.189L148.07 191.919H133.53L133.52 191.909ZM162.96 134.139L162.1 182.759L148.72 184.769L145.66 135.219H145.89C152.7 135.039 157.89 134.639 162.72 133.909L162.97 133.869V134.129L162.96 134.139ZM179.54 174.459C179.3 174.949 179.08 175.449 178.85 175.949C177.92 177.969 176.95 180.049 175.63 181.899C175.59 181.949 172.17 186.699 169.75 186.699C169.61 186.699 169.46 186.679 169.33 186.649C168.87 186.529 165.89 185.019 165.48 184.809L165.35 184.739C164.26 184.179 163.56 183.759 163.44 183.359V183.289C163.49 180.229 163.51 177.119 163.53 174.109C163.55 171.429 163.57 168.669 163.61 165.949C163.65 163.189 163.74 160.359 163.83 157.619C163.93 154.719 164.02 151.719 164.06 148.809C164.08 147.209 164.03 145.529 163.98 143.739C163.89 140.789 163.81 137.739 164.06 135.099C164.2 133.649 164.99 133.519 165.62 133.419C166.16 133.329 166.55 133.269 166.66 132.499C166.87 130.959 166.64 128.689 166.44 126.699C166.34 125.669 166.24 124.689 166.2 123.849C166.02 119.759 165.87 115.599 165.73 111.569C165.51 105.249 165.28 98.7292 164.91 92.3492C164.89 91.9292 164.9 91.5092 164.91 91.0992C164.91 90.7592 164.92 90.4092 164.91 90.0592V89.7992L165.16 89.8392C165.34 89.8692 165.69 89.8492 166.06 89.8392C167.08 89.7892 167.77 89.7892 168.02 90.1392L168.06 90.1892V90.2592C168.07 90.7492 168.08 91.1992 168.08 91.6292C168.1 93.9592 168.12 95.4892 169.46 97.8392C171.01 100.539 173.45 102.859 175.81 105.109C176.55 105.819 177.26 106.489 177.94 107.169L178.02 107.249L178 107.359C176.1 118.769 175.39 130.549 174.89 141.579C175.05 142.009 175.79 142.089 176.44 142.149C177.01 142.209 177.5 142.269 177.75 142.519C178.13 142.899 178.13 144.019 178.09 145.559C178.08 146.009 178.07 146.389 178.09 146.629C178.64 154.619 179.02 162.739 179.38 170.599L179.56 174.439L179.54 174.489V174.459ZM185.02 169.139C185.02 169.839 185.02 169.989 184.92 170.089C184.86 170.159 184.78 170.199 184.14 170.429C183.63 170.619 182.93 170.879 182.66 171.049C182.33 171.259 182.03 171.559 181.74 171.849C181.51 172.079 181.27 172.319 181.02 172.519L180.69 172.769L179.14 142.569L192.83 143.469L187.51 163.729L187.28 163.639C187.28 163.639 187.18 163.599 187.13 163.579C186.9 163.469 186.77 163.419 186.59 163.509C186.12 163.749 185.23 166.999 185.03 168.199C185 168.379 185 168.769 185 169.119L185.02 169.139ZM189.66 170.499L189.59 170.539L186.05 169.929L186.08 169.719C186.34 167.949 186.78 166.349 187.38 164.979L187.45 164.809L190.93 165.679L190.98 165.749C191.05 165.849 191.11 166.029 190.93 166.909C190.74 167.799 190.07 170.259 189.65 170.509L189.66 170.499ZM192.04 173.279C191.98 173.059 191.71 172.729 191.47 172.439C191.15 172.049 190.87 171.709 190.85 171.409C190.82 170.859 191.15 169.999 191.53 169.009C191.94 167.929 192.41 166.729 192.41 165.879L192.36 165.439L192.78 165.359C192.82 165.509 192.83 165.669 192.84 165.829L193.23 169.199V169.229C193.01 170.929 193.01 172.689 193.22 174.949L193.35 176.319L192.05 173.279H192.04ZM193.4 191.119C193.33 191.209 193.22 191.259 193.11 191.259H189.55L189.8 190.909C190.77 189.579 191.54 187.899 192.15 185.769L192.24 185.459L192.49 185.669C193.12 186.179 193.27 187.409 193.37 188.309L193.4 188.559C193.4 188.609 193.42 188.689 193.43 188.779C193.61 189.999 193.67 190.819 193.4 191.129V191.119ZM205.96 191.659L206 191.909H194.38L194.52 191.599C195.02 190.519 194.73 189.209 194.44 187.949C194.28 187.209 194.12 186.519 194.13 185.889C194.13 185.649 194.22 185.449 194.31 185.219C194.41 184.979 194.51 184.729 194.52 184.419C194.63 180.249 194.51 175.989 194.38 171.869C194.24 167.219 194.1 162.419 194.29 157.689V157.639L198.4 143.259L199.23 144.139V144.209C199.52 145.859 199.8 147.499 200.07 149.149C201.04 154.859 202.03 160.769 202.89 166.609C203.21 168.779 203.45 171.069 203.69 173.279C204.02 176.389 204.36 179.609 204.93 182.579C205.07 183.299 205.56 184.319 205.85 184.929C206.02 185.289 206.07 185.389 206.08 185.469C206.1 185.639 206.04 185.899 205.93 186.299C205.84 186.619 205.74 186.989 205.73 187.249C205.67 188.889 205.73 190.339 205.95 191.669L205.96 191.659ZM217.21 187.719C217.92 187.889 219.63 188.779 220.24 189.789C220.44 190.119 220.51 190.449 220.43 190.749C220.38 190.969 220.27 191.109 220.11 191.179C220.05 191.209 219.98 191.219 219.92 191.219C219.73 191.219 219.56 191.119 219.45 191.059C219.45 191.059 219.44 191.059 219.43 191.049H207.02L207.04 190.809C207.1 190.129 207.06 189.359 207.03 188.609C206.99 187.769 206.94 186.899 207.05 186.129C207.05 186.119 207.27 185.259 207.56 185.179L207.62 185.159L207.68 185.179C208.18 185.339 210.49 185.179 212.34 185.059C215.34 184.859 215.89 184.849 216.07 185.039C216.2 185.169 216.19 186.079 216.07 186.209C215.96 186.319 215.78 186.349 214.47 186.489C213.46 186.599 211.37 186.819 211.15 187.079C211.05 187.229 211.08 187.539 211.2 187.799C211.32 188.049 211.52 188.209 211.72 188.229C212.08 188.259 212.78 188.089 213.46 187.919C214.07 187.769 214.69 187.609 215.15 187.589C215.85 187.549 216.47 187.559 217.22 187.739L217.21 187.719ZM216.57 183.649L206.43 184.099L200.53 143.489L214.35 142.849V143.059L216.57 183.649ZM215.87 130.189C216.05 133.689 216.23 137.319 216.52 140.819L216.54 141.019L216.34 141.049C211.6 141.809 206.5 142.189 201.16 142.189C200.39 142.189 199.61 142.189 198.83 142.169H198.55L208.13 106.999C208.91 104.999 210.13 103.259 211.76 101.819L211.82 101.769H211.9C212.16 101.769 212.42 101.769 213.37 106.289L213.41 106.499C215.06 114.199 215.47 122.329 215.87 130.189ZM220.72 98.8392C219.4 99.1092 218.31 99.0892 217.26 99.0692C215.65 99.0392 214.14 99.0192 212.11 100.099C210.67 100.879 209.12 102.509 207.98 104.469C207.91 104.579 207.85 104.809 207.79 105.019C207.68 105.409 207.61 105.629 207.43 105.679C207.15 105.759 206.75 105.739 206.47 105.519C206.3 105.379 206.21 105.179 206.22 104.949C206.26 104.069 206.83 102.799 207.39 101.569C207.83 100.589 208.29 99.5692 208.29 99.0792C208.29 98.9092 208.22 98.7792 208.09 98.7092C207.91 98.6092 207.63 98.6192 207.42 98.7392C206.97 99.0592 204.53 104.829 204.88 105.819L204.98 106.109H203.82V105.899C203.79 104.509 203.96 103.019 204.36 101.069C204.41 100.839 204.52 100.509 204.65 100.139C204.9 99.4292 205.35 98.1192 205.07 97.8392C204.99 97.7592 204.77 97.7692 204.47 97.8792C203.86 98.1092 202.89 101.719 202.74 102.989C202.73 103.119 202.74 103.309 202.74 103.519C202.76 104.079 202.79 104.659 202.45 104.859C202.27 104.969 202.05 104.939 201.78 104.769C201.31 104.479 201.43 102.099 201.44 102.079C201.61 99.6592 203.4 95.4192 205.69 94.5192C206.76 94.0992 207.37 94.1892 208.09 94.2992C208.4 94.3492 208.72 94.3892 209.12 94.3992C211.59 94.4592 217.18 92.1792 219.62 90.9392C219.69 90.9092 219.76 90.8692 219.84 90.8392C220.14 90.6992 220.51 90.5292 220.59 90.2992C220.62 90.2092 220.61 90.1092 220.56 89.9892C220.29 89.3992 219.66 89.5992 218.72 89.9592C218.34 90.1092 217.98 90.2492 217.68 90.2692H217.5L215.45 82.2892L215.67 82.2392C218.3 81.6492 221.12 81.2992 224.57 81.1492H224.79V81.3592C224.83 82.8292 225.17 84.4992 225.51 86.2592C226.55 91.4992 227.73 97.4392 220.73 98.8592L220.72 98.8392ZM211.53 92.7692L213.13 82.4692L213.28 82.4392C213.84 82.3292 213.99 82.6892 214.11 82.9492C214.13 82.9892 214.15 83.0392 214.18 83.0892C214.73 84.1792 215.06 85.6892 215.39 87.1492C215.66 88.3692 215.94 89.6192 216.33 90.5992L216.41 90.7992L211.54 92.7792L211.53 92.7692ZM210.35 56.7392L210.57 56.8092C215.63 58.4792 218.87 59.8492 221.11 64.8192C222.59 68.0992 223.45 71.9292 224.28 75.6392C224.59 77.0092 224.88 78.2992 225.19 79.5592L225.26 79.8192L224.25 79.8692C220.81 80.0492 217.57 80.2192 214.25 81.3392L214.03 81.4092L211.86 73.4292C211.82 73.2792 211.7 73.1592 211.53 73.0992C211.36 73.0392 211.18 73.0592 211.05 73.1492C210.54 73.5192 211.62 77.2592 212.03 78.6692C212.22 79.3292 212.37 79.8392 212.42 80.1192V80.1992L210.38 90.0292L210.1 89.4892C207.48 84.4092 206.24 78.3092 206.6 72.3192C206.82 68.7092 207.93 65.0092 209.01 61.4492C209.48 59.8992 209.92 58.4392 210.29 56.9792L210.35 56.7592V56.7392ZM206.01 55.9692L206.03 55.9392C206.55 55.2392 207.25 55.5592 207.87 55.8492C208.24 56.0192 208.63 56.1992 208.96 56.1592L209.28 56.1292L205.84 68.4292L205.82 68.4592C205.57 68.8192 204.83 68.8092 203.73 68.7592C203.33 68.7392 202.95 68.7192 202.75 68.7592L202.42 68.8192L206 55.9892L206.01 55.9692ZM210.45 48.5392L210.49 48.6292L210.45 48.7192C209.94 49.7192 207.55 51.3192 205.87 51.7792C205.56 51.8592 205.29 51.9092 205.05 51.9092C204.78 51.9092 204.55 51.8492 204.37 51.7392C203.99 51.4892 203.59 47.5992 203.59 47.5592C203.58 46.9892 204.08 46.0892 204.6 45.1292C204.96 44.4792 205.33 43.8192 205.5 43.3092C205.6 43.0192 205.71 42.3592 205.79 41.8292C205.93 40.9692 205.96 40.8592 206.04 40.7792C206.12 40.6992 206.23 40.6892 206.61 40.6692C207.17 40.6392 208.33 40.5792 208.6 40.1592L209.01 39.5192V40.2792C208.97 43.4492 209.46 46.2192 210.46 48.5192L210.45 48.5392ZM209.07 36.8592C208.75 38.0992 207.94 39.5692 206.72 39.6392C206.51 39.6492 206.26 39.5892 206.01 39.5092C205.75 39.4392 205.43 39.3492 205.27 39.4092C205.16 39.6092 204.85 40.5892 204.61 41.3792C204.32 42.3092 204.03 43.2692 203.86 43.6192C202.17 47.0892 198.81 49.2892 195.23 49.2892C195.11 49.2892 195 49.2892 194.89 49.2892C191.56 49.1592 188.9 47.1492 187.58 43.7892C186.48 40.9892 185.85 32.9392 186.32 30.1792C186.35 30.0092 186.43 29.5092 186.93 29.4492L187.21 29.4092L187.17 29.6892C187.11 30.1892 187.15 30.5192 187.3 30.6592C187.49 30.8392 187.93 30.7492 188.4 30.6492C188.74 30.5792 189.1 30.4992 189.45 30.5092C189.75 30.5092 190.12 30.6292 190.48 30.7392C190.9 30.8692 191.43 31.0392 191.6 30.9092C191.83 30.7392 191.77 29.9692 191.55 29.6592C191.35 29.3792 190.97 29.3092 190.56 29.2492C190.11 29.1792 189.64 29.0992 189.37 28.6992L189.2 28.4492L189.49 28.3692C191.62 27.8192 193.2 26.3692 194.73 24.9592C195.21 24.5192 195.71 24.0592 196.22 23.6292C197.46 22.5892 197.72 22.6192 197.88 22.7492L197.93 22.7892L197.95 22.8492C198.25 23.6992 198.82 24.7092 199.44 25.4992C199.86 26.0292 200.76 26.9092 201.72 27.8492C203.45 29.5392 205.24 31.2892 205.47 32.1592C205.55 32.4592 205.54 32.7392 205.54 32.9692C205.54 33.2192 205.54 33.3792 205.61 33.4692C205.67 33.5292 205.84 33.6092 206.28 33.5992C206.52 33.5992 206.74 33.5392 206.96 33.4892C207.44 33.3692 207.93 33.2492 208.54 33.6392C209.35 34.1592 209.39 35.6392 209.06 36.8792L209.07 36.8592ZM208.16 31.2992C208.16 31.2992 208.22 31.4792 208.26 31.5392C208.33 31.6692 208.43 31.8592 208.26 31.9892L208.22 32.0192H208.17C207.98 32.0692 207.82 32.0892 207.67 32.0892C206.88 32.0892 206.64 31.5592 206.41 31.0492C206.3 30.7992 206.19 30.5492 206.01 30.3292C205.16 29.2692 204.16 28.3292 203.21 27.4192C201.71 25.9992 200.16 24.5192 199.04 22.5192C198.92 22.3092 198.82 22.0192 198.72 21.6992C198.52 21.1092 198.24 20.2992 197.87 20.2992C197.52 20.2992 196.66 21.3892 196.2 21.9692C195.93 22.3092 195.7 22.5992 195.54 22.7592C192.4 25.7592 188.25 27.8892 183.87 28.7792H183.83C183.74 28.7792 183.65 28.7492 183.59 28.6692C183.3 28.2692 184.05 26.0492 184.2 25.6092C186.72 18.4092 192.17 15.5692 199.54 17.5992C205.49 19.2392 208.48 23.9792 208.17 31.2892L208.16 31.2992ZM250.92 11.1892H210.5V4.23917H250.92V11.1892ZM238.6 95.4692H231.68V83.3092H238.6V95.4692ZM246.81 95.4692H239.89V83.3092H246.81V95.4692Z"
        fill="#E52E2D" />
    <path
        d="M213.28 34.8692H222.22C222.3 34.7992 222.44 34.6592 222.5 34.5892V20.8192C222.44 20.7492 222.3 20.5992 222.22 20.5392H213.31C213.31 20.5392 213.22 20.6192 213.17 20.6592C213.15 20.6792 213.12 20.6992 213.11 20.7192V34.6892C213.16 34.7392 213.24 34.8192 213.29 34.8692H213.28ZM214.39 21.8292H221.09V33.5592H214.39V21.8292Z"
        fill="#E52E2D" />
    <path
        d="M241.59 34.8692H250.55C250.55 34.8692 250.58 34.8492 250.59 34.8392C250.67 34.7792 250.79 34.6992 250.92 34.6592V20.8592C250.88 20.7592 250.43 20.5592 250.15 20.5192C249.17 20.3892 242.16 20.4792 241.72 20.6292C241.67 20.6592 241.49 20.8392 241.42 20.9292V34.6892C241.47 34.7392 241.55 34.8192 241.6 34.8692H241.59ZM242.71 21.8292H249.41V33.5592H242.71V21.8292Z"
        fill="#E52E2D" />
    <path
        d="M227.53 34.8692H236.47C236.52 34.8192 236.6 34.7392 236.65 34.6892V20.9292C236.57 20.8392 236.39 20.6592 236.33 20.6292C235.85 20.4592 228.73 20.4192 227.91 20.5292C227.55 20.5792 227.38 20.6092 227.24 20.8192V34.5992C227.3 34.6692 227.45 34.8192 227.52 34.8792L227.53 34.8692ZM228.66 21.8292H235.36V33.5592H228.66V21.8292Z"
        fill="#E52E2D" />
    <path
        d="M227.13 73.6692C227.07 74.1892 227.43 74.7092 227.92 74.8192C228.36 74.7792 228.83 74.7592 229.31 74.7592C230.11 74.7592 230.94 74.8092 231.75 74.8492C233.17 74.9292 234.64 75.0092 235.88 74.8392C236.17 74.7992 236.62 74.5992 236.66 74.4892V61.0892C236.33 61.0092 236.02 60.9392 235.68 60.9092C233.75 60.7592 230.03 60.7192 228.13 60.9092C227.33 60.9892 227.23 60.9992 227.14 61.6992C226.9 63.5492 227.01 65.7092 227.12 67.7992C227.22 69.7892 227.33 71.8392 227.14 73.6592L227.13 73.6692ZM228.66 62.4492H235.36V73.5292H228.66V62.4492Z"
        fill="#E52E2D" />
    <path
        d="M222.3 54.9692C222.35 54.9392 222.53 54.7592 222.61 54.6692V41.1292C222.56 41.0792 222.48 40.9992 222.43 40.9492H213.29C213.24 40.9992 213.16 41.0792 213.11 41.1292V54.8992C213.43 54.9792 213.75 55.0492 214.09 55.0792C215.19 55.1692 221.81 55.1792 222.31 54.9792L222.3 54.9692ZM214.39 42.2492H221.09V53.7592H214.39V42.2492Z"
        fill="#E52E2D" />
    <path
        d="M227.92 55.0792C228.9 55.2092 235.91 55.1192 236.35 54.9692C236.4 54.9392 236.58 54.7592 236.65 54.6692V41.1292C236.6 41.0792 236.52 40.9992 236.47 40.9492H227.35C227.35 40.9492 227.26 41.0292 227.21 41.0692C227.19 41.0892 227.16 41.1092 227.15 41.1292V54.7392C227.19 54.8392 227.64 55.0392 227.92 55.0792ZM228.66 42.2492H235.36V53.7592H228.66V42.2492Z"
        fill="#E52E2D" />
    <path
        d="M242.18 55.0792C243.16 55.2092 250.17 55.1192 250.61 54.9692C250.66 54.9392 250.84 54.7592 250.92 54.6692V41.1292C250.87 41.0792 250.79 40.9992 250.74 40.9492H241.62C241.62 40.9492 241.53 41.0292 241.48 41.0692C241.46 41.0892 241.44 41.1092 241.42 41.1292V54.7392C241.46 54.8392 241.91 55.0392 242.19 55.0792H242.18ZM242.71 42.2492H249.41V53.7592H242.71V42.2492Z"
        fill="#E52E2D" />
    <path
        d="M241.73 74.7392C242.19 74.9092 248.9 74.9492 249.93 74.8292C250.28 74.7892 250.58 74.7392 250.82 74.5192L250.71 60.9192H241.78C241.78 60.9192 241.75 60.9392 241.74 60.9492C241.66 61.0092 241.54 61.0892 241.41 61.1292V74.4292C241.49 74.5192 241.67 74.6992 241.73 74.7292V74.7392ZM242.71 62.4492H249.63V73.5292H242.71V62.4492Z"
        fill="#E52E2D" />
    <path
        d="M33.3899 63.9092C33.5199 64.1192 33.6999 64.1492 34.0499 64.1992C34.8499 64.2992 38.8899 64.2492 39.2499 64.0992C39.2999 64.0692 39.4899 63.8892 39.5599 63.7992V52.8592C39.5099 52.8092 39.4299 52.7292 39.3799 52.6792H33.6799C33.5299 52.9192 33.3399 54.0692 33.2899 54.7492C33.1499 56.6792 33.2299 58.7892 33.3099 60.8292C33.3499 61.8592 33.3899 62.9192 33.3999 63.9192L33.3899 63.9092ZM38.2599 53.9792V62.8892H34.5799V62.6692C34.6199 61.6592 34.5999 60.6292 34.5799 59.6392C34.5599 58.5992 34.5399 57.5292 34.5799 56.4692C34.5799 56.1892 34.6399 55.9492 34.6899 55.7092C34.7799 55.2292 34.8599 54.8192 34.6199 54.2992L34.4699 53.9892H38.2699L38.2599 53.9792Z"
        fill="#E52E2D" />
    <path
        d="M34.2699 71.1292C33.9099 71.1792 33.7399 71.2092 33.5999 71.4192C33.6199 72.6792 33.5499 74.0492 33.4899 75.3692C33.3899 77.4392 33.2899 79.5792 33.4799 81.4492V81.5792C33.5399 82.1092 33.5599 82.3292 34.0799 82.4292C35.4499 82.6892 37.8599 82.4292 39.4599 82.2492H39.5499V71.2692C38.8299 71.0992 34.7699 71.0692 34.2699 71.1292ZM38.2599 81.1292H34.7999V72.4392H38.2599V81.1292Z"
        fill="#E52E2D" />
    <path
        d="M289.48 95.4592H282.23C282.07 95.6092 281.99 95.8792 282.03 96.1592C282.08 96.4492 282.24 96.6692 282.48 96.7392C282.92 96.8692 288.75 96.8692 289.19 96.7392C289.52 96.6392 289.6 96.3192 289.63 96.1292C289.67 95.7792 289.55 95.4992 289.49 95.4692L289.48 95.4592Z"
        fill="#E52E2D" />
    <path
        d="M139.64 105.299C140.05 105.659 143.65 106.039 145.13 106.119C148.34 106.279 151.92 106.079 155.5 105.539C155.57 105.499 155.62 105.439 155.66 105.349C155.74 105.149 155.72 104.839 155.66 104.609C154.25 104.609 152.81 104.649 151.43 104.689C147.73 104.789 143.91 104.889 140.15 104.359C139.81 104.369 139.51 104.549 139.43 104.779C139.36 104.999 139.51 105.189 139.65 105.309L139.64 105.299Z"
        fill="#E52E2D" />
    <path
        d="M85.5099 30.7592C86.1499 30.5692 86.5599 30.3292 86.6299 30.0892C86.9199 29.1292 85.9799 25.7692 85.4299 24.1192C85.3899 23.9992 85.3499 23.8592 85.3099 23.6992C85.1599 23.1592 84.9399 22.3392 84.5799 22.2292C84.4499 22.1892 84.2799 22.2492 84.0699 22.4092C83.4699 22.8992 84.1199 25.0192 84.5899 26.5592C84.9899 27.8792 85.2399 28.7092 85.1199 29.1292C84.9499 29.7192 84.1599 29.6792 83.3899 29.6392C83.2099 29.6392 83.0199 29.6192 82.8399 29.6192C82.5799 29.6192 82.3499 29.6392 82.2299 29.7192C82.0899 29.8092 81.9699 30.0592 81.9499 30.3492C81.9299 30.6092 81.9899 30.8492 82.0999 30.9492C82.3099 31.1392 84.0999 31.1592 85.5099 30.7492V30.7592Z"
        fill="#E52E2D" />
    <path
        d="M86.6799 33.1192C86.4699 32.9092 85.6299 33.2292 84.9499 33.4892C84.3099 33.7292 83.6599 33.9792 83.1299 34.0092C81.4399 34.0892 80.5899 33.4492 79.9599 32.9892C79.5999 32.7192 79.3099 32.5092 78.9699 32.4892C78.9199 32.4892 78.8799 32.4892 78.8299 32.4892C78.4599 32.4892 78.2099 32.5892 78.1199 32.7892C77.9899 33.0492 78.1399 33.4792 78.4999 33.8792C79.8599 35.3992 82.7899 35.8092 84.6699 35.2292C85.3199 35.0292 86.6599 34.2392 86.8199 33.5992C86.8599 33.4292 86.8199 33.2792 86.6799 33.1392V33.1192Z"
        fill="#E52E2D" />
    <path
        d="M75.9899 20.6392C76.2699 20.8592 76.9799 20.6592 77.5599 20.5092C77.9199 20.4092 78.2699 20.3192 78.5499 20.3092C78.8299 20.2892 79.1499 20.3392 79.4899 20.3792C80.1099 20.4592 80.7999 20.5492 80.9699 20.2192C81.1299 19.8892 81.1399 19.6292 80.9999 19.4292C80.6899 18.9892 79.7099 18.8192 78.8499 18.8192C78.6299 18.8192 78.4099 18.8292 78.2199 18.8492C77.9799 18.8792 75.8499 19.1292 75.8499 20.1992C75.8499 20.5192 75.9599 20.6092 75.9999 20.6392H75.9899Z"
        fill="#E52E2D" />
    <path
        d="M78.2999 25.5292C78.6099 25.4892 78.8299 25.2892 78.9599 24.9492C79.1799 24.3292 79.0199 23.3892 78.6099 22.9392C78.4299 22.7392 78.2299 22.6692 78.0199 22.7192C77.5299 22.8392 77.1799 23.8892 77.3399 24.7192C77.4199 25.1392 77.6599 25.6292 78.3099 25.5392L78.2999 25.5292Z"
        fill="#E52E2D" />
    <path
        d="M88.4599 25.3192C88.6499 25.2892 88.8299 25.0692 88.9399 24.7192C89.1299 24.1292 89.0799 23.3692 88.8299 23.1192C88.6099 22.8992 88.4299 22.8292 88.2999 22.8292C88.1799 22.8292 88.0899 22.8792 88.0499 22.9092C87.5799 23.2192 87.3199 24.2392 87.5599 24.8592C87.7099 25.2392 88.0099 25.3892 88.4499 25.3192H88.4599Z"
        fill="#E52E2D" />
    <path
        d="M146.02 27.2792C147.13 27.1092 147.87 26.6492 148 26.0392C147.8 25.4692 147.6 24.2492 147.37 22.8392C147.1 21.1392 146.68 18.5792 146.31 18.2892C146.14 18.1492 145.91 18.0992 145.71 18.1392C145.54 18.1792 145.4 18.2892 145.32 18.4492C145.17 18.7492 145.29 20.1692 145.68 22.6492L145.72 22.9292C145.84 23.7592 146.05 24.6292 146.3 25.4592L146.38 25.7392H146.08C145.9 25.7392 145.7 25.7392 145.48 25.7192C145.25 25.7092 145 25.6992 144.75 25.6992C144.18 25.6992 143.62 25.7592 143.44 26.0392C143.32 26.2192 143.36 26.5292 143.57 26.9492C143.7 27.2092 144.77 27.4592 146 27.2792H146.02Z"
        fill="#E52E2D" />
    <path
        d="M140.25 29.9392C140.66 31.1192 143.59 31.9892 144.71 32.0392C145.67 32.0792 147.65 31.5792 148.57 30.6892C148.88 30.3892 149.04 30.0792 149.04 29.7592C149.04 29.5592 149.01 29.3192 148.87 29.2392C148.54 29.0592 147.61 29.6392 147.07 29.9892C146.64 30.2592 146.39 30.4192 146.2 30.4592C145.25 30.6592 143.53 30.5692 142.58 30.1492C142.31 30.0292 142 29.7592 141.67 29.4792C141.37 29.2192 140.92 28.8292 140.71 28.8092C140.28 29.2092 140.13 29.5792 140.25 29.9492V29.9392Z"
        fill="#E52E2D" />
    <path
        d="M138.8 17.1192C139.27 16.9792 139.67 16.8592 139.96 16.8492C140.27 16.8392 140.59 16.9092 140.91 16.9792C141.31 17.0692 141.69 17.1492 142.01 17.0692C142.03 17.0692 142.08 17.0092 142.12 16.8692C142.21 16.5292 142.13 16.0792 142.01 15.9592C141.73 15.6892 140.96 15.5492 140.09 15.5492C139.43 15.5492 138.7 15.6292 138.09 15.7992C137.37 15.9992 136.91 16.2992 136.83 16.6092C136.76 16.8592 136.71 17.1992 136.86 17.3392C137.14 17.6192 138.1 17.3292 138.8 17.1192Z"
        fill="#E52E2D" />
    <path
        d="M148.66 17.0892C148.86 17.0692 149.04 17.0492 149.2 17.0492H149.23C149.45 17.0492 149.88 17.0992 150.38 17.1592C151.07 17.2392 152.34 17.3892 152.62 17.3092C152.71 17.1392 152.71 16.9592 152.62 16.7692C152.43 16.3192 151.88 15.9392 151.47 15.8392C150.61 15.6392 147.6 15.6292 147.41 16.1792C147.32 16.4392 147.24 16.7992 147.38 16.9692C147.58 17.2092 148.2 17.1392 148.66 17.0892Z"
        fill="#E52E2D" />
    <path
        d="M140.24 19.6592C140.08 19.4592 139.87 19.3892 139.61 19.4592C139.12 19.5892 138.88 20.5392 138.98 21.3092C139.05 21.8392 139.28 22.3992 139.74 22.3992C140.06 22.3992 140.25 22.1192 140.36 21.8892C140.68 21.2092 140.63 20.1192 140.25 19.6492L140.24 19.6592Z"
        fill="#E52E2D" />
    <path
        d="M149.74 19.4692C149.44 19.5292 149.19 19.9692 149.1 20.5992C149 21.3092 149.16 22.0292 149.44 22.1692C149.84 22.3692 150.16 22.3592 150.38 22.1192C150.8 21.6892 150.85 20.5892 150.48 19.8992C150.29 19.5492 150.04 19.3992 149.74 19.4492V19.4692Z"
        fill="#E52E2D" />
    <path
        d="M194.17 40.4292C194.52 40.4192 195.11 40.3392 195.18 39.9292C195.22 39.6492 195.2 39.4392 195.09 39.2992C194.89 39.0392 194.38 38.9792 193.89 38.9292C193.56 38.8992 193.22 38.8592 192.93 38.7592L192.73 38.6892L192.8 38.4892C193.21 37.2692 194.16 32.9892 193.79 32.3692C193.72 32.2592 193.56 32.1692 193.39 32.1492C193.36 32.1492 193.34 32.1492 193.31 32.1492C193.18 32.1492 193.07 32.1892 193 32.2592C192.73 32.6492 191.06 38.7392 191.09 39.2492C191.22 39.8092 192.93 40.4792 194.18 40.4392L194.17 40.4292Z"
        fill="#E52E2D" />
    <path
        d="M198.18 41.8492C198.04 41.8892 197.85 42.0392 197.67 42.1792C197.46 42.3392 197.25 42.5092 197.02 42.6092C195.73 43.1392 194.3 43.3092 193.11 43.0692C192.83 43.0092 192.5 42.8192 192.15 42.6092C191.76 42.3792 191.32 42.1192 191.03 42.1192C190.99 42.1192 190.95 42.1192 190.92 42.1392C190.86 42.1592 190.78 42.1992 190.71 42.3492C190.57 42.6492 190.57 42.9292 190.73 43.1992C191.16 43.9692 192.69 44.5292 193.59 44.6192C195.18 44.7792 198.19 44.0892 199.1 42.6892C199.21 42.5192 199.31 42.2792 199.17 42.0792C199.01 41.8492 198.58 41.7492 198.18 41.8592V41.8492Z"
        fill="#E52E2D" />
    <path
        d="M200.63 29.0992C199.15 28.7292 197.14 29.0092 196.84 29.4792C196.68 29.7292 196.71 30.4092 196.82 30.5192C196.97 30.5692 197.65 30.4792 198.09 30.4192C198.57 30.3592 199.06 30.2892 199.41 30.2892C199.48 30.2892 199.55 30.2892 199.61 30.2892C199.79 30.3092 200.02 30.3692 200.28 30.4492C200.78 30.5992 201.47 30.7892 201.74 30.5692C201.86 30.4692 201.9 30.2792 201.87 29.9992C201.82 29.4692 201.08 29.1992 200.63 29.0992Z"
        fill="#E52E2D" />
    <path
        d="M199.62 32.5592C199.53 32.5592 199.45 32.5892 199.37 32.6392C198.94 32.9192 198.67 33.9092 198.79 34.7092C198.86 35.1392 199.03 35.4292 199.26 35.4992C199.62 35.5992 199.87 35.4992 200.04 35.1492C200.45 34.3492 200.17 32.8392 199.98 32.6892C199.85 32.6092 199.73 32.5592 199.61 32.5592H199.62Z"
        fill="#E52E2D" />
    <path
        d="M190.2 32.8992C190.01 32.6992 189.85 32.6492 189.73 32.6492C189.61 32.6492 189.51 32.7092 189.47 32.7392C188.94 33.1192 188.69 34.3692 189.01 34.9992C189.19 35.3492 189.5 35.4392 189.98 35.2792C190.13 35.2292 190.27 34.9992 190.36 34.6492C190.53 33.9592 190.41 33.1092 190.21 32.8992H190.2Z"
        fill="#E52E2D" />
    <path
        d="M13.7399 187.899C14.3999 188.279 14.9899 188.309 15.5399 187.999C16.9999 187.149 17.7399 183.989 17.7399 182.459C17.7399 181.019 17.2099 178.559 16.0199 177.579C15.5699 177.199 15.0399 177.069 14.4699 177.179C13.2799 177.419 12.3999 178.759 12.0499 180.869C11.6099 183.539 12.1799 186.999 13.7399 187.899ZM14.5699 178.469C14.8599 178.399 15.1299 178.459 15.3699 178.639C16.3399 179.419 16.4599 182.249 16.4399 182.909C16.4199 183.549 16.0799 186.019 15.2299 186.709C15.0699 186.839 14.8899 186.909 14.7099 186.909C14.6699 186.909 14.6199 186.909 14.5799 186.899C13.6499 186.739 13.2499 184.869 13.1799 183.179C13.1199 181.579 13.3399 178.799 14.5799 178.479L14.5699 178.469Z"
        fill="#E52E2D" />
</svg>