<svg width="713" height="394" viewBox="0 0 713 394" fill="none" xmlns="http://www.w3.org/2000/svg">
    <g opacity="0.5">
        <path
            d="M231.845 151.87C232.38 152.119 232.928 152.372 233.23 152.853C233.749 153.676 234.269 155.588 234.871 157.801C235.415 159.801 235.978 161.864 236.547 163.115C236.935 163.961 237.654 165.075 238.353 166.146C239.227 167.493 240.058 168.768 240.315 169.639C241.073 172.164 240.879 178.27 239.227 180.742C235.663 186.07 226.668 189.899 218.738 193.275C214.668 195.008 210.822 196.647 207.937 198.355C201.793 201.994 197.699 207.303 196.101 213.706C195.504 216.094 194.814 222.566 195.47 224.784C195.577 225.144 195.825 225.752 196.296 225.777C196.742 225.801 197.393 225.3 197.806 224.298C198.452 222.731 198.627 220.838 198.811 218.834C198.986 216.941 199.166 214.98 199.768 213.175C200.851 209.911 203.148 206.845 204.78 204.821L204.872 204.734C211.288 200.077 218.718 196.827 225.901 193.684C228.752 192.439 231.695 191.149 234.516 189.797L235.114 189.51L235.206 190.166C235.716 193.777 236.595 197.825 237.761 201.878L237.775 201.926C238.931 205.96 239.63 208.397 240.791 208.743C241.918 209.079 244.011 207.541 247.032 204.943L247.508 204.534L250.169 209.93L250.13 210.095C248.508 217.384 247.299 223.899 246.444 230.01C246.303 230.997 246.148 232.073 245.978 233.197C245.293 237.828 244.516 243.078 244.414 246.912C244.37 248.576 244.769 249.832 245.429 250.114C245.929 250.328 246.653 249.992 247.474 249.175L252.792 213.102L253.234 213.127C253.471 213.141 253.904 213.127 254.399 213.112C257.308 213.029 259.562 213.063 259.887 214.246L259.901 214.328L261.946 236.632L262.412 277.891C263.078 278.766 263.758 279.199 264.258 279.058C264.841 278.893 265.258 277.944 265.355 276.582C266.336 262.341 265.962 241.624 264.36 221.169C264.272 220.06 263.986 218.605 263.685 217.068C263.272 214.961 262.84 212.781 262.927 211.39C262.995 210.271 263.733 209.147 264.447 208.062C265.074 207.108 265.72 206.125 265.831 205.254L265.899 204.729L266.419 204.846C267.934 205.181 269.032 206.227 270.086 207.244C271.499 208.602 272.728 209.774 274.743 209.049C280.386 201.625 284.446 195.105 287.525 188.537L287.739 188.079L288.186 188.308C291.629 190.069 295.398 191.733 299.04 193.344C304.523 195.767 310.196 198.267 315.13 201.25C326.174 207.921 326.572 217.408 327.033 228.394C327.849 247.9 327.189 274.85 323.872 291.076C321.293 303.717 310.555 304.943 301.085 306.033C296.69 306.539 292.183 306.762 287.826 306.981C283.32 307.205 278.662 307.439 274.136 307.979L273.441 308.061L273.607 307.38C275.598 299.162 275.034 291.173 274.131 283.763L274.073 283.296L274.539 283.223C276.807 282.868 279.075 282.493 281.348 282.119C286.501 281.267 291.828 280.382 297.093 279.774C297.792 279.691 299.021 279.642 300.444 279.589C302.979 279.491 306.806 279.341 307.486 278.908C307.932 278.621 308.141 278.037 308.044 277.346C307.918 276.446 307.33 275.672 306.612 275.458C305.859 275.239 304.839 275.443 303.756 275.657C302.547 275.901 301.294 276.149 300.172 275.857L299.793 275.755L299.812 275.361C299.978 271.858 300.094 268.291 300.211 264.837C300.361 260.229 300.521 255.461 300.793 250.785C300.915 248.683 301.216 246.328 301.502 244.051C301.906 240.855 302.328 237.546 302.294 234.749C302.275 233.075 301.425 232.253 300.594 232.18C299.944 232.131 299.098 232.535 298.851 233.878C298.079 238.028 297.952 242.67 297.826 247.156C297.705 251.491 297.583 255.967 296.884 260.073V276.246L296.481 276.319C291.158 277.292 285.685 277.988 280.391 278.655C274.466 279.404 268.337 280.182 262.422 281.35C261.878 281.457 261.252 281.71 260.649 281.953C259.843 282.279 259.008 282.615 258.279 282.649C257.347 282.688 256.39 282.304 255.448 281.934C254.826 281.686 254.234 281.457 253.69 281.35C248.372 280.323 243.287 279.983 237.188 280.241L236.668 280.26L237.183 262.725H247.61C247.877 262.725 248.066 262.623 248.207 262.399C248.557 261.835 248.474 260.764 248.183 260.103L209.175 224.935C208.801 224.706 208.369 224.726 207.883 224.77C206.446 224.906 203.163 228.409 200.263 231.503C197.597 234.35 195.082 237.04 193.43 237.858L192.804 238.169L192.731 237.473C192.716 237.357 192.707 237.206 192.692 237.035C192.362 233.333 191.74 232.559 191.274 232.559H179.298C178.715 236.13 178.798 239.867 178.88 243.482C178.938 246.187 179.002 248.985 178.788 251.715L178.769 251.817C178.375 253.15 175.855 255.218 173.417 257.222C171.867 258.497 170.109 259.942 169.876 260.492C169.556 261.236 169.454 262.389 169.803 262.925C169.935 263.124 170.114 263.212 170.391 263.212H179.376V297.897C179.395 297.927 179.414 297.956 179.439 297.99C179.57 298.175 179.75 298.433 179.837 298.729H203.658C204.139 298.729 204.207 299.153 204.324 299.853C204.445 300.564 204.644 301.756 205.12 302.529C207.262 305.989 209.865 306.495 212.618 307.03C214.041 307.307 215.513 307.594 216.955 308.29C217.417 308.514 217.776 308.937 218.121 309.351C218.398 309.682 218.684 310.022 218.99 310.202C228.15 315.72 236.959 316.352 249.407 312.387C250.373 312.08 251.616 311.482 252.821 310.903C254.127 310.275 255.356 309.682 256.225 309.458C256.696 309.336 256.895 309.793 256.992 310.012C257.192 310.47 257.527 311.234 258.814 311.409C262.976 311.978 267.643 311.618 272.155 311.263C274.092 311.112 275.918 310.971 277.696 310.898L280.488 310.791C288.662 310.475 297.112 310.149 305.315 308.947L305.427 308.932L305.533 308.966C305.912 309.088 306.058 309.326 306.111 309.506C306.257 309.983 305.907 310.436 305.674 310.733C305.66 310.752 305.645 310.771 305.635 310.786V320.872C305.635 321.446 305.635 322.414 295.903 323.913L295.675 323.947C273.947 327.343 242.938 326.93 218.514 322.921C217.951 322.828 217.261 322.604 216.533 322.366C215.217 321.938 214.046 321.592 213.158 321.592C212.356 321.592 211.773 321.87 211.501 322.609C211.06 323.821 210.812 326.876 210.627 329.104C210.564 329.888 210.506 330.598 210.448 331.143L210.414 331.45C209.617 338.913 208.131 352.804 209.034 359.699C209.165 360.691 209.675 361.27 210.443 361.294C211.215 361.309 212.162 360.73 212.38 359.733C212.38 351.816 213.002 343.823 213.599 336.091C213.857 332.768 214.124 329.333 214.338 325.952L214.377 325.353L215.489 325.665C217.208 326.151 218.83 326.609 220.549 326.896C228.645 328.243 237.858 329.041 249.538 329.411C265.972 329.927 285.335 329.868 304.305 325.504L304.844 325.382L308.151 360.093C308.336 360.657 308.836 360.891 309.122 360.978C309.749 361.178 310.492 361.056 310.963 360.681C311.434 360.302 311.755 357.052 311.458 351.559C311.186 346.557 310.608 341.949 310.055 337.497C308.996 329.022 307.996 321.013 309.098 311.151C309.098 311.127 309.409 308.509 309.725 308.193C309.899 308.013 310.176 307.93 312.172 307.424C313.712 307.035 315.63 306.553 316.436 306.169C326.421 301.474 327.344 292.818 328.412 282.8L328.456 282.386C329.393 273.629 332.264 243.292 329.908 220.707C327.956 201.96 315.989 196.929 302.134 191.105C297.413 189.12 292.528 187.067 287.778 184.352L287.613 184.26L287.555 184.08C287.21 183.024 285.622 181.355 284.223 179.876C282.878 178.46 281.712 177.234 281.469 176.412C281.154 175.356 281.814 166.301 282.076 165.285C282.276 164.506 282.776 163.533 283.305 162.501C283.766 161.606 284.242 160.677 284.509 159.894C284.767 159.139 285.005 157.996 285.238 156.887C285.583 155.232 285.913 153.671 286.355 152.873C286.753 152.162 287.467 151.749 288.157 151.35C288.647 151.068 289.109 150.8 289.439 150.445C292.766 146.883 295.442 139.97 294.155 134.574C293.455 131.635 291.692 129.63 288.914 128.618L288.574 128.492L288.599 128.127C288.696 126.555 288.861 124.935 289.021 123.369C289.58 117.895 290.158 112.236 288.074 107.084C281.853 91.6701 264.248 86.7949 250.834 90.0402C239.422 92.7989 227.795 102.087 229.388 119.88C229.475 120.882 229.883 122.425 230.311 124.055C231 126.682 231.714 129.397 231.335 130.711C231.185 131.241 230.617 131.367 230.165 131.47C229.898 131.528 229.597 131.596 229.446 131.718C227.669 133.182 226.625 135.45 226.43 138.276C226.129 142.699 227.994 148.178 230.869 151.296C231.073 151.52 231.457 151.695 231.831 151.866L231.845 151.87ZM181.313 236.456H188.588L188.603 236.928C188.622 237.556 188.647 238.116 188.671 238.622C188.826 242.008 188.88 243.146 185.762 246.046C185.378 246.406 183.377 248.216 181.925 248.605L181.313 248.771V236.456ZM198.311 267.012V295.328H182.77V260.127C182.479 259.314 180.983 259.31 179.662 259.31C178.725 259.31 177.836 259.31 177.234 259.037L176.573 258.74L208.257 228.501L241.495 258.103L241.524 258.273C241.583 258.628 241.52 258.911 241.33 259.11C241.029 259.426 240.582 259.382 240.228 259.339C240.101 259.324 239.966 259.31 239.868 259.314C239.456 259.334 238.941 259.314 238.348 259.285C236.823 259.217 234.55 259.11 234.007 259.932L233.739 281.613L233.332 281.676C226.955 282.649 224.969 285.617 225.202 287.87C225.488 290.633 229.014 293.246 235.196 292.901L237.751 292.76L232.176 295.328H218.237L217.63 266.52C217.111 266.228 216.494 266.184 215.843 266.136L215.532 266.111C213.09 265.912 200.035 265.902 199.006 266.34C198.889 266.408 198.476 266.812 198.306 267.012H198.311ZM201.711 295.328V269.542H214.823V295.328H201.711ZM257.823 303.259C257.289 305.488 253.928 307.127 250.713 308.436C245.832 310.421 240.786 311.428 235.813 311.428C233.147 311.428 230.5 311.141 227.912 310.562C227.785 310.533 227.62 310.504 227.431 310.47C226.338 310.27 224.847 310.003 224.561 309.098L224.362 308.465H234.497C235.502 308.465 236.231 306.86 236.231 305.779C236.231 305.419 236.158 305.239 236.109 305.162C236.056 305.064 236.007 305.059 235.954 305.059C234.206 305.059 232.375 305.108 230.437 305.157C226.508 305.259 222.438 305.371 218.913 305.055C216.941 304.879 212.152 303.877 210.248 302.763C209.695 302.437 207.568 300.52 207.412 299.25C207.359 298.812 207.534 298.535 207.689 298.384L207.82 298.258L208.005 298.248C210.919 298.112 214.163 298.306 217.596 298.515C226.197 299.036 235.954 299.63 242.161 294.662C244.657 292.662 244.803 291.665 244.667 291.251C244.166 289.719 238.941 289.509 235.483 289.368C232.618 289.252 230.826 289.159 230.097 288.707C229.339 288.235 229.257 287.719 229.325 287.364C229.684 285.476 235.862 284.221 235.925 284.206C244.196 282.722 251.262 284.26 257.663 286.142L257.973 286.235L258.012 286.556C258.547 291.193 259.105 297.966 257.833 303.264L257.823 303.259ZM270.124 307.546L270.042 307.896L260.878 308.499L260.955 307.911C262.029 300.009 262.189 292.565 261.446 285.16L261.397 284.683L270.586 283.588L270.659 284.05C271.98 292.536 271.8 300.218 270.115 307.541L270.124 307.546ZM247.037 199.82C243.851 202.87 242.714 203.902 242.088 203.902C241.928 203.902 241.796 203.834 241.68 203.712L241.588 203.615L241.554 203.483L237.756 187.996V187.938C237.756 186.994 238.873 186.002 240.048 184.951C240.611 184.445 241.146 183.973 241.384 183.627L241.461 183.515L241.588 183.462C241.869 183.34 242.078 183.423 242.18 183.481C242.462 183.647 242.491 183.958 242.51 184.162C242.51 184.211 242.52 184.289 242.53 184.333C244.754 186.036 246.91 187.958 248.994 189.821C250.46 191.135 251.981 192.487 253.496 193.743L254.511 194.579L253.2 194.604C252.452 194.633 249.067 197.878 247.041 199.82H247.037ZM243.967 174.723L243.802 173.439L244.769 174.3C252.379 181.049 261.32 182.333 269.95 177.92L278.007 172.086L278.298 172.388C278.837 172.943 277.531 177.424 277.346 177.648C276.171 179.078 272.31 182.114 265.55 186.931C264.306 187.816 263.015 188.658 261.762 189.476C260.543 190.273 259.28 191.096 258.075 191.947L257.949 192.035H257.794C256.628 192.035 244.448 182.046 244.069 180.781C243.768 179.764 243.851 178.48 243.933 177.239C243.992 176.319 244.05 175.448 243.958 174.723H243.967ZM263.792 202.734L263.714 202.841C263.447 203.206 263.015 203.98 262.558 204.792C261.164 207.288 260.11 209.079 259.207 209.4C258.785 209.55 258.304 209.443 257.799 209.327C257.478 209.254 257.143 209.176 256.881 209.186C256.609 209.195 256.298 209.297 255.968 209.4C255.574 209.521 255.166 209.653 254.763 209.653C254.632 209.653 254.506 209.638 254.38 209.609C253.209 209.332 249.703 203.026 249.873 202.126C250.023 201.338 256.56 195.664 257.323 195.664H257.546L257.692 195.835C257.969 196.161 258.668 196.813 259.479 197.567C262.592 200.472 263.884 201.81 263.806 202.598L263.792 202.729V202.734ZM284.645 186.547C284.529 187.846 281.09 193.514 279.056 196.774C273.801 205.186 273.087 205.308 272.864 205.308H272.64L272.499 205.147C270.95 203.435 269.153 201.873 267.415 200.36C265.385 198.593 263.282 196.769 261.558 194.686L261.237 194.302L279.711 179.852L280.012 180.187C280.163 180.358 280.377 180.582 280.624 180.844C283.247 183.618 284.743 185.437 284.641 186.551L284.645 186.547ZM239.708 99.6154C245.152 94.0688 254.045 91.6701 263.49 93.2076C272.917 94.7402 280.585 99.8198 284 106.802C284.077 106.957 285.728 110.743 285.728 111.171V128.862L282.096 120.396C279.692 115.448 274.69 116.474 269.857 117.462C268.182 117.807 266.599 118.128 265.113 118.221C260.441 118.503 255.157 117.486 250.242 115.35C249.164 114.883 247.275 113.618 245.453 112.402C244.021 111.443 242.059 110.13 241.651 110.062C241.622 110.062 241.588 110.062 241.558 110.062C239.456 110.062 237.071 115.876 236.42 118.352C236.182 119.257 236.071 120.177 235.959 121.072C235.784 122.483 235.604 123.938 234.924 125.266L234.347 126.395L234.021 125.169C231.253 114.708 233.113 106.354 239.708 99.6251V99.6154ZM229.922 138.048C230.039 136.286 230.612 135.08 231.578 134.554C232.414 134.102 233.336 134.71 234.313 135.352C235.124 135.883 236.037 136.491 236.702 136.282C237.115 136.155 237.484 135.703 237.795 134.944C238.523 133.168 238.62 130.205 238.708 127.344C238.781 125.086 238.853 122.746 239.242 120.931C239.256 120.863 240.922 114.343 242.253 114.338H242.452L242.593 114.475C248.804 120.464 258.843 122.084 265.555 121.646C266.73 121.568 268.051 121.267 269.454 120.946C273.403 120.041 277.88 119.009 279.604 123.408C279.804 123.914 280.012 124.95 280.279 126.268C280.935 129.514 282.164 135.552 284.155 136.238C284.626 136.403 285.151 136.228 285.748 135.712C285.966 135.522 286.18 135.124 286.404 134.695C286.884 133.79 287.482 132.662 288.764 132.355L289.002 132.297L289.186 132.452C290.818 133.824 291.046 136.291 290.959 138.116C290.765 141.984 288.987 146.241 286.996 147.603C286.316 148.071 285.66 148.202 285.083 148.319C284.475 148.445 284.038 148.533 283.713 148.956C283.203 149.627 282.659 152.372 282.227 154.58C281.916 156.147 281.625 157.626 281.338 158.517C279.085 165.474 275.238 170.622 269.901 173.814C266.366 175.925 262.883 176.986 259.498 176.986C257.58 176.986 255.691 176.645 253.841 175.964C246.998 173.449 240.903 166.058 237.537 156.201C237.338 155.612 237.076 154.425 236.799 153.165C236.537 151.977 236.182 150.352 236.032 150.09C235.93 149.939 235.357 149.764 234.978 149.647C234.444 149.482 233.89 149.311 233.477 149.005C231.525 147.579 229.665 141.838 229.922 138.028V138.048Z"
            fill="black" />
        <path
            d="M23.4813 326.667C23.6659 324.769 23.967 322.838 24.2584 320.969C24.5061 319.398 24.7586 317.773 24.9383 316.187L24.9966 315.681L25.4968 315.759C25.929 315.827 26.5167 315.924 27.2209 316.041C31.3489 316.732 42.3149 318.571 44.2575 317.33C44.6363 317.087 44.8257 316.483 44.7432 315.793C44.6606 315.102 44.3304 314.537 43.9127 314.367L20.4849 311.287L25.4385 284.542L25.5891 284.43C26.3321 283.88 35.9286 285.924 36.3366 286.332C36.4677 286.464 36.5745 286.702 37.0796 287.86C37.6235 289.115 38.4491 291.018 39.0076 291.786C41.8487 295.684 45.6659 298.102 49.216 298.257L49.6823 298.277V330.7C49.5414 331.406 50.9595 333.498 51.4889 333.756H118.198L118.062 337.356C117.79 344.513 117.508 351.909 117.708 359.231C117.979 360.55 119.179 360.584 119.689 360.535C120.66 360.443 121.583 359.844 121.583 359.3V333.756H148.503C149.047 333.503 150.431 330.914 150.256 330.228L150.241 330.107V284.537L150.795 284.615C153.291 284.975 155.375 284.391 156.987 282.887C160.503 279.608 161.338 272.461 160.945 266.866C160.406 259.173 156.56 253.403 150.654 251.418L150.44 251.345L150.358 251.135C149.474 248.907 149.654 243.312 149.829 237.906C149.984 233.158 150.159 227.772 149.401 226.711C148.867 225.962 147.721 225.83 146.924 226.088C146.497 226.224 146.361 226.414 146.361 226.463V252.59C146.672 252.965 147.852 254.084 148.095 254.22C148.644 254.532 149.357 254.697 150.12 254.872C151.417 255.174 152.762 255.485 153.553 256.575L154.161 257.407L153.131 257.344C148.755 257.081 144.399 256.921 139.805 256.857C139.144 256.848 138.469 256.77 137.818 256.697C135.686 256.453 133.676 256.23 131.957 258.195C130.582 259.762 130.801 261.051 131.034 262.418C131.15 263.1 131.267 263.805 131.16 264.516C131.112 264.841 130.859 265.017 130.611 265.182C130.121 265.518 129.305 266.077 129.329 268.286C129.344 269.746 129.742 270.49 130.126 271.21C130.364 271.658 130.606 272.12 130.718 272.699C130.844 273.366 130.762 273.979 130.679 274.631C130.538 275.706 130.393 276.82 131.165 278.392C132.685 281.486 140.757 283.019 145.093 283.846C145.603 283.943 146.065 284.031 146.468 284.109L146.856 284.187V330.316H146.371L53.1255 330.807V298.175L53.6403 298.209C56.8651 298.418 63.6545 297.192 64.5869 294.2C64.7132 293.786 64.7278 293.051 64.7375 292.458C64.752 291.64 64.7618 291.349 64.9366 291.134C65.0969 290.94 65.3348 290.886 65.9079 290.75C67.1172 290.468 69.6328 289.874 70.5944 287.952C70.9975 287.15 71.0072 286.517 71.0218 285.851C71.0315 285.359 71.0412 284.858 71.2112 284.298C71.4492 283.51 72.1048 282.868 72.7944 282.187C74.2611 280.747 75.7715 279.263 73.8094 276.105C73.0907 274.952 71.5852 274.329 70.8615 274.032C70.4876 273.877 70.3322 273.813 70.2205 273.663C70.0602 273.449 70.0991 273.239 70.2108 272.675C70.3273 272.086 70.5022 271.191 70.4147 270.524C69.662 264.817 61.1242 263.435 55.4761 262.521C54.767 262.404 54.1114 262.297 53.5189 262.195L53.1207 262.122V200.895H104.357C104.833 200.895 105.139 200.389 105.246 200.175C105.566 199.547 105.658 198.593 105.217 197.985C104.541 197.056 103.726 197.144 102.443 197.358C101.968 197.435 101.472 197.523 100.977 197.518C84.8823 197.406 67.7631 197.333 50.8964 197.742C50.2699 198.311 49.8765 198.686 49.7211 198.856V261.82L49.1432 261.713C45.7776 261.076 43.5631 259.003 41.4213 256.998C40.6394 256.264 39.8284 255.505 38.9639 254.814C38.5948 254.522 37.9829 254.162 37.3321 253.787C35.6518 252.814 34.5348 252.113 34.292 251.306L34.2677 251.228V251.145C34.3502 248.985 34.3745 246.747 34.4037 244.587C34.4425 241.482 34.4814 238.271 34.6708 235.177C34.7339 234.15 34.9816 231.635 35.2973 228.453C36.0792 220.561 37.7012 204.203 36.963 202.671C36.2977 202.204 35.7489 202.062 35.3264 202.247C34.5396 202.598 33.9909 204.048 33.6946 206.563C32.2619 218.805 31.7277 231.936 31.2615 245.433C31.2421 245.968 31.1401 246.46 31.0429 246.932C30.839 247.905 30.6641 248.742 31.2081 249.822L31.616 250.63L30.7176 250.522C30.1348 250.454 29.2558 250.231 28.1436 249.943C25.4385 249.253 20.9074 248.09 19.5184 249.306C19.1736 249.608 19.0425 250.065 19.1153 250.702C19.2902 252.25 22.6363 252.654 25.0791 252.95C25.963 253.057 26.7984 253.16 27.4103 253.301C32.8156 254.58 36.2394 256.959 40.3286 260.633L40.688 260.954L36.3171 265.922C35.8266 266.856 34.6805 269.78 34.6708 270.232V280.771C34.6708 280.771 34.6951 280.795 34.7096 280.805C34.9476 281.034 35.3021 281.374 35.103 281.798C34.8845 282.26 34.2434 282.187 33.8937 282.143C25.3948 281.141 11.3838 276.626 6.85749 269.736C2.18552 262.623 3.46278 246.907 4.30782 236.51C4.40495 235.328 4.49236 234.223 4.56521 233.221L4.69148 231.445C5.58508 219.004 7.67824 189.87 12.4813 181.053C18.8434 169.371 36.0889 165.333 46.3944 162.92L46.7684 162.832L46.9383 163.178C48.7207 166.793 50.0271 170.943 51.2898 174.952C52.6642 179.321 54.0871 183.841 56.1172 187.632C57.103 189.466 58.6765 191.349 59.6624 191.237C60.2306 191.169 60.5851 190.351 60.794 189.612L53.786 171.999L54.6845 172.203C55.9083 172.481 56.9913 173.05 58.0403 173.6C58.9194 174.062 59.745 174.495 60.658 174.777C67.0492 176.767 73.5958 176.242 80.1132 173.21L81.0651 172.768L80.7883 173.78C80.3658 175.307 80.0549 176.903 79.749 178.446C79.443 179.988 79.1322 181.579 78.7097 183.121C78.4766 183.982 77.9812 185.223 77.4567 186.537C76.7719 188.259 75.9949 190.205 75.9609 190.994C75.9318 191.665 76.2086 192.186 76.7331 192.473C77.3693 192.813 78.224 192.731 78.8602 192.263C81.745 190.157 85.3825 169.449 84.7026 164.963L84.5958 164.263L85.2854 164.414C86.8589 164.759 89.4814 166.121 92.2642 167.566C95.4501 169.221 99.0731 171.094 100.452 171.001C100.933 170.967 101.288 170.792 101.501 170.486C101.778 170.087 101.822 169.464 101.623 168.783C101.229 167.454 96.6594 165.61 93.93 164.506C92.5896 163.961 91.4289 163.494 90.7684 163.129L89.8263 162.608L90.8413 162.248C92.7013 161.587 94.168 160.93 95.4647 160.181C112.574 150.284 109.806 139.24 106.3 125.256C105.396 121.661 104.464 117.939 103.798 113.983C103.293 110.976 103.046 107.463 102.808 104.067C102.429 98.6812 102.04 93.1103 100.622 89.0476C99.2236 85.0482 97.4947 83.8465 95.2995 82.3236C94.27 81.6083 93.1044 80.8007 91.8903 79.6135C91.3609 79.0929 90.9918 78.4604 90.6373 77.8522C90.3313 77.3267 90.0448 76.8353 89.6806 76.4558C81.9975 68.4667 71.3229 64.9879 60.3957 66.9049C49.2403 68.8608 39.8187 76.2223 35.1904 86.5954C32.3736 92.9108 31.6063 99.0705 30.7904 105.59C30.4699 108.164 30.1396 110.825 29.6686 113.516C29.1198 116.659 28.2116 119.972 27.2452 123.48C23.9184 135.566 20.4752 148.061 31.1207 155.962L39.8284 161.207L38.6725 161.485C24.1078 164.949 10.0919 170.709 6.15815 189.237C3.4385 202.038 2.12724 219.549 1.1705 232.335C1.0928 233.367 1.00538 234.466 0.913109 235.624C0.0777878 246.012 -1.06835 260.244 2.35549 268.345C5.82305 276.558 13.035 279.467 20.6694 282.542L22.1507 283.141L17.1679 311.156C17.095 313.919 17.5661 314.041 19.2902 314.484C19.8341 314.625 20.514 314.795 21.2862 315.087L21.6602 315.228L21.597 315.622C19.227 330.009 19.4747 344.844 19.7078 359.188L19.7224 360.025C20.2226 360.813 20.9268 361.221 21.5922 361.095C22.3109 360.959 22.8354 360.243 23.0006 359.183C23.4182 356.468 23.1317 352.507 22.8597 348.678C22.6606 345.929 22.4566 343.083 22.5246 340.767C22.6655 335.975 23.1608 330.413 23.5251 326.647L23.4813 326.667ZM141.791 279.594C141.451 279.53 141.053 279.467 140.621 279.399C137.872 278.971 133.719 278.319 133.715 275.38V274.786L134.293 274.898C137.556 275.541 140.941 275.716 144.214 275.881C146.448 275.998 148.76 276.115 151.033 276.382C151.883 276.455 152.33 275.823 152.466 275.22C152.606 274.582 152.412 273.77 151.659 273.487C149.455 272.879 146.453 272.748 143.549 272.626C140.057 272.48 136.444 272.325 133.904 271.317C132.69 270.836 132.204 269.804 132.35 269.031C132.462 268.447 132.899 268.072 133.467 268.072H152.33C152.616 267.965 152.854 267.693 152.985 267.318C153.18 266.749 153.097 266.097 152.776 265.649C151.844 264.37 147.42 264.525 143.515 264.666C140.111 264.788 136.896 264.905 135.167 264.219C134.361 263.898 133.953 263.109 134.108 262.156C134.283 261.071 135.201 259.859 136.381 259.791H136.439L156.399 261.003L156.521 261.261C158.099 264.545 157.949 278.513 154.501 280.562C154.059 280.825 153.228 280.936 152.15 280.936C149.484 280.936 145.312 280.265 141.786 279.589L141.791 279.594ZM38.6774 268.442C39.9449 265.931 42.0818 264.491 45.0249 264.151L45.1269 264.141L45.224 264.17C48.0213 265.017 51.1586 265.498 54.1988 265.97C57.341 266.452 60.5852 266.953 63.4554 267.858C65.9953 268.661 67.3988 269.804 67.2094 270.918C67.0152 272.038 65.3543 272.592 62.5375 272.49C60.4152 272.412 58.1763 271.979 56.0152 271.556C53.7326 271.113 51.3772 270.656 49.1383 270.612C48.6333 270.743 47.8514 271.045 47.7931 271.634C47.7348 272.271 48.4924 273.108 49.5511 273.59C51.8046 274.606 55.6655 274.957 59.3953 275.293C62.4501 275.57 65.6068 275.852 67.9088 276.514C69.8854 277.078 70.9004 277.852 70.9247 278.805C70.949 279.749 69.9971 280.567 68.0836 281.228L67.9768 281.262L50.877 279.258C49.4006 279.282 48.7595 280.046 48.6527 280.761C48.5361 281.535 49.0072 282.552 50.3039 282.965C51.0324 283.194 54.3154 283.432 57.4915 283.666C66.8743 284.347 67.6854 284.566 67.6708 285.369C67.6222 287.558 63.975 287.894 62.6006 288.021C60.794 288.186 58.4629 287.943 56.2094 287.704C53.3829 287.408 50.4642 287.101 48.7207 287.622C47.7057 287.923 47.7397 288.935 47.7979 289.359C47.9193 290.205 48.4681 290.95 48.9684 290.95C49.7357 290.95 50.8284 290.906 52.0911 290.857C55.2236 290.735 58.7688 290.594 60.2549 290.964C61.2602 291.212 61.3865 291.782 61.3719 292.098C61.3185 293.304 58.9242 294.511 57.6518 294.706C56.6757 294.857 55.3255 295.003 53.7909 295.003C49.5657 295.003 43.9467 293.883 40.9357 288.595C38.1675 283.739 35.8412 274.037 38.6725 268.442H38.6774ZM82.6337 163.275C82.1335 163.971 81.9635 164.759 81.7887 165.596C81.5896 166.535 81.3808 167.508 80.6911 168.403C78.7097 170.967 71.5463 172.763 68.409 172.763H68.4042C63.2028 172.763 52.2805 168.588 50.4107 162.657C50.0514 161.519 50.8575 160.356 51.6394 159.227C52.0765 158.594 52.5282 157.943 52.7564 157.325C52.9264 156.867 53.5626 154.712 53.5966 154.439V145.789L54.4174 146.582C60.1675 152.138 68.9481 155.369 77.8695 155.198L78.3746 155.189L78.3649 155.695C78.3357 157.042 78.4426 160.331 79.9821 161.791C80.5697 162.346 81.2982 162.579 82.2064 162.506L83.2554 162.424L82.6386 163.275H82.6337ZM81.2399 110.611C81.2933 111.239 81.4925 111.662 81.8421 111.915C82.6872 112.523 84.3821 112.11 85.7419 111.779C86.3344 111.633 86.8978 111.497 87.3446 111.458C87.9176 111.404 88.481 111.526 89.0298 111.638C90.1128 111.862 91.0501 112.061 92.0991 111.059L93.0315 110.169L92.915 111.458C92.7353 113.448 92.6139 115.482 92.4925 117.447C92.036 124.891 91.5697 132.589 88.107 139.697C86.0333 143.954 80.9777 150.878 76.2377 151.33C75.4364 151.408 74.6496 151.442 73.8774 151.442C60.7017 151.442 52.3534 140.524 49.8377 129.149C49.692 128.487 49.6483 127.67 49.5997 126.804C49.5317 125.548 49.454 124.132 49.0218 123.325C48.7741 122.863 48.0456 122.585 47.2054 122.264C45.6611 121.675 43.5436 120.873 42.4363 118.182C40.8968 114.445 41.465 111.356 42.4315 107.4L42.514 107.06L42.8637 107.03C44.039 106.938 45.2871 106.991 46.5012 107.05C47.8125 107.108 49.1675 107.171 50.3768 107.035C52.1397 106.836 55.5538 105.814 59.9829 104.15C69.22 100.686 76.1163 94.4483 81.6479 88.8044L81.9247 88.5222L82.2549 88.7314C89.0298 93.0422 92.9296 100.812 92.4391 109.001L92.3516 110.456L91.5503 109.244C90.3653 107.449 86.3247 107.147 83.639 108.091C82.692 108.422 81.1234 109.191 81.2496 110.611H81.2399ZM39.673 156.994C23.8116 150.382 26.7498 139.517 29.858 128.015C30.4262 125.903 31.0187 123.724 31.5043 121.529C32.2328 118.26 32.8059 114.718 33.4178 110.962C36.3268 93.0714 39.6196 72.7873 61.1874 70.194C67.7971 69.4009 77.2479 69.8485 84.756 76.4899C85.8973 77.497 86.8638 78.6647 87.8059 79.7887C88.6024 80.7472 89.428 81.7348 90.3362 82.6009C90.8995 83.1361 91.5406 83.5545 92.2205 83.9924C93.1772 84.6103 94.1631 85.2477 95.0033 86.2792C98.3689 90.3905 98.8157 98.1266 99.2139 104.953C99.3644 107.536 99.5053 109.979 99.7918 111.993C100.185 114.723 101.079 118.323 102.021 122.138C104.143 130.686 106.547 140.373 104.775 145.613C102.652 151.88 93.3375 158.672 87.2037 159.835L86.7521 159.923C86.0236 160.064 85.3243 160.2 84.6929 160.2C83.4788 160.2 82.5026 159.699 81.983 157.782C80.8126 153.461 81.6187 152.639 83.5565 151.194C84.2364 150.683 85.0863 150.051 86.0042 149.039C91.9825 142.456 95.6395 132.793 96.3097 121.836C97.179 107.643 96.9653 96.8859 86.2907 87.6853C83.6196 85.3839 82.1335 84.4936 81.1574 84.586C80.356 84.6687 79.7295 85.4715 78.7825 86.6927C77.9861 87.7194 76.9953 88.9941 75.4995 90.3467C69.0549 96.1609 57.7101 102.656 48.0262 103.172C47.1277 103.221 46.3653 103.094 45.6319 102.968C44.4372 102.768 43.4076 102.593 42.009 103.226C40.0081 104.135 38.6337 106.374 38.1383 109.526C37.3467 114.591 38.9931 120.98 41.7419 123.476C42.3101 123.991 43.4659 124.463 44.3887 124.843C45.36 125.242 45.8019 125.427 45.9865 125.709C46.137 125.938 46.2147 126.429 46.5547 129.236C46.8023 131.275 47.1083 133.815 47.3803 134.72C47.6862 135.722 48.337 136.744 48.9101 137.644C49.4492 138.495 49.9154 139.225 50.0611 139.862C50.5564 142.037 50.401 150.168 50.1679 152.561C49.8522 155.768 49.0849 157.631 47.7494 158.434C45.8553 159.572 43.1211 158.434 39.6584 156.989L39.673 156.994Z"
            fill="black" />
        <path
            d="M340.078 328.822C340.495 328.842 340.748 328.852 340.937 329.027C341.219 329.285 341.238 329.679 341.107 332.52C341.03 334.233 340.923 336.573 341.132 337.186C341.277 337.604 341.695 337.663 342.462 337.629C342.841 337.609 343.133 337.6 343.351 337.804C343.662 338.096 343.72 338.719 343.594 344.158C343.55 346.173 343.502 348.255 343.574 348.975C343.715 350.332 345.959 358.891 346.479 359.728C347.042 360.161 347.688 360.273 348.256 360.034C348.878 359.771 349.3 359.12 349.383 358.292C349.553 356.59 349.009 355.31 348.436 353.952C348.106 353.179 347.771 352.381 347.562 351.486C346.338 346.245 346.148 342.227 346.93 338.047L347.003 337.648H357.605V345.19C357.605 347.433 359.033 347.691 360.412 347.939C361.291 348.094 362.122 348.245 362.369 348.995L362.389 349.072C362.787 351.598 362.777 354.342 362.767 356.993C362.758 359.319 362.753 361.518 362.996 363.562C363.282 365.97 364.448 367.026 365.39 366.967C366.182 366.929 366.735 366.199 366.759 365.143C366.832 362.292 366.488 358.326 366.182 354.828C366.065 353.485 365.953 352.196 365.871 351.043C365.837 350.561 365.686 350.201 365.502 349.744L365.142 348.844H365.856C368.867 348.824 372.039 349.019 375.399 349.228C380.659 349.554 386.103 349.89 390.824 349.335C391.78 349.223 392.956 348.834 393.383 348.07C393.611 347.661 393.601 347.185 393.339 346.615C392.713 345.233 391.678 345.365 390.051 345.705C389.527 345.812 388.978 345.929 388.468 345.939C387.147 345.963 380.455 345.988 374.001 345.759C361.393 345.316 361.14 344.363 360.985 343.798L360.966 343.725V343.652L362.69 301.96L362.753 301.858C363.175 301.133 364.059 301.347 364.763 301.517C365.06 301.59 365.361 301.663 365.589 301.663C366.201 301.673 366.983 301.693 367.886 301.712C373.238 301.838 384.379 302.101 387.186 300.661C387.652 300.423 389.124 298.968 389.439 298.433C390.445 296.735 391.926 287.948 390.746 285.875C390.581 285.583 390.44 285.583 390.382 285.583H369.499C369.023 285.583 368.411 286.697 368.411 287.884C368.411 288.249 368.474 288.556 368.595 288.75C368.697 288.916 368.824 288.989 369.013 288.989H387.958L387.672 289.665C387.409 290.278 387.366 291.441 387.327 292.565C387.244 294.779 387.157 297.07 385.593 297.625C385.394 297.693 382.839 298.233 382.611 298.233H362.923L362.942 297.727C364.118 266.583 363.384 236.203 360.762 207.424C360.247 206.66 359.684 206.281 359.159 206.339C358.562 206.412 357.993 207.05 357.624 208.052C360.15 239.522 360.801 270.773 359.567 300.948C359.543 301.532 359.416 302.062 359.295 302.578C359.188 303.026 359.086 303.449 359.067 303.858C358.96 306.193 358.902 308.582 358.843 310.898C358.732 315.559 358.615 320.381 358.086 325.052L358.037 325.485H340.112L340.121 324.988C340.301 314.275 340.189 303.361 340.087 292.803C339.976 281.413 339.859 269.634 340.102 258.064C340.452 241.215 341.132 224.059 342.069 208.441C342.132 207.39 342.19 206.266 342.254 205.103C342.525 199.922 342.831 194.044 343.749 189.612C344.58 185.612 346.236 182.416 348.538 180.367L348.62 180.309C355.934 176.096 363.894 172.685 371.592 169.386C373.51 168.564 375.424 167.742 377.327 166.914L377.633 166.783L377.866 167.021C378.231 167.391 378.046 167.897 377.094 170.228C375.929 173.089 373.976 177.881 374.894 179.934C375.074 180.333 375.355 180.601 375.763 180.742L375.822 180.766L382.004 183.895L381.135 184.328C379.1 185.34 375.234 187.987 375.079 189.106C374.875 190.57 378.852 198.267 380.159 200.798C380.343 201.158 380.503 201.459 380.62 201.693C388.939 218.021 398.623 234.817 409.4 251.612L409.477 251.734V251.875C409.487 254.322 409.497 256.77 409.502 259.217C409.56 279.068 409.618 299.596 411.614 319.7C411.789 320.254 412.285 320.488 412.566 320.575C413.207 320.78 413.955 320.663 414.426 320.283C415.237 319.636 414.567 314.824 414.242 312.508C414.106 311.54 413.989 310.703 413.96 310.183C412.853 292.497 412.668 274.232 412.508 258.113V257.976L412.576 257.86C414.708 254.22 416.859 250.576 419.016 246.922C427.131 233.177 435.528 218.96 442.919 204.607C443.055 204.34 443.245 203.98 443.468 203.551C448.004 194.876 450.151 189.899 449.84 188.76C449.762 188.585 449.199 187.855 446.338 185.116L446.168 184.951C446.071 184.858 445.819 184.727 445.6 184.61C445.017 184.304 444.415 183.982 444.415 183.403C444.415 182.868 444.954 182.591 445.129 182.499C445.542 182.28 446.115 182.085 446.78 181.861C448.228 181.37 450.214 180.693 450.398 179.672C450.918 176.859 448.106 170.218 446.542 167.094L445.921 165.849L447.183 166.438C450.496 167.98 453.992 169.362 457.377 170.7C464.405 173.478 471.67 176.353 477.852 180.839C478.79 181.452 479.674 183.258 480.611 185.165C481.602 187.184 482.961 189.943 483.918 189.704C484.307 189.607 484.545 189.383 484.666 189.004C485.404 186.77 482.048 180.815 480.844 179.336C476.886 174.451 466.799 170.544 457.902 167.099C452.433 164.978 447.266 162.978 443.667 160.876C441.958 159.874 433.095 149.978 432.643 148.562C432.366 147.691 431.837 143.862 432.133 142.879C432.352 142.154 433.177 140.933 434.139 139.517C435.057 138.16 436.101 136.617 436.562 135.537C436.951 134.627 437.514 132.516 438.058 130.477C438.791 127.733 439.219 126.161 439.539 125.723C439.86 125.281 440.467 125.086 441.108 124.877C441.545 124.736 441.997 124.585 442.298 124.376C445.853 121.87 448.291 114.329 447.319 108.85C446.916 106.583 445.741 103.693 442.434 102.807L441.987 102.686L442.089 102.233C443.92 93.8644 445.28 84.2746 441.462 76.5726C437.47 68.5154 425.82 60.8766 416.029 59.8938C404.446 58.731 394.694 62.2633 388.57 69.8388C381.951 78.0322 380.397 89.758 384.306 102.009L384.476 102.54L383.927 102.637C380.503 103.23 378.337 104.958 377.483 107.78C375.972 112.772 379.09 120.05 382.946 123.714C383.335 124.084 383.947 124.42 384.491 124.716C385.156 125.081 385.676 125.368 385.928 125.743C386.336 126.351 386.579 127.64 386.836 129.008C386.997 129.869 387.167 130.759 387.351 131.294C387.876 132.793 388.803 134.579 389.784 136.471C391.421 139.619 393.111 142.879 393.111 145.219C393.111 145.842 392.722 149.418 392.397 149.968C392.256 150.206 391.979 150.343 391.635 150.513C391.324 150.664 390.94 150.854 390.751 151.082C390.221 151.734 389.609 152.547 388.963 153.413C387.065 155.948 384.913 158.823 383.014 160.093C378.104 163.368 371.665 165.912 365.439 168.374C359.863 170.578 354.094 172.86 349.461 175.648C341.117 180.669 340.544 186.766 339.684 195.99L339.65 196.35C336.766 227.095 336.805 258.876 336.839 289.612C336.853 301.629 336.868 314.061 336.707 326.205C337.023 328.477 338.621 328.74 340.087 328.808L340.078 328.822ZM344.007 328.9H358.091V334.252H344.007V328.9ZM414.533 236.583C414.232 237.605 413.897 238.763 413.503 239.473C413.45 239.57 413.421 239.658 413.397 239.75C413.246 240.266 412.945 240.412 412.542 240.412C412.353 240.412 412.144 240.378 411.911 240.339L411.609 240.286L404.378 214.426L404.398 214.319L409.167 186.099C409.244 185.7 409.536 185.393 410.026 185.179C411.386 184.591 414.577 184.698 415.092 185.024C415.796 185.466 416.272 188.264 417.661 198.37C418.622 205.381 419.715 213.331 420.647 215.014L420.749 215.194L420.686 215.394C419.768 218.342 418.938 221.383 418.132 224.322C417.131 227.976 416.097 231.752 414.888 235.401C414.776 235.741 414.654 236.15 414.528 236.583H414.533ZM402.387 207.668L395.602 181.516L403.504 175.302L406.224 184.109L406.204 184.221L402.387 207.663V207.668ZM395.991 147.55L395.612 146.192L396.749 147.024C399.002 148.679 406.447 153.724 413.3 153.724C413.863 153.724 414.417 153.69 414.97 153.617C419.967 152.96 424.941 149.554 427.932 146.587L428.763 145.764V146.932C428.763 147.341 428.918 148.066 429.069 148.771C429.311 149.91 429.452 150.639 429.365 151.102C429.195 152.007 423.624 156.785 421.24 158.799C413.975 164.929 412.683 165.387 412.323 165.387C412.285 165.387 412.26 165.387 412.236 165.377L412.09 165.353L411.983 165.25C411.158 164.457 409.23 163.051 406.996 161.421C400.702 156.828 395.865 153.15 395.632 151.073C395.578 150.591 395.704 150.046 395.835 149.472C395.991 148.795 396.151 148.095 396.001 147.555L395.991 147.55ZM419.2 173.429C419.419 174.305 416.131 180.966 415.577 181.316C415.325 181.477 414.31 181.55 413.164 181.55C411.566 181.55 409.706 181.409 409.307 181.165C408.579 180.723 405.995 174.081 406.432 173.025C406.768 172.213 410.813 169.084 411.775 168.9C413.664 168.525 418.826 171.921 419.2 173.424V173.429ZM422.007 175.901L429.511 180.839L422.59 207.633L418.433 183.175L422.012 175.906L422.007 175.901ZM437.456 159.397L441.458 164.535C442.016 165.46 447.64 176.139 446.334 178.256C446.168 178.523 445.79 178.679 443.944 179.36C442.613 179.852 440.792 180.523 440.287 180.937C439.738 181.389 439.471 181.851 439.466 182.353C439.457 183.729 441.438 185.403 443.026 186.746C444.284 187.807 445.367 188.726 445.731 189.583C446.1 190.463 445.658 191.417 445.299 192.181C445.217 192.366 445.134 192.536 445.071 192.697C442.322 199.722 437.198 208.67 432.682 216.566C431.191 219.174 429.778 221.636 428.534 223.889L427.568 225.641C424.484 231.231 421.288 237.016 418.015 242.563C417.952 242.675 417.889 242.796 417.831 242.923C417.593 243.424 417.262 244.115 416.451 244.241L415.684 244.363L415.912 243.618C425.315 212.966 432.546 187.101 437.266 160.482L437.456 159.407V159.397ZM432.9 153.578L433.211 153.875C435.717 156.269 430.249 176.533 430.19 176.738L429.987 177.458L417.073 166.642L432.9 153.573V153.578ZM386.511 81.6132C388.502 73.376 394.733 67.1774 403.606 64.6036C413.805 61.6454 425.319 64.1803 432.254 70.9092C433.09 71.7217 433.682 72.364 434.255 72.9819C435.096 73.8966 435.892 74.7578 437.334 75.9887C441.438 79.4919 440.37 96.1512 438.675 101.338L438.544 101.737L438.131 101.669C437.121 101.498 436.951 100.686 436.839 100.151C436.805 99.99 436.776 99.8392 436.727 99.7176C436.489 99.0851 436.213 98.1412 435.887 97.0513C434.78 93.3195 432.726 86.3716 430.142 86.1089C429.263 86.0213 426.747 86.7268 424.319 87.408C421.667 88.1572 418.919 88.926 417.141 89.0525C414.081 89.2666 409.05 89.2958 405.922 88.9698C404.499 88.819 402.683 88.2108 400.765 87.5685C398.259 86.7268 395.413 85.7732 394.014 86.1916C392.31 86.7025 390.95 91.9718 389.954 95.8204C389.381 98.0341 388.886 99.9414 388.381 100.929L387.876 101.907L387.492 100.871C385.452 95.3338 385.049 87.5929 386.501 81.6132H386.511ZM391.552 132.37C391.202 131.567 390.702 129.888 390.173 128.112C389.512 125.903 388.41 122.211 387.944 121.807C387.672 121.671 387.264 121.636 386.836 121.602C386.414 121.568 385.977 121.529 385.574 121.374C383.267 120.469 381.402 116.114 380.926 112.421C380.712 110.777 380.61 107.833 382.296 106.602C383.189 105.945 384.403 106.159 385.685 106.378C386.594 106.534 387.531 106.7 388.337 106.539C391.076 106.004 393.83 96.302 395.01 89.9088L395.117 89.3298L395.665 89.5439C403.586 92.6335 411.342 93.553 419.37 92.3561C420.123 92.2442 422.002 91.7431 423.819 91.2565C427.699 90.2202 428.889 89.9429 429.297 90.0694C430.424 90.4246 431.24 93.1881 432.575 98.0487C433.532 101.513 434.61 105.439 435.62 106.476C436.596 107.483 438.51 107.084 440.044 106.763C441.234 106.515 442.176 106.32 442.769 106.69C443.512 107.152 443.944 108.179 444.046 109.74C444.299 113.487 442.643 119.364 440.938 120.77C440.19 121.388 439.384 121.481 438.67 121.559C438.228 121.607 437.81 121.656 437.47 121.826C436.659 122.23 435.591 126.39 435.023 128.628C434.697 129.893 434.421 130.983 434.183 131.64C430.137 142.723 422.459 149.491 413.635 149.749C413.46 149.754 413.285 149.759 413.11 149.759C404.315 149.759 396.287 143.298 391.557 132.36L391.552 132.37ZM392.12 154.551L392.353 153.899L407.909 166.637L394.655 177.526L394.529 176.679C394.218 174.641 393.684 172.554 393.116 170.345C391.756 165.041 390.348 159.558 392.125 154.551H392.12ZM378.138 177.195C378.381 176.499 378.614 175.799 378.847 175.093C380.596 169.848 382.402 164.423 387.196 161.125L387.822 160.692L387.948 161.441C391.125 180.003 396.263 198.462 401.231 216.318C403.543 224.619 405.932 233.201 408.088 241.677L409.026 245.355L379.051 190.994L379.037 190.906C378.838 189.466 380.503 188.473 382.271 187.427C384.908 185.865 386.725 184.6 386.074 182.571C385.729 181.501 383.213 180.392 381.373 179.579C379.246 178.64 378.216 178.154 378.109 177.424L378.09 177.307L378.129 177.195H378.138Z"
            fill="black" />
        <path
            d="M712.495 275.837C710.611 265.732 702.335 258.088 687.193 252.474L686.357 252.162L687.071 251.627C688.276 250.722 689.572 250.158 690.83 249.613C692.059 249.077 693.331 248.528 694.516 247.652C705.166 239.828 704.924 222.254 703.826 212.479C702.282 198.691 697.338 183.618 691.525 174.977C684.468 164.491 672.113 159.543 659.287 162.064C646.072 164.662 636.223 174.149 633.586 186.824C633.11 189.111 632.848 191.524 632.596 193.854L632.26 196.886C630.973 208.451 629.211 224.293 630.031 234.729C630.736 243.643 637.292 250.367 647.136 252.274L648.564 252.551L647.257 253.189C645.422 254.084 643.508 254.931 641.658 255.753C635.67 258.405 629.483 261.144 624.869 266.034C617.667 273.672 615.612 287.432 614.117 297.479L614.087 297.659C612.125 310.82 611.368 324.531 610.712 336.646C611.178 337.05 611.576 337.201 611.897 337.094C613.067 336.709 613.645 333.372 613.893 331.946L613.908 331.853C614.68 327.426 615.161 321.578 615.671 315.389C617.098 298.087 618.876 276.558 628.249 267.479C631.551 264.277 635.845 262.214 639.997 260.219C640.915 259.777 641.823 259.344 642.707 258.896L643.144 258.677L643.426 259.256C651.089 274.869 654.421 277.54 655.727 277.74C656.713 277.716 666.12 272.981 668.184 271.799C672.448 269.366 676.591 266.476 679.267 264.073C679.903 263.504 681.423 261.698 682.763 260.103C685.303 257.081 685.774 256.575 686.11 256.483C689.849 255.417 701.786 263.834 704.215 266.554C717.59 281.511 701.893 310.723 694.351 324.76C687.343 337.799 683.647 343.842 669.432 350.347C658.452 355.368 646.422 358.862 634.786 362.238C629.74 363.703 624.524 365.216 619.517 366.822L618.983 366.992L618.89 366.437C617.812 359.952 616.025 353.768 613.577 348.07L613.373 347.593L613.859 347.418C631.668 341.078 648.87 333.104 664.969 325.47C667.499 319.242 670.394 313.053 673.201 307.064C676.8 299.377 680.515 291.431 683.472 283.369C683.366 282.649 682.812 282.377 682.482 282.274C681.753 282.051 680.918 282.274 680.461 282.795L663.371 321.519L661.579 323.383L661.492 323.422C658.262 324.862 655.038 326.321 651.813 327.781C638.462 333.829 624.655 340.086 610.474 344.796C609.848 345.175 609.464 345.803 609.066 346.469C608.507 347.394 607.876 348.435 606.492 348.737C604.753 349.116 602.053 348.362 599.192 347.569C597.289 347.039 595.317 346.489 593.86 346.382C586.706 345.861 579.018 347.929 574.274 351.666C572.734 352.877 571.802 354.055 570.893 355.198C569.645 356.774 568.354 358.404 565.546 360.044C561.923 362.16 560.292 362.467 557.582 362.968C556.771 363.119 555.853 363.289 554.75 363.533C552.516 364.029 541.04 367.921 539.341 368.841C537.947 369.59 537.583 370.738 537.835 371.483C538.102 372.271 538.981 372.65 540.123 372.475L555.926 367.235L556.135 367.522C557.174 368.943 557.475 371.716 557.766 374.392C558.019 376.742 558.281 379.17 559.014 379.837C559.534 380.309 560.175 380.43 560.768 380.172C561.452 379.871 561.904 379.165 561.914 378.367C561.948 375.307 560.51 369.945 559.194 367.045L558.951 366.51L559.524 366.374C562.424 365.678 565.134 364.121 567.63 362.54L568.995 361.674L568.334 363.148C567.795 364.345 568.232 365.8 569.325 366.457C572.224 368.189 578.237 364.943 582.214 362.798C583.38 362.165 584.39 361.62 585.206 361.251L585.468 361.134L585.696 361.304C587.231 362.457 588.809 363.586 590.48 364.783C594.263 367.493 598.177 370.291 601.475 373.307C601.689 373.502 601.912 373.701 602.145 373.901C603.772 375.326 605.792 377.107 605.282 379.589L605.229 379.851L604.977 379.944C602.373 380.892 599.979 378.46 597.862 376.314C596.473 374.903 595.035 373.443 594.117 373.701C593.175 373.964 593.078 374.387 593.044 374.524C592.898 375.156 593.297 376.776 597.556 380.523L597.614 380.571C597.944 380.863 598.411 381.141 598.906 381.433C599.984 382.07 601.096 382.732 601.344 383.826C601.48 384.43 601.324 385.077 600.878 385.748C600.543 386.254 600.101 386.546 599.552 386.629C598.1 386.838 596.351 385.374 595.307 384.498L595.016 384.254C594.36 383.714 593.52 382.746 592.631 381.715C591.271 380.138 589.402 377.983 588.537 377.978C587.94 377.978 587.143 378.07 586.935 378.533C586.794 378.849 586.585 380.177 589.931 383.972C590.009 384.06 590.31 384.318 590.626 384.585C592.952 386.57 594.253 387.918 593.991 388.906C593.913 389.193 593.68 389.563 592.991 389.694L592.903 389.704H592.884C590.383 389.704 587.537 386.721 585.026 384.089C583.637 382.634 582.204 381.131 581.539 381.009C581.087 380.927 579.81 381.116 579.524 381.306C578.815 382.532 580.922 384.435 582.467 385.831C583.278 386.566 583.982 387.198 584.331 387.738C584.977 388.736 584.487 389.246 584.322 389.383C583.715 389.874 582.413 389.597 581.646 388.818C581.199 388.366 581.039 387.801 580.893 387.3C580.796 386.965 580.704 386.643 580.539 386.4C579.218 384.435 578.513 384.848 577.77 385.291C577.367 385.529 576.911 385.802 576.415 385.558C575.988 385.344 575.672 384.819 575.337 384.259C575.104 383.865 574.861 383.461 574.628 383.257C573.759 382.493 571.957 381.87 570.68 381.87C570.233 381.87 569.849 381.948 569.587 382.119C569.461 382.201 569.082 382.454 569.388 383.413C569.519 383.821 570.408 384.128 571.195 384.4C571.981 384.673 572.797 384.955 573.341 385.442C573.851 385.904 574.138 386.507 574.41 387.096C574.652 387.612 574.881 388.098 575.23 388.39C575.721 388.799 576.211 388.833 576.736 388.867C577.11 388.891 577.498 388.92 577.848 389.105C578.678 389.538 579.354 390.293 580.072 391.086C581.068 392.195 582.102 393.338 583.666 393.796C585.546 394.345 586.561 393.674 587.542 393.027C588.154 392.623 588.732 392.244 589.45 392.2C590.057 392.161 590.689 392.355 591.354 392.555C592.097 392.779 592.864 393.012 593.598 392.91C595.011 392.716 595.735 391.927 596.434 391.163C596.866 390.691 597.279 390.244 597.818 390.005C598.58 389.665 599.294 389.665 599.984 389.66C601.014 389.655 601.902 389.65 602.966 388.599C603.879 387.699 604.03 386.648 604.161 385.724C604.248 385.111 604.331 384.532 604.637 384.084C604.777 383.88 605.044 383.724 605.642 383.393C606.453 382.946 607.677 382.269 608.303 381.408C609.819 379.326 610.683 378.324 611.873 376.942C612.261 376.494 612.689 375.998 613.184 375.409C613.514 375.02 614.019 374.12 614.51 373.244C615.617 371.278 616.336 370.067 617.011 369.804L617.521 369.605L617.657 370.135C617.871 370.952 618.298 370.977 619.774 370.641C619.939 370.602 620.105 370.568 620.27 370.529C629.789 368.544 643.464 363.669 653.449 360.107L655.897 359.236C670.889 353.904 686.396 348.391 693.477 333.065L694.356 331.158L694.4 333.26C694.56 340.616 694.851 349.17 696.318 357.538C696.799 360.287 698.761 369.371 699.344 370.135C699.722 370.612 700.295 370.476 700.524 370.393C701.223 370.145 701.966 369.318 701.947 368.106C701.922 366.486 701.301 364.112 700.694 361.815C700.261 360.17 699.853 358.613 699.645 357.3C698.149 347.851 697.62 339.74 698.023 332.505C698.489 324.035 700.669 319.485 703.423 313.72C704.385 311.706 705.38 309.623 706.419 307.152C710.499 297.44 714.408 286.123 712.49 275.842L712.495 275.837ZM679.276 259.494C675.925 262.866 671.054 266.029 669.117 267.235C669.015 267.299 658.651 273.449 656.572 273.449C656.543 273.449 656.514 273.449 656.49 273.449C653.377 273.147 647.583 260.395 647.019 257.777L646.927 257.358L647.33 257.217C652.216 255.505 654.348 251.272 653.848 244.285L653.785 243.424L654.552 243.818C662.997 248.158 672.293 244.066 677.761 238.081L678.708 237.045L678.601 238.446C678.13 244.63 679.772 250.114 683.21 253.889L683.322 254.011L683.336 254.176C683.409 255.067 679.31 259.46 679.267 259.504L679.276 259.494ZM652.337 238.281C640.667 228.735 641.002 211.75 641.274 198.102L641.308 196.307L641.604 196.185C649.21 193.071 655.577 188.668 660.53 183.107L660.953 182.63L661.298 183.165C665.091 189.008 669.126 193.057 673.997 195.903C674.915 196.438 676.416 197.056 677.868 197.65C679.612 198.365 681.258 199.036 682.025 199.615C682.511 199.98 682.822 200.603 683.157 201.26C683.555 202.053 683.973 202.875 684.662 203.182C685.226 203.43 685.614 203.245 686.255 202.904C686.77 202.627 687.358 202.311 688.11 202.384C689.538 202.515 690.534 203.872 690.908 206.203C691.51 209.969 690.364 216.445 687.542 217.676C686.809 217.997 686.051 217.982 685.381 217.973C684.366 217.958 683.555 217.943 682.89 218.951C682.278 219.865 682.151 221.179 682.03 222.444C681.952 223.247 681.87 224.079 681.666 224.818C679.597 232.335 673.468 239.074 666.766 241.215C665.183 241.721 663.614 241.969 662.07 241.969C658.631 241.969 655.329 240.728 652.337 238.276V238.281ZM683.361 247.71C682.079 246.893 681.52 245.054 681.491 241.565C681.452 236.641 682.448 233.605 683.706 229.766C683.992 228.886 684.298 227.961 684.604 226.964C684.735 226.536 684.857 225.782 684.978 225.047C685.231 223.475 685.41 222.493 685.755 222.045C686.076 221.627 686.794 221.427 687.936 221.135C688.533 220.984 689.15 220.829 689.529 220.644C692.268 219.315 694.317 214.664 694.516 209.332C694.681 204.846 693.399 201.26 691.175 199.97C690.325 199.479 689.509 199.357 688.722 199.241C688.135 199.153 687.581 199.07 687.027 198.851C686.381 198.593 686.119 198.005 685.983 197.688C685.969 197.654 685.954 197.62 685.94 197.591C684.575 196.949 683.239 196.36 681.947 195.791C675.911 193.134 670.695 190.838 666.358 184.639C666.008 184.143 665.654 183.442 665.241 182.635C664.279 180.742 663.08 178.382 661.57 177.949C661.055 177.803 660.53 177.891 659.962 178.227C659.811 178.377 659.282 179.083 658.816 179.706C657.83 181.015 656.601 182.644 655.897 183.301C653.649 185.389 649.875 187.972 647.306 189.446C646.412 189.957 644.863 190.624 643.217 191.324C641.138 192.21 638.783 193.217 638.181 193.777C636.986 194.891 637.258 196.219 637.569 197.761C637.7 198.394 637.831 199.051 637.845 199.688C637.865 200.836 637.884 201.99 637.899 203.143C638.059 215.258 638.224 227.786 646.689 237.6C647.087 238.062 648.234 239.03 649.249 239.887C651.186 241.521 651.41 241.745 651.453 242.047C651.555 242.733 651.279 243.682 650.958 244.781C650.579 246.085 650.147 247.559 650.434 248.469L650.642 249.121L649.958 249.102C642.804 248.902 634.48 243.545 633.513 235.235C632.387 225.553 634.844 195.966 637.112 186.702C638.86 179.565 643.027 173.697 649.161 169.727C655.028 165.927 662.298 164.248 669.626 164.988C684.225 166.462 690.849 178.83 694.987 189.432C700.679 204.014 707.201 238.724 689.509 246.864C686.513 248.241 684.619 248.498 683.366 247.705L683.361 247.71ZM608.41 374.772L608.041 374.475L585.978 356.799C584.803 357.421 583.632 358.108 582.501 358.774C579.218 360.701 575.818 362.696 571.87 363.435L571.175 363.567L571.301 362.871C573.055 353.218 584.516 348.946 594.394 349.831C596.172 349.992 597.915 350.542 599.6 351.077C602.33 351.943 604.909 352.76 607.609 352.04C607.876 351.967 608.483 351.573 608.974 351.252C610.154 350.478 610.931 349.968 611.445 350.435L611.552 350.532L611.586 350.673L615.554 366.247L608.415 374.772H608.41Z"
            fill="black" />
        <path
            d="M490.766 226.818C491.368 227.071 492.164 226.896 492.98 226.346L493.592 157.636H513.499V165.664C513.533 165.888 514.184 166.803 514.922 167.245C515.214 167.42 515.408 167.45 515.5 167.416L515.578 167.386H515.66L557.014 167.109C557.64 166.545 558.029 166.17 558.184 166V157.631H578.096V158.118L577.979 252.634L577.78 252.78C576.984 253.369 576.037 253.432 575.206 253.486L574.992 253.5C563.91 254.293 552.157 253.928 540.783 253.578C530.526 253.262 519.919 252.936 509.862 253.456C508.783 253.607 508.142 254.128 507.987 254.999C507.832 255.879 508.249 256.741 508.453 256.887H578.824C578.999 256.887 579.698 256.419 580.631 255.077C581.636 253.627 582.238 252.075 582.029 251.466L582 251.389V251.306L581.762 157.193C581.311 155.884 579.164 154.469 577.746 154.25C576.493 154.055 572.482 154.182 568.606 154.298C560.782 154.542 559.223 154.508 558.806 154.07C558.636 153.89 558.626 153.68 558.597 153.121C558.543 152.016 558.432 149.715 557.004 149.078C556.033 148.645 552.89 148.786 550.598 148.893C547.64 149.029 546.655 149.044 546.256 148.703C546.091 148.562 546.062 148.401 545.926 147.735C545.819 147.204 545.654 146.397 545.484 146.051C543.877 142.835 540.705 141.697 538.603 140.947C537.592 140.587 536.922 140.344 536.636 139.94C536.271 139.434 536.111 136.52 536.286 122.624C536.301 121.598 536.31 120.809 536.31 120.391C536.315 118.42 536.305 116.669 536.286 114.582C536.286 114.114 536.388 113.579 536.5 113.01C536.718 111.901 536.966 110.641 536.334 109.906C535.868 109.361 534.008 109.419 532.517 109.468C531.06 109.512 529.681 109.556 528.855 109.186L528.127 108.855L595.9 55.3787L663.541 108.3L658.291 109.186C657.903 109.264 657.034 109.624 656.786 109.828V153.982C656.786 154.347 657.563 154.649 658.486 154.649C659.408 154.649 660.185 154.342 660.185 153.982V112.869H672.57C672.628 112.83 672.793 112.514 672.808 111.847C672.832 110.918 672.545 110.076 672.273 109.896L647.073 90.4829V60.2149C646.344 60.0349 645.64 59.8695 644.873 59.8111C641.808 59.5678 626.039 59.6067 624.942 60.0446C624.825 60.1128 624.417 60.5166 624.247 60.7161V72.5148L597.337 51.3355L595.128 51.1944L521.512 109.152L521.44 109.176C520.672 109.458 520.371 110.835 520.565 111.944C520.677 112.582 520.92 112.874 521.046 112.874H532.945L532.954 140.028L532.75 140.174C532.454 140.388 532.138 140.602 531.813 140.826C530.254 141.901 528.491 143.117 527.51 144.528C527.151 145.049 526.874 145.813 526.631 146.494C526.359 147.253 526.126 147.905 525.776 148.26C525.014 149.044 523.032 148.98 520.735 148.903C518.914 148.844 516.855 148.776 515.767 149.214C513.936 149.949 513.732 152.002 513.621 153.106C513.567 153.622 513.543 153.885 513.353 154.07C512.931 154.483 511.644 154.478 506.739 154.284C501.557 154.079 493.728 153.768 491.689 155.121C491.159 155.471 490.164 156.614 489.94 157.203L489.702 225.013C489.838 225.952 490.212 226.58 490.79 226.818H490.766ZM628.113 74.5194V63.7327H643.654V87.5734L628.215 75.9644L627.792 75.3416L627.783 75.2103C627.758 74.8746 627.982 74.6459 628.113 74.5194ZM516.899 152.771H527.826C528.681 152.771 528.967 151.184 529.195 149.91C529.302 149.321 529.39 148.815 529.535 148.435C530.41 146.134 532.299 144.47 534.581 143.988C536.757 143.526 538.942 144.202 540.574 145.842C541.346 146.621 541.953 148.017 542.541 149.365C543.236 150.961 544.022 152.771 544.829 152.771H554.784V164.448H516.904V152.771H516.899Z"
            fill="black" />
        <path
            d="M520.624 346.027C522.231 348.897 523.708 352.887 524.659 355.728C524.907 356.463 525.393 358.322 525.956 360.472C526.772 363.581 528.137 368.782 528.535 369.318C528.996 369.721 529.613 369.785 530.201 369.473C530.915 369.089 531.551 368.116 531.371 366.802C530.633 361.465 526.116 348.669 523.178 343.594C517.642 334.028 507.822 329.022 498.327 324.181C494.714 322.337 490.975 320.429 487.536 318.303L487.386 318.211L487.327 318.045C486.793 316.464 488.92 314.041 491.985 310.796C492.966 309.759 493.893 308.777 494.335 308.134C501.067 298.457 501.79 284.425 502.319 274.178C502.353 273.536 502.397 272.811 502.446 272.028C502.742 267.109 503.194 259.674 501.946 256.249C501.625 255.364 501.062 254.483 500.518 253.627C499.993 252.8 499.493 252.021 499.192 251.228C498.667 249.851 498.376 248.338 498.099 246.878C497.696 244.786 497.278 242.616 496.171 240.743C489.979 230.268 468.134 229.864 458.659 233.625C447.038 238.237 441.628 248.099 442.589 262.939C442.628 263.518 442.851 264.491 443.075 265.425C443.473 267.119 443.706 268.194 443.58 268.821C443.522 269.133 443.24 269.318 442.779 269.629C442.39 269.892 441.856 270.247 441.589 270.622C439.656 273.341 439.622 279.238 441.506 284.644C443.123 289.281 445.697 292.419 448.563 293.246L448.975 293.363L448.912 293.786C448.689 295.26 448.689 297.713 448.689 300.306C448.689 304.855 448.694 309.555 447.616 311.608C447.077 312.63 441.574 316.06 440.889 316.449C437.087 318.585 433.036 320.283 429.117 321.928C418.753 326.273 408.967 330.379 403.596 341.92C401.78 345.827 397.827 364.238 399.488 366.607C399.653 366.846 400.075 366.967 400.585 366.929C401.26 366.875 401.887 366.549 402.081 366.155C402.669 364.953 402.984 361.28 403.261 358.039C403.446 355.86 403.625 353.802 403.873 352.546C406.704 338.164 414.013 332.277 426.509 326.438C428.466 325.524 430.516 324.73 432.502 323.962C436.183 322.536 439.991 321.062 443.274 318.785L443.769 318.439L443.998 318.999C445.824 323.446 451.02 328.068 455.061 331.163C463.943 337.969 472.471 340.558 479.071 338.446C484.433 336.734 488.342 332.004 490.693 324.39L490.873 323.801L491.402 324.117C493.738 325.504 496.2 326.818 498.585 328.088C506.972 332.559 515.646 337.181 520.609 346.046L520.624 346.027ZM452.598 241.653C457.742 236.651 465.629 234.355 475.4 234.997C487.638 235.809 494.714 240.806 495.316 249.068L495.336 249.35L495.098 249.506C487.774 254.391 480.344 255.48 470.247 253.135C468.756 252.79 467.421 252.289 466.129 251.802C462.302 250.362 459.538 249.326 456.372 253.792C453.147 258.346 451.88 265.868 452.302 270.953L452.322 271.172L452.001 271.507L451.71 271.483C451.074 271.4 447.222 268.802 447.023 268.437C446.581 267.634 446.032 261.927 445.998 261.037C445.692 252.731 447.917 246.212 452.598 241.653ZM446.149 286.999C444.891 285.048 443.075 277.696 444.022 274.1C444.265 273.171 444.692 272.544 445.28 272.237C446.508 271.6 447.747 272.821 448.951 273.998C449.762 274.791 450.598 275.614 451.302 275.774C452.55 276.061 453.507 275.92 454.23 275.346C456.187 273.794 456.207 269.337 456.221 265.756C456.226 264.097 456.231 262.667 456.421 261.65C456.644 260.419 459.106 254.532 460.743 254.045C461.107 253.938 462.025 254.172 466.503 255.524C468.926 256.259 471.665 257.086 472.675 257.247C482.248 258.74 489.226 257.509 496.006 253.145L496.147 253.057L496.312 253.072C497.099 253.14 498.274 255.607 498.284 255.636C500.372 260.988 498.099 288.458 496.647 294.394C494.471 303.274 490.013 309.633 484.093 312.309C482.058 313.229 479.868 313.686 477.571 313.686C474.225 313.686 470.645 312.713 466.964 310.781C461.199 307.755 457.115 303.006 453.72 295.377C453.487 294.852 453.22 293.976 452.943 293.051C452.594 291.898 452.069 290.152 451.739 289.826C451.472 289.558 450.996 289.509 450.394 289.451C449.189 289.329 447.543 289.159 446.149 287.009V286.999ZM483.253 331.776C480.451 334.71 477.367 335.799 474.263 335.799C470.043 335.799 465.779 333.785 462.108 331.659C458.402 329.513 448.519 322.084 446.771 318.391C446.533 317.89 446.489 317.418 446.644 316.99C446.95 316.138 447.912 315.686 448.937 315.204C449.864 314.766 450.826 314.314 451.122 313.623C451.219 313.336 451.792 310.411 451.817 310.144V300.651L452.696 301.853C456.887 307.594 468.295 320.498 483.738 316.269L484.248 316.128L484.346 316.649C484.457 317.238 484.312 317.812 484.185 318.318C484.093 318.683 484.006 319.023 484.03 319.31C484.146 320.974 485.385 321.587 486.385 322.084C487.017 322.4 487.565 322.667 487.643 323.208C487.862 324.628 484.253 330.725 483.258 331.771L483.253 331.776Z"
            fill="black" />
        <path
            d="M99.2722 179.316C99.4081 179.954 99.8064 180.44 100.098 180.523C101.424 180.898 103.774 180.723 106.042 180.557C108.189 180.397 110.408 180.236 111.953 180.513L112.356 180.586L111.909 214.737C112.195 217.053 113.827 218.556 115.954 218.479C119.752 218.206 123.671 218.104 127.634 218.104C133.695 218.104 139.868 218.342 145.919 218.576C156.73 218.994 167.909 219.422 178.132 218.474C180.167 218.284 181.653 218.002 182.188 216.075C182.867 207.814 182.824 199.367 182.78 191.198C182.761 187.851 182.741 184.386 182.775 180.985V180.504H194.188C194.586 180.504 194.873 180.319 195.038 179.954C195.29 179.394 195.208 178.397 194.557 177.657C192.712 175.565 189.89 173.337 187.161 171.186C184.897 169.401 182.557 167.552 180.726 165.752C180.546 165.576 180.216 165.455 179.818 165.421L179.376 165.382V146.859C179.269 146.742 179.084 146.557 178.963 146.445H166.02C165.374 146.445 165.306 148.601 165.272 149.764C165.243 150.761 165.219 151.549 165.01 152.002L164.748 152.566L164.262 152.177C162.664 150.892 161.062 149.52 159.508 148.197C156.734 145.828 153.869 143.375 150.887 141.298C150.562 141.074 150.256 140.845 149.965 140.626C148.284 139.376 147.177 138.549 145.176 139.833C142.524 141.531 139.785 144.032 137.134 146.45C134.637 148.727 132.054 151.082 129.504 152.819L129.417 152.868C127.605 153.607 124.633 153.413 121.763 153.228C119.247 153.067 116.649 152.897 115.483 153.461C114.507 153.938 114.672 158.113 114.784 160.876C114.871 163.076 114.944 164.968 114.662 165.951L114.619 166.102L99.5247 178.193C99.1507 178.504 99.2285 179.088 99.2819 179.326L99.2722 179.316ZM168.691 150.245L168.769 149.851H176.457V161.421L176.088 161.514C175.918 161.558 175.767 161.572 175.631 161.572C175.044 161.572 174.733 161.232 174.49 160.969C174.398 160.867 174.31 160.774 174.213 160.696L173.893 160.448C170.279 157.66 167.671 155.641 168.696 150.245H168.691ZM147.075 142.874L187.535 176.465L186.874 176.801C186.33 177.078 185.315 177.088 183.722 177.083C182.154 177.083 180.007 177.069 179.463 177.614C179.4 177.677 179.371 177.74 179.371 177.828V213.346C179.371 213.662 178.472 214.562 178.157 214.562H115.26L115.784 179.623C115.906 179.175 114.91 177.39 114.468 177.098H106.159L147.08 142.874H147.075Z"
            fill="black" />
        <path
            d="M199.452 85.9629C214.124 78.6696 229.339 61.1296 223.92 35.7027C219.524 15.0878 200.497 0 179.691 0C178.497 0 177.297 0.0486546 176.093 0.150829C158.847 1.60074 144.661 12.008 138.139 27.9861C131.607 43.9935 134.594 62.1368 145.934 75.3368C159.551 91.1836 180.556 95.3581 199.452 85.9678V85.9629ZM142.325 27.8742C148.678 14.1098 161.455 5.20118 176.505 4.0432C186.413 3.28419 196.267 6.07209 204.236 11.9058C212.235 17.7589 217.834 26.3124 220.005 35.9898C222.327 46.3338 221.049 56.3907 216.314 65.0706C212.036 72.9138 205.028 79.3362 196.582 83.1653C190.978 85.7051 184.941 87.0041 178.992 87.0041C176.063 87.0041 173.154 86.6879 170.333 86.0554C160.853 83.9194 152.587 78.3047 146.434 69.8193C137.459 57.4367 135.924 41.7602 142.33 27.8791L142.325 27.8742Z"
            fill="black" />
        <path
            d="M599.202 322.108L599.416 322.093C600.645 322.016 602.174 321.923 602.704 321.184C602.956 320.833 602.985 320.327 602.801 319.646C602.733 319.461 602.228 318.872 601.999 318.678H593.627V302.481C593.607 302.452 593.588 302.422 593.564 302.388C593.433 302.203 593.253 301.945 593.165 301.649H568.3C568.184 301.756 567.999 301.941 567.887 302.062V318.692L547.976 318.182V289.733C547.976 286.629 553.687 281.219 556.96 281.219H597.755C597.964 281.219 598.284 280.538 598.284 279.516C598.284 278.494 597.964 277.813 597.755 277.813H555.503C552.031 277.813 544.576 285.281 544.576 288.76V318.683H524.421C524.159 318.683 523.839 319.121 523.8 319.743C523.742 320.721 524.387 321.845 526.369 322.093C530.847 321.874 535.407 321.792 539.987 321.792C547.111 321.792 554.289 321.991 561.321 322.186C573.88 322.536 586.871 322.896 599.197 322.108H599.202ZM570.806 304.558L590.232 305.069V318.678H570.806V304.553V304.558Z"
            fill="black" />
        <path
            d="M116.693 226.75C109.791 219.831 101.331 217.394 92.8664 219.89C83.2505 222.721 75.3344 231.348 73.1732 241.356C71.2452 250.27 74.232 258.682 81.5799 265.046C94.5954 276.319 109.301 272.004 117.45 263.226C125.721 254.318 129.014 239.103 116.693 226.755V226.75ZM100.481 268.072C99.7238 268.131 98.9808 268.16 98.262 268.165C84.6832 268.165 77.6072 257.704 76.7622 247.491C75.8298 236.242 82.3715 224.21 96.6642 222.984C105.017 222.269 112.069 225.402 116.518 231.815C121.35 238.782 122.176 248.581 118.577 256.201C115.279 263.187 108.849 267.406 100.481 268.072Z"
            fill="black" />
        <path
            d="M643.197 121.889C643.183 121.734 643.173 121.583 643.168 121.432C643.139 120.824 643.1 120.44 642.789 120.123L611.008 120.284C610.722 120.804 610.673 121.422 610.63 122.074L610.605 122.381C610.047 129.231 609.921 143.113 610.596 150.075C610.77 151.875 610.795 152.104 612.368 152.308C615.996 152.785 619.954 152.459 623.781 152.143C625.699 151.982 627.506 151.836 629.293 151.778C630.833 151.729 632.586 151.802 634.281 151.875C636.787 151.982 639.37 152.094 641.43 151.822C642.78 151.642 643.149 151.291 643.193 150.124C642.857 145.696 643.047 140.943 643.231 136.35C643.426 131.494 643.625 126.473 643.197 121.889ZM616.273 148.392C616.219 148.416 616.161 148.455 616.088 148.499C615.787 148.674 615.331 148.941 614.83 148.941C614.665 148.941 614.495 148.912 614.325 148.844L614.024 148.718V123.091H625.185L625.69 148.392H616.268H616.273ZM628.599 148.411V123.086H639.273L639.778 147.881L628.599 148.411Z"
            fill="black" />
        <path
            d="M622.523 216.961H622.533C623.261 217.024 623.694 216.61 623.932 216.255C624.364 215.593 624.461 214.581 624.15 213.997C624.004 213.72 623.791 213.589 623.499 213.589H597.517V174.179H620.833V174.67C620.814 176.616 620.823 178.606 620.833 180.528C620.843 182.07 620.853 183.613 620.848 185.15C620.843 187.048 620.848 188.95 620.857 190.862C620.867 193.606 620.877 196.448 620.848 199.265C620.843 199.805 620.751 200.559 620.644 201.435C620.352 203.848 619.906 207.497 621.197 208.568C621.654 208.947 622.334 208.981 623.271 208.68C623.383 208.645 623.626 208.475 623.737 208.368V171.196C623.63 171.079 623.446 170.894 623.324 170.782H594.987C594.817 170.928 594.496 171.254 594.36 171.425L594.108 213.754L593.496 213.584C593.034 213.457 592.588 213.399 592.16 213.399C590.83 213.399 589.717 213.949 589.139 214.596C588.751 215.029 588.61 215.486 588.756 215.851C588.999 216.464 589.984 216.897 591.461 217.029C596.633 217.496 602.296 217.277 607.774 217.063C612.689 216.873 617.778 216.673 622.523 216.97V216.961Z"
            fill="black" />
        <path
            d="M582.219 147.166C582.462 147.141 583.195 147.063 583.384 145.618C584.006 140.879 584.05 125.957 583.457 121.427C583.278 120.075 582.933 119.705 581.772 119.661C577.377 120.118 572.394 119.856 567.572 119.598C562.438 119.325 557.125 119.048 552.633 119.651C551.909 119.749 551.064 120.094 550.894 120.488V143.76C550.894 143.823 550.894 143.94 551.108 144.052C551.312 144.159 551.633 144.217 552.007 144.217C553.162 144.217 554.289 143.677 554.289 143.273V123.082H565.459V146.192C565.459 146.557 566.236 146.859 567.159 146.859C568.082 146.859 568.859 146.552 568.859 146.192V123.082H580.029V146.192C580.121 146.431 581.267 147.258 582.219 147.156V147.166Z"
            fill="black" />
        <path
            d="M596.308 101.386C598.168 101.265 599.775 101.167 600.698 101.172C600.96 101.172 601.402 101.231 601.965 101.304C603.398 101.484 606.375 101.858 607.113 101.206C607.196 101.133 607.23 101.06 607.23 100.953V81.005C607.191 80.8688 606.798 80.3141 606.623 80.2168C605.409 79.5357 596.711 79.6135 593.423 79.7935C591.189 79.92 587.576 80.3385 586.833 80.7228V100.807C587.003 101.007 587.415 101.411 587.542 101.484C588.426 101.897 593.17 101.591 596.312 101.386H596.308ZM590.232 83.681H603.83V98.2774H590.232V83.681Z"
            fill="black" />
        <path
            d="M128.13 307.949L73.9551 308.081C72.945 308.597 72.4205 309.385 72.5516 310.207C72.6876 311.073 73.5375 311.735 74.7176 311.895H127.673C129.033 311.822 129.795 310.767 129.825 309.759C129.849 308.991 129.417 308.115 128.13 307.949Z"
            fill="black" />
        <path
            d="M128.329 294.574C121.598 294.681 114.59 294.501 107.81 294.326C98.4514 294.083 88.7772 293.835 79.5741 294.331C78.0783 294.409 73.5812 294.91 73.0567 295.217C72.5419 295.684 72.605 296.394 72.6973 296.769C72.8576 297.455 73.3335 298.077 73.8192 298.248H129.111C129.285 298.248 129.693 297.756 129.805 296.988C129.868 296.555 129.951 295.11 128.334 294.574H128.329Z"
            fill="black" />
        <path
            d="M629.594 288.536C630.371 286.449 631.819 282.557 631.391 281.948C631.26 281.764 631.076 281.657 630.818 281.622C630.192 281.535 629.342 281.895 628.861 282.284C626.486 284.196 624.349 294.37 624.208 297.966C624.893 307.37 626.282 316.882 627.627 326.083C627.953 328.326 628.283 330.564 628.599 332.802C629.308 332.914 629.847 332.793 630.24 332.432C631.741 331.06 631.095 326.472 630.711 323.733C630.614 323.037 630.527 322.434 630.483 321.947C630.206 319.057 629.716 316.055 629.24 313.156C628.113 306.266 626.948 299.138 628.341 292.283C628.506 291.465 629.011 290.108 629.594 288.536Z"
            fill="black" />
        <path
            d="M546.752 331.309C545.946 331.206 544.163 331.143 542.298 331.143C540.05 331.143 537.685 331.231 536.776 331.425C535.859 331.625 535.47 331.951 535.344 332.632C535.067 334.135 535.247 348.177 535.553 349.145C535.8 349.651 536.267 349.734 537.063 349.841C538.515 350.031 546.951 349.968 547.772 349.627C548.301 349.369 548.383 348.902 548.49 348.104C548.709 346.421 548.617 332.997 548.267 332.009C548.014 331.493 547.553 331.411 546.752 331.304V331.309ZM545.552 346.416H538.753V334.739H545.552V346.416Z"
            fill="black" />
        <path
            d="M564.76 183.413C559.597 183.866 553.891 183.598 548.374 183.34C545.042 183.185 541.648 183.024 538.355 183.024C535.737 183.024 533.188 183.126 530.784 183.408C529.516 183.559 528.287 184.352 527.986 185.223C527.802 185.758 527.986 186.308 528.525 186.853C528.87 187.199 529.817 187.267 530.444 187.31L530.754 187.335C536.427 187.816 542.565 187.598 548.5 187.379C554.061 187.174 559.811 186.965 565.221 187.335C566.78 187.106 567.275 186.123 567.227 185.35C567.169 184.435 566.372 183.442 564.755 183.413H564.76Z"
            fill="black" />
        <path
            d="M81.3856 281.457C80.7397 281.837 80.4483 282.78 80.5017 283.51C80.5163 283.724 80.6086 284.42 81.1039 284.624H121.816C122.413 284.624 122.846 283.841 122.919 283.087C122.991 282.313 122.724 281.423 121.772 281.219L81.3856 281.457Z"
            fill="black" />
        <path
            d="M576.634 343.876C577.435 343.876 578.091 343.594 578.091 343.248V332.214C577.901 331.995 577.421 331.518 577.207 331.328H559.068C558.849 331.518 558.373 331.999 558.184 332.214V349.067C558.718 349.218 560.185 349.325 560.86 348.936C561.098 348.8 561.098 348.664 561.098 348.6V334.734H575.182V343.248C575.182 343.594 575.837 343.876 576.639 343.876H576.634Z"
            fill="black" />
        <path
            d="M566.149 230.618H528.797C528.433 230.618 528.127 231.396 528.127 232.321C528.127 233.245 528.433 234.024 528.797 234.024H566.678C566.877 233.931 567.363 232.929 567.251 231.917C567.169 231.177 566.799 230.74 566.149 230.618Z"
            fill="black" />
        <path
            d="M565.673 207.23C559.995 206.548 553.488 206.865 547.194 207.171C541.288 207.453 535.188 207.75 529.696 207.239C529.637 207.234 529.584 207.23 529.531 207.23C528.724 207.23 528.35 207.833 528.219 208.105C527.943 208.694 527.918 209.604 528.525 210.207C528.87 210.553 529.822 210.621 530.448 210.665L530.754 210.689C536.427 211.166 542.561 210.947 548.49 210.733C554.061 210.533 559.821 210.324 565.245 210.689C566.571 210.592 567.314 209.633 567.339 208.772C567.363 207.93 566.741 207.356 565.678 207.225L565.673 207.23Z"
            fill="black" />
        <path
            d="M509.119 194.443C509.284 194.477 509.497 194.492 509.609 194.399C510.138 193.781 511.469 192.409 513.154 190.677C516.365 187.369 522.343 181.214 522.561 180.221C522.561 180.032 522.289 179.521 521.784 179.01C521.274 178.499 520.774 178.232 520.541 178.232C519.346 178.236 513.383 185.238 511.134 187.875C510.289 188.867 509.619 189.651 509.24 190.064L508.953 190.376L508.609 190.137C508.05 189.753 507.317 188.936 506.535 188.074C505.515 186.946 504.111 185.398 503.47 185.34C503.412 185.335 503.349 185.33 503.291 185.33C502.727 185.33 502.237 185.588 501.887 186.07C501.411 186.727 501.334 187.641 501.683 188.449C502.023 189.198 506.948 194.02 509.119 194.438V194.443Z"
            fill="black" />
        <path
            d="M520.658 224.882C519.497 224.993 516.384 228.589 514.111 231.216C512.144 233.493 510.284 235.644 509.143 236.369L508.735 236.632L508.473 236.223C507.501 234.705 504.485 232.116 502.771 232.116C502.655 232.116 502.543 232.126 502.436 232.155C501.878 232.292 501.547 232.88 501.455 233.902C501.45 234.666 504.893 238.918 507.812 240.412C508.434 240.728 509.274 241.035 509.769 240.704L522.071 227.893C522.445 227.134 522.411 226.132 521.979 225.485C521.678 225.032 521.231 224.828 520.658 224.886V224.882Z"
            fill="black" />
        <path
            d="M501.538 211.891C501.95 212.479 506.899 217.428 507.424 217.778C508.167 218.119 509.021 218.128 509.798 217.797L522.061 204.549C522.416 203.746 522.357 202.958 521.896 202.423C521.44 201.887 520.658 201.722 519.803 201.975C519.04 202.204 516.175 205.624 514.082 208.125C510.935 211.881 509.59 213.423 508.89 213.545L508.793 213.564L508.696 213.54C507.666 213.302 506.695 212.197 505.753 211.137C504.966 210.246 504.073 209.239 503.461 209.181C502.863 209.122 502.198 209.477 501.771 210.086C501.363 210.67 501.275 211.326 501.533 211.891H501.538Z"
            fill="black" />
        <path
            d="M457.406 221.86C457.542 221.792 457.97 221.096 458.004 220.245C458.023 219.685 457.882 218.931 457.071 218.508C455.575 217.724 442.511 217.637 440.768 218.167C439.568 218.532 439.151 219.598 439.16 220.4C439.165 220.95 439.389 221.656 439.996 221.86H457.406Z"
            fill="black" />
        <path
            d="M468.013 222.118C468.028 221.592 468.096 220.712 468.183 219.617C468.406 216.79 469.081 208.193 467.877 207.789C467.056 207.512 466.44 207.492 466.051 207.736C465.721 207.945 465.507 208.378 465.42 209.03C465.119 211.268 465.255 213.895 465.386 216.435C465.497 218.586 465.609 220.809 465.468 222.838C466.42 222.848 467.649 222.804 468.018 222.118H468.013Z"
            fill="black" />
        <path
            d="M422.915 271.536C423.998 270.378 424.29 268.422 423.595 266.987C422.993 265.742 421.774 265.133 420.162 265.265C417.962 265.445 416.942 267.099 416.733 268.461C416.524 269.824 417.024 271.488 418.613 272.125C420.371 272.835 421.9 272.626 422.915 271.541V271.536Z"
            fill="black" />
        <path
            d="M356.978 355.685C356.818 355.033 356.779 354.322 356.745 353.636C356.692 352.658 356.643 351.651 356.187 351.325C355.905 351.126 355.4 351.13 354.686 351.345C354.084 351.525 353.71 352.069 353.569 352.97C353.118 355.879 355.259 361.158 357.522 362.71C358.163 363.148 358.717 363.221 359.208 362.929C360.315 362.282 359.455 360.535 358.217 358.322C357.673 357.349 357.158 356.429 356.974 355.685H356.978Z"
            fill="black" />
        <path
            d="M509.507 359.358C508.842 359.538 508.298 360.146 508.157 360.871C507.72 363.095 508.036 368.69 509.449 370.193C509.837 370.602 510.459 371.021 510.983 371.025C511.197 371.035 511.387 370.957 511.552 370.811C511.93 369.697 511.639 360.667 510.974 359.84C510.571 359.382 510.051 359.207 509.512 359.353L509.507 359.358Z"
            fill="black" />
        <path
            d="M433.541 360.424C433.206 360.336 432.818 360.521 432.376 360.983C431.623 361.791 431.186 369.532 432.779 371.137C432.93 371.288 433.328 371.692 434.362 370.738C435.61 369.59 435.746 365.795 435.091 363.114C434.722 361.616 434.129 360.584 433.537 360.428L433.541 360.424Z"
            fill="black" />
        <path
            d="M249.766 160.696C250.203 162.978 257.901 164.204 260.518 163.835C262.267 163.586 266.948 161.747 267.798 159.777C268.007 159.29 267.963 158.852 267.653 158.395C267.264 157.996 266.808 158.05 266.05 158.171L265.763 158.215C264.471 158.405 263.457 158.779 262.471 159.144C260.742 159.782 258.954 160.443 255.832 160.02C255.249 159.942 254.501 159.675 253.709 159.392C252.743 159.047 251.509 158.614 250.679 158.614C250.373 158.614 250.125 158.672 249.955 158.813C249.562 159.149 249.635 160.025 249.761 160.696H249.766Z"
            fill="black" />
        <path
            d="M253.981 152.002C256.298 152.741 259.911 152.192 261.276 150.892C261.732 150.459 261.883 149.997 261.747 149.477C261.417 148.231 260.552 148.275 258.668 148.659C257.765 148.844 256.827 149.039 256.007 148.868L255.681 148.8L255.623 148.474C255.453 147.462 255.662 146.455 255.866 145.482C256.084 144.441 256.293 143.453 256.021 142.553C255.885 142.101 255.06 141.288 254.37 141.045C254.185 140.982 254.059 140.977 253.991 140.996C253.433 141.906 252.015 149.438 252.214 150.474C252.379 151.326 253.268 151.778 253.981 152.007V152.002Z"
            fill="black" />
        <path
            d="M269.163 136.972C270.819 136.598 271.203 135.172 271.295 134.574C271.494 133.236 270.989 131.854 270.115 131.353C269.877 131.217 269.629 131.158 269.386 131.158C268.769 131.158 268.172 131.523 267.72 131.888C266.637 132.769 266.535 134.652 267.118 135.863C267.376 136.393 267.978 137.245 269.168 136.977L269.163 136.972Z"
            fill="black" />
        <path
            d="M248.333 136.632C249.722 136.218 250.072 134.618 249.693 133.323C249.397 132.311 248.6 131.29 247.26 131.29C246.993 131.29 246.701 131.328 246.391 131.421C245.973 131.543 245.594 132.097 245.405 132.866C245.133 133.985 245.283 135.518 246.094 136.296C246.624 136.802 247.381 136.914 248.333 136.632Z"
            fill="black" />
        <path
            d="M80.8077 115.837C80.1132 115.662 79.6227 115.72 79.3459 116.007C78.3406 117.039 79.3799 120.809 80.0015 123.062C80.2978 124.132 80.5309 124.974 80.5649 125.48C80.6329 126.439 80.4435 127.144 79.9821 127.64C79.2682 128.414 78.1269 128.419 77.1167 128.424C76.4951 128.424 75.7909 128.434 75.5724 128.667C75.2664 129.368 75.4461 130.939 75.8929 131.392C76.6214 132.122 79.749 131.946 81.0408 131.552C83.7264 130.725 84.217 127.85 84.1587 125.582C84.0373 120.98 81.6527 116.056 80.8028 115.842L80.8077 115.837Z"
            fill="black" />
        <path
            d="M78.5883 137.999C76.8545 138.189 75.0673 138.383 73.2315 138.126C72.7167 138.053 72.0465 137.775 71.2743 137.449C70.3273 137.05 69.1083 136.539 68.273 136.539C68.0253 136.539 67.8165 136.583 67.6514 136.69C67.3648 136.875 67.2094 137.294 67.1949 137.931C67.1803 138.408 67.4377 138.923 67.9573 139.464C69.6668 141.235 73.5278 142.582 75.1984 142.592H75.2275C77.1653 142.592 80.7543 141.415 81.7984 139.619C82.1481 139.021 82.1724 138.408 81.8761 137.761C80.7834 137.765 79.6713 137.887 78.5931 138.004L78.5883 137.999Z"
            fill="black" />
        <path
            d="M66.4081 111.935C66.7238 111.886 67.2094 111.871 67.8262 111.857C69.1083 111.828 71.7746 111.76 72.0805 111.04C72.1825 110.796 71.9543 110.339 71.4492 109.789C70.5022 108.753 68.6907 108.135 66.481 108.096C66.413 108.096 66.3401 108.096 66.2721 108.096C63.8147 108.096 61.4642 108.826 60.3763 109.935C59.9587 110.363 59.8518 111.254 60.1141 112.1C60.3326 112.801 60.7503 113.292 61.2068 113.385C62.5666 113.652 63.4359 113.2 64.3587 112.718C64.9754 112.392 65.6165 112.061 66.4081 111.935Z"
            fill="black" />
        <path
            d="M68.6858 117.978C68.8072 117.389 68.8364 116.26 67.7048 115.345C67.1074 114.864 66.5732 114.693 66.1167 114.693C65.3542 114.693 64.8006 115.165 64.5383 115.452C63.533 116.547 63.1688 118.566 64.2567 119.715C64.9317 120.425 65.7233 120.678 66.5344 120.444C67.564 120.148 68.4478 119.136 68.6858 117.983V117.978Z"
            fill="black" />
        <path
            d="M87.3688 120.454C88.7675 119.807 89.0395 118.795 89.0201 118.055C88.9861 116.839 88.141 115.594 87.0532 115.161C86.8298 115.073 86.5627 115.005 86.2664 115.005C85.7808 115.005 85.2125 115.19 84.6395 115.764C83.809 116.596 83.8333 118.547 84.6929 119.778C85.1494 120.44 85.9896 121.092 87.3737 120.449L87.3688 120.454Z"
            fill="black" />
        <path
            d="M403.727 134.914C404.15 137.663 409.948 139.079 414.854 138.51C416.602 138.306 422.153 137.342 422.211 133.294C420.22 133.245 418.71 133.737 417.107 134.248C415.072 134.895 412.964 135.566 409.944 135.031C409.39 134.934 408.671 134.642 407.836 134.306C406.534 133.781 404.572 132.983 403.941 133.484C403.62 133.737 403.645 134.403 403.727 134.919V134.914Z"
            fill="black" />
        <path
            d="M409.667 128.307C412.1 129.256 416.349 128.487 417.369 126.92C417.505 126.711 417.923 126.069 416.869 125.013C416.218 124.356 415.456 124.59 414.276 125.052C413.751 125.256 413.212 125.47 412.697 125.505C412.153 125.543 411.517 125.402 410.842 125.252C410.274 125.125 409.657 124.989 409.157 124.989C408.866 124.989 408.618 125.033 408.438 125.154C408.249 125.281 408.132 125.509 408.074 125.85C407.889 126.993 408.419 127.816 409.662 128.297L409.667 128.307Z"
            fill="black" />
        <path
            d="M422.901 112.922H422.925C424.246 112.913 424.911 112.071 425.232 111.361C425.81 110.1 425.684 108.432 424.945 107.561C424.63 107.186 424.227 107.001 423.751 107.001C423.566 107.001 423.367 107.03 423.158 107.089C421.619 107.512 420.711 109.585 420.924 111.156C421.016 111.818 421.395 112.927 422.901 112.927V112.922Z"
            fill="black" />
        <path
            d="M401.629 112.893C402.581 113.112 403.295 112.183 403.727 111.361C404.31 110.251 404.164 108.899 403.358 107.921C402.858 107.313 402.188 106.987 401.493 106.987C401.27 106.987 401.047 107.021 400.818 107.089C399.565 107.468 399.337 108.519 399.366 109.332C399.42 110.937 400.498 112.635 401.629 112.893Z"
            fill="black" />
        <path
            d="M652.541 207.59C651.322 209.044 649.953 218.177 650.638 220.274C651.157 221.875 654.838 223.232 657.315 222.736C658.573 222.483 659.166 221.816 659.083 220.76C658.986 219.534 657.815 219.369 655.897 219.238C655.076 219.184 654.304 219.131 653.678 218.902L653.561 218.858L653.479 218.766C653.202 218.454 653.27 218.036 653.823 215.574C654.396 213.005 655.363 208.704 654.644 207.497C654.46 207.186 654.188 207.016 653.843 206.986C653.809 206.986 653.78 206.986 653.746 206.986C653.309 206.986 652.842 207.215 652.532 207.585L652.541 207.59Z"
            fill="black" />
        <path
            d="M667.252 227.971C667.543 227.334 667.529 226.75 667.213 226.336C666.873 225.889 666.217 225.699 665.464 225.825C664.401 226.005 663.643 226.434 662.842 226.886C661.385 227.713 659.88 228.57 656.562 228.059C655.902 227.957 655.072 227.611 654.193 227.241C653.216 226.833 651.963 226.307 651.181 226.307C650.958 226.307 650.769 226.351 650.642 226.453C650.346 226.687 650.278 227.353 650.443 228.326C650.696 229.796 652.784 230.958 655.883 231.362C660.341 231.941 665.955 230.808 667.252 227.971Z"
            fill="black" />
        <path
            d="M664.168 203.191C664.712 203.337 665.27 203.211 665.916 203.07C666.412 202.963 666.926 202.846 667.48 202.846C667.553 202.846 667.626 202.846 667.698 202.851C668.233 202.88 668.917 203.094 669.636 203.318C670.821 203.688 672.288 204.145 673.084 203.722C673.376 203.566 673.575 203.293 673.696 202.885C673.91 202.165 673.764 201.561 673.254 201.046C671.419 199.187 665.838 199.046 664.042 199.562C662.983 199.863 662.614 200.739 662.623 201.396C662.628 202.067 663.041 202.895 664.168 203.191Z"
            fill="black" />
        <path
            d="M648.743 202.496C648.743 202.496 648.768 202.496 648.782 202.496C649.215 202.496 649.792 202.612 650.399 202.734C651.279 202.914 652.468 203.152 652.964 202.924C653.095 202.661 653.347 201.829 653.352 201.62C653.318 199.698 651.133 199.177 649.831 199.036C646.733 198.7 643.086 199.917 642.736 201.396C642.61 201.941 642.653 202.335 642.867 202.569C643.508 203.264 645.664 202.924 647.087 202.695C647.748 202.593 648.316 202.5 648.739 202.496H648.743Z"
            fill="black" />
        <path
            d="M648.467 205.371C647.811 205.094 647.16 205.24 646.529 205.809C645.359 206.865 645.441 208.704 646.189 209.803C646.529 210.305 647.51 211.37 649.268 210.485C650.191 210.018 650.361 209.142 650.341 208.485C650.302 207.171 649.477 205.804 648.467 205.371Z"
            fill="black" />
        <path
            d="M665.994 205.386C664.717 205.765 664.255 207.366 664.542 208.704C664.785 209.808 665.576 210.913 667.106 210.689C668.111 210.543 668.548 209.862 668.738 209.317C669.121 208.198 668.82 206.733 668.029 205.906C667.65 205.507 666.985 205.094 665.989 205.386H665.994Z"
            fill="black" />
        <path
            d="M484.311 291.324C486.317 290.896 487.832 289.84 488.274 288.561C488.784 287.077 487.323 280.528 485.39 276.83C484.559 275.244 484.025 274.986 483.884 274.947C483.369 274.801 482.694 274.699 482.388 275.035C481.451 276.066 483.146 280.406 484.156 283.004C485.258 285.836 485.589 286.794 485.225 287.31L485.108 287.476L478.945 288.502C478.926 288.989 479.207 290.181 479.499 290.492C480.358 291.417 482.296 291.752 484.311 291.324Z"
            fill="black" />
        <path
            d="M471.699 295.382C471.388 295.474 471.141 295.684 470.966 296C470.694 296.491 470.635 297.187 470.815 297.761C471.281 299.274 478.187 301.42 480.324 301.595C482.587 301.775 486.881 301.294 488.736 299.221C489.391 298.486 489.658 297.644 489.542 296.657C487.934 296.253 486.677 296.72 485.229 297.255C483.855 297.766 482.301 298.34 480.251 298.189C478.814 298.082 476.546 297.177 474.545 296.379C473.428 295.932 472.039 295.382 471.699 295.382Z"
            fill="black" />
        <path
            d="M490.795 275.76C492.053 275.643 492.606 274.631 492.825 274.037C493.286 272.772 493.053 271.23 492.286 270.442C491.907 270.057 491.417 269.863 490.834 269.863C490.484 269.863 490.105 269.931 489.697 270.072C488.882 270.354 488.454 272.062 488.799 273.658C488.911 274.183 489.377 275.881 490.795 275.76Z"
            fill="black" />
        <path
            d="M470.004 276.397C470.912 276.334 471.359 275.75 471.573 275.273C471.99 274.344 471.85 273.137 471.233 272.334C470.898 271.896 470.3 271.424 469.285 271.424C469.096 271.424 468.897 271.439 468.678 271.478C467.93 271.6 467.581 272.237 467.416 272.748C467.042 273.916 467.323 275.4 467.819 275.891C468.105 276.178 469.392 276.436 470.004 276.397Z"
            fill="black" />
        <path
            d="M131.772 201.931C131.816 202.569 131.884 203.537 132.233 203.887C133.501 204.831 150.202 204.398 157.332 204.213C159.512 204.155 161.266 204.111 162.179 204.106C162.723 203.527 162.786 202.773 162.859 201.902L162.878 201.644C163.267 197.29 163.427 186.42 162.878 182.241C162.752 181.272 162.475 180.791 161.717 180.265L132.442 180.251C131.898 180.83 131.835 181.584 131.762 182.455L131.743 182.713C131.32 187.427 131.325 196.453 131.743 201.649L131.762 201.931H131.772ZM148.775 183.423H159.459V201.425H148.775V183.423ZM135.176 183.423H145.861V200.939H135.176V183.423Z"
            fill="black" />
        <path
            d="M179.895 53.7828C182.144 53.6806 184.276 52.5907 185.738 50.7954C187.063 49.1703 187.127 47.8323 187.18 46.65C187.214 45.8861 187.248 45.1661 187.632 44.5238C188.078 43.7697 190.497 42.4609 194.436 40.3979C196.48 39.3275 198.413 38.3106 199.142 37.7754C200.637 36.671 201.041 35.5324 200.769 34.8951C200.482 34.2139 199.423 33.9366 198.005 34.1653C197.102 34.501 194.29 36.2525 191.803 37.7998C187.471 40.4952 186.131 41.2834 185.616 41.2834C185.325 41.2834 185.121 41.0937 184.3 40.286C183.941 39.9357 183.533 39.5367 183.324 39.3859C183.091 39.2205 182.523 39.0745 182.212 38.9967C181.852 38.9042 181.721 38.8701 181.6 38.7145C181.42 38.4809 181.469 38.2814 181.697 37.3181C181.823 36.7975 181.993 36.0871 182.003 35.766C182.149 31.8882 182.071 27.918 182.003 24.084C181.94 20.6004 181.872 16.9999 181.964 13.4627C181.512 12.1053 180.536 11.6284 179.759 11.6284C179.706 11.6284 179.652 11.6284 179.599 11.6333C178.54 11.7258 177.744 12.6161 177.579 13.9006C176.962 18.6542 177.253 26.9644 177.472 33.0316C177.511 34.1944 177.55 35.2843 177.579 36.2623C177.593 36.6807 177.797 37.3132 177.933 37.7316C178.118 38.2863 178.2 38.5393 177.948 38.7826C177.812 38.9139 177.656 38.948 177.195 39.055C176.433 39.2302 175.01 39.561 174.286 40.2422C173.004 41.4488 172.207 43.5264 172.164 45.8083C172.12 48.0951 172.834 50.2115 174.072 51.4717C175.631 53.0578 177.7 53.8752 179.9 53.7779L179.895 53.7828ZM175.699 44.9374C175.932 43.4777 176.879 42.3927 178.293 41.9694C180.91 41.1861 182.897 42.709 183.635 44.4557C184.441 46.3678 183.844 48.3529 182.173 49.2871C181.197 49.832 180.347 50.0266 179.633 50.0266C178.652 50.0266 177.923 49.6617 177.486 49.3552C176.165 48.4259 175.427 46.6111 175.699 44.9374Z"
            fill="black" />
        <path
            d="M180.454 73.8431C179.774 73.269 179.298 73.1035 178.968 73.1035C178.603 73.1035 178.414 73.3079 178.322 73.41C176.884 74.9767 177.428 80.6499 178.064 81.2872C178.633 81.8565 179.176 82.0754 179.677 81.9246C180.488 81.6813 181.25 80.465 181.576 78.9032C181.911 77.2878 181.814 74.9962 180.454 73.8479V73.8431Z"
            fill="black" />
        <path
            d="M151.217 47.8421C151.868 47.2971 152.063 46.6062 151.805 45.7402C151.742 45.531 151.553 45.3412 151.242 45.1758C150.455 44.7525 149.124 44.5919 147.905 44.5919C146.934 44.5919 146.036 44.6941 145.545 44.8449C144.889 45.0444 144.452 45.6623 144.38 46.4943C144.316 47.229 144.569 48.1243 145.273 48.4794C146.55 49.1217 149.722 49.0925 151.213 47.8421H151.217Z"
            fill="black" />
        <path
            d="M108.951 236.033C107.994 236.32 103.968 240.68 101.035 243.862C96.5477 248.727 95.6589 249.583 95.1101 249.583H94.9693L94.8479 249.506C94.1825 249.077 93.1724 247.949 92.0991 246.757C91.0307 245.569 89.5688 243.94 89.0589 243.808C88.9521 243.779 88.8404 243.769 88.7335 243.769C88.1799 243.769 87.6602 244.115 87.33 244.489C86.7909 245.093 86.5869 245.871 86.8152 246.474C87.3397 247.866 93.9203 253.797 95.0081 253.855C95.2655 253.846 95.5909 253.704 95.9017 253.568C95.994 253.529 96.0863 253.486 96.1786 253.451L111.205 239.094C111.603 238.096 111.515 237.035 110.976 236.427C110.53 235.921 109.811 235.785 108.951 236.043V236.033Z"
            fill="black" />
    </g>
</svg>